<?xml version="1.0"?>
<svg width="300" height="300" xmlns="http://www.w3.org/2000/svg" xmlns:svg="http://www.w3.org/2000/svg" preserveAspectRatio="xMidYMid meet" version="1.0">
 <defs>
  <g id="svg_1"/>
  <clipPath id="70d4bd9b77">
   <path clip-rule="nonzero" d="m111,47.43l152.86,0l0,203.57l-152.86,0l0,-203.57zm0,0" id="svg_2"/>
  </clipPath>
  <clipPath id="ef54f0c78a">
   <path clip-rule="nonzero" d="m134.55,138.39l23.24,0l0,22.12l-23.24,0l0,-22.12zm0,0" id="svg_3"/>
  </clipPath>
  <clipPath id="46f8703f09">
   <path clip-rule="nonzero" d="m146.15,138.39l2.74,8.45l8.86,0l-7.17,5.22l2.74,8.45l-7.17,-5.22l-7.17,5.22l2.74,-8.45l-7.17,-5.22l8.86,0l2.74,-8.45zm0,0" id="svg_4"/>
  </clipPath>
  <clipPath id="6531ea0173">
   <path clip-rule="nonzero" d="m223.18,138.39l23.24,0l0,22.12l-23.24,0l0,-22.12zm0,0" id="svg_5"/>
  </clipPath>
  <clipPath id="86df7101e4">
   <path clip-rule="nonzero" d="m234.79,138.39l2.73,8.45l8.87,0l-7.18,5.22l2.75,8.45l-7.17,-5.22l-7.18,5.22l2.74,-8.45l-7.17,-5.22l8.87,0l2.74,-8.45zm0,0" id="svg_6"/>
  </clipPath>
 </defs>
 <g class="layer">
  <title>Layer 1</title>
  <path d="m188.27,51.52c-20.97,-0.11 -42.1,3.82 -63.19,12.09l-5.94,2.33l0,117.85c0,7.64 3.41,13.71 7.78,20.22c4.35,6.51 10.12,13.12 16.62,19.24c12.99,12.23 27.96,23.34 44.25,23.34c16.3,0 31.26,-11.11 44.26,-23.34c6.5,-6.12 12.26,-12.73 16.62,-19.24c4.36,-6.51 7.78,-12.58 7.78,-20.22l0,-117.9l-6,-2.3c-20.42,-7.84 -41.22,-11.97 -62.18,-12.07zm-0.07,18.57c16.56,0.09 33.01,3.09 49.54,8.79l0,104.91c0,0.26 -1.27,4.82 -4.61,9.82c-3.34,4.99 -8.31,10.75 -13.9,16.02c-11.19,10.53 -25.88,18.26 -31.44,18.26c-5.56,0 -20.24,-7.72 -31.43,-18.26c-5.59,-5.27 -10.56,-11.03 -13.9,-16.02c-3.34,-5 -4.61,-9.56 -4.61,-9.82l0,-104.95c17,-5.96 33.73,-8.83 50.35,-8.75zm0,0" fill="#00025d" fill-rule="nonzero" id="svg_9" transform="translate(-56.1798, -69.1011) matrix(1, 0, 0, 1, 0, 0) translate(50, 73.5955) matrix(1, 0, 0, 1, 0, 0) translate(-32.0225, -4.49438) matrix(1, 0, 0, 1, 0, 0)"/>
  <path d="m188.26,54.61c-20.56,-0.1 -41.29,3.76 -62.04,11.9l-3.96,1.56l0,115.72c0,6.41 3.06,12.23 7.25,18.49c4.19,6.26 9.82,12.72 16.17,18.7c12.69,11.95 27.61,22.48 42.11,22.48c14.51,0 29.42,-10.53 42.12,-22.48c6.35,-5.98 11.98,-12.45 16.17,-18.7c4.19,-6.26 7.25,-12.08 7.25,-18.49l0,-115.76l-4.01,-1.53c-20.09,-7.72 -40.5,-11.79 -61.06,-11.89zm-0.05,12.38c17.63,0.09 35.13,3.43 52.65,9.7l0,107.1c0,1.49 -1.63,6.3 -5.14,11.55c-3.51,5.25 -8.61,11.15 -14.35,16.56c-11.49,10.81 -26.23,19.1 -33.58,19.1c-7.34,0 -22.08,-8.28 -33.57,-19.1c-5.74,-5.41 -10.84,-11.32 -14.35,-16.56c-3.51,-5.25 -5.14,-10.06 -5.14,-11.55l0,-107.12c18.03,-6.59 35.82,-9.77 53.48,-9.68zm0,0" fill="#ffffff" fill-rule="nonzero" id="svg_10" transform="translate(-56.1798, -69.1011) matrix(1, 0, 0, 1, 0, 0) translate(50, 73.5955) matrix(1, 0, 0, 1, 0, 0) translate(-32.0225, -4.49438) matrix(1, 0, 0, 1, 0, 0)"/>
  <path d="m188.25,57.7c-20.17,-0.09 -40.48,3.71 -60.89,11.72l-1.98,0.77l0,113.6c0,5.18 2.69,10.75 6.71,16.75c4.03,6.01 9.52,12.34 15.72,18.17c12.39,11.67 27.26,21.65 39.98,21.65c12.72,0 27.59,-9.98 39.98,-21.65c6.2,-5.83 11.69,-12.16 15.71,-18.17c4.03,-6 6.72,-11.57 6.72,-16.75l0,-113.62l-2,-0.76c-19.78,-7.61 -39.79,-11.61 -59.95,-11.71zm-0.03,6.2c18.69,0.09 37.25,3.74 55.75,10.61l0,109.28c0,2.72 -1.98,7.78 -5.66,13.28c-3.68,5.5 -8.92,11.55 -14.81,17.1c-11.79,11.1 -26.57,19.95 -35.71,19.95c-9.14,0 -23.92,-8.85 -35.71,-19.95c-5.9,-5.55 -11.12,-11.6 -14.81,-17.1c-3.68,-5.5 -5.66,-10.56 -5.66,-13.28l0,-109.29c19.06,-7.23 37.9,-10.7 56.61,-10.6zm0,0" fill="#00025d" fill-rule="nonzero" id="svg_11" transform="translate(-56.1798, -69.1011) matrix(1, 0, 0, 1, 0, 0) translate(50, 73.5955) matrix(1, 0, 0, 1, 0, 0) translate(-32.0225, -4.49438) matrix(1, 0, 0, 1, 0, 0)"/>
  <path d="m128.5,72.32l0,111.47c0,15.81 37.44,53.44 59.29,53.44c21.86,0 59.3,-37.63 59.3,-53.44l0,-111.47c-38.96,-14.96 -78.46,-15.75 -118.59,0zm0,0" fill="#5271ff" fill-rule="nonzero" id="svg_12" transform="translate(-56.1798, -69.1011) matrix(1, 0, 0, 1, 0, 0) translate(50, 73.5955) matrix(1, 0, 0, 1, -32.0225, -4.49438)"/>
  <g clip-path="url(#70d4bd9b77)" id="svg_13" transform="translate(-56.1798, -69.1011) matrix(1, 0, 0, 1, 0, 0) translate(50, 73.5955) matrix(1, 0, 0, 1, 0, 0) translate(-32.0225, -4.49438) matrix(1, 0, 0, 1, 0, 0)">
   <path d="m176.71,47.53c-4.51,-0.01 -7.84,2 -10.53,4.77c-1.96,2 -2.45,4.2 -2.34,5.8c0.12,1.61 0.8,2.75 0.8,2.75l-0.09,-0.18c0,0 0.74,1.77 1.54,3.72c0.79,1.95 1.67,4.19 1.84,4.71c0.23,0.74 0.91,2.88 1.83,5.15c0.93,2.26 1.97,4.61 3.46,6.04c1.24,1.19 2.71,1.57 4,1.63c0.01,0.22 0.08,0.44 0.2,0.63c0,0 1.57,2.51 2.2,7.41c-0.08,0.27 -0.51,1.63 -0.99,3.66c-0.53,2.22 -1.07,4.84 -0.96,6.91c0.14,2.68 -1.69,9.95 2.13,15.91c-0.75,0.33 -1.26,0.57 -2.64,1.17c-2.13,0.93 -4.6,1.96 -5.03,2.09c-0.02,0.01 -0.59,0.09 -1.26,0.07c-0.67,-0.01 -1.48,-0.06 -2.29,-0.11c-0.81,-0.05 -1.62,-0.1 -2.33,-0.1c-0.71,0 -1.2,-0.15 -2.07,0.37c-0.53,0.32 -0.82,0.7 -1.14,1.13c-0.33,0.43 -0.64,0.92 -0.91,1.43c-0.27,0.5 -0.5,1.01 -0.66,1.51c-0.17,0.49 -0.43,0.9 -0.09,1.77c0.21,0.58 0.52,1 0.78,1.3c0.02,0.24 0.02,0.36 0.08,0.79c0.11,0.73 0.21,1.56 0.86,2.4c0.65,0.84 1.5,1.13 2.29,1.32c0.4,0.1 0.79,0.15 1.19,0.15c0.4,-0.01 0.83,0.01 1.38,-0.44c-0.38,0.31 -0.28,0.16 -0.15,0.12c0.13,-0.03 0.35,-0.07 0.62,-0.13c0.51,-0.1 1.21,-0.23 1.95,-0.4c-0.61,0.8 -0.84,1.25 -1,1.55c-0.53,0.21 -2.21,0.92 -4.17,2.29c-2.29,1.61 -4.85,4.07 -4.73,7.45c0.1,3.15 1.79,6.99 3.4,10.23c1.19,2.42 2.15,4.06 2.67,4.95c-0.5,0.55 -1.67,1.81 -3.39,3.79c-1.02,1.18 -2.05,2.41 -2.85,3.45c-0.4,0.53 -0.75,1.01 -1.02,1.44c-0.27,0.43 -0.51,0.69 -0.6,1.39c-0.14,1.07 0.02,2.4 0.15,3.65c0.11,0.95 0.18,1.42 0.23,1.76c-0.24,0.34 -1.04,1.42 -2.16,3.15c-1.28,1.97 -2.66,4.14 -3.09,5.96c-0.58,2.42 -1.96,4.86 -7.18,17.09c-5.15,12.06 -8.77,21.74 -16.85,29.07c-0.28,-0.02 -0.35,-0.06 -0.75,-0.04c-0.4,0.02 -0.84,0.07 -1.33,0.26c-0.48,0.2 -1.07,0.61 -1.33,1.31c-0.02,0.06 -0.28,0.61 -0.65,1.25c-0.37,0.64 -0.85,1.44 -1.42,2.25c-1.13,1.64 -2.6,3.35 -3.77,4.11c-1.11,0.73 -2.82,1.02 -4.36,1.17c-0.77,0.07 -1.48,0.12 -2.13,0.22c-0.33,0.05 -0.64,0.11 -0.98,0.26c-0.34,0.15 -0.82,0.42 -1.05,1.02c-0.02,0.04 -1,1.75 -0.32,3.54c0.68,1.8 2.58,3.51 6.87,5.43c4.36,1.94 7.83,2 10.31,1.34c2.48,-0.65 3.9,-1.92 4.48,-2.59c0.38,-0.45 0.85,-0.98 1.35,-1.33c0.5,-0.35 0.92,-0.5 1.44,-0.39c1.12,0.22 3.16,0.44 5.22,0.42c1.03,-0.01 2.06,-0.08 2.99,-0.26c0.92,-0.19 1.81,-0.43 2.5,-1.25c0.63,-0.76 0.88,-1.62 1.21,-2.73c0.33,-1.12 0.62,-2.42 0.83,-3.72c0.22,-1.3 0.36,-2.58 0.38,-3.67c0.02,-0.55 -0.01,-1.05 -0.07,-1.51c-0.08,-0.47 -0.14,-0.93 -0.59,-1.44c-0.46,-0.52 -0.88,-0.87 -1.27,-1.19c0.44,-0.73 1.66,-2.77 3.85,-6.1c2.54,-3.85 5.73,-8.35 8.07,-10.74c2.81,-2.89 4.53,-7.54 5.9,-11.97c1.37,-4.44 2.39,-8.78 3.14,-10.43c0.62,-1.37 3.13,-3.47 5.5,-4.97c1.19,-0.74 2.32,-1.37 3.15,-1.81c0.27,0.8 0.49,1.44 0.95,3.08c0.34,1.2 0.66,2.49 0.87,3.58c0.21,1.09 0.26,2.07 0.22,2.29c-0.13,0.89 -0.59,1.65 -1.15,2.47c-0.55,0.81 -1.29,1.66 -1.4,2.97c-0.05,0.58 -0.43,3.28 -1.04,5.82c-0.3,1.27 -0.66,2.51 -1.03,3.46c-0.38,0.95 -0.91,1.56 -0.87,1.54c-1.11,0.69 -2.3,1.6 -3.15,2.83c-0.87,1.24 -1.36,2.9 -0.86,4.65c0.27,0.94 1.04,1.4 1.73,1.67c0.7,0.26 1.48,0.4 2.36,0.48c1.75,0.17 3.9,0.1 6.09,-0.1c2.19,-0.21 4.4,-0.54 6.22,-0.94c0.91,-0.2 1.72,-0.41 2.4,-0.64c0.68,-0.23 1.22,-0.41 1.74,-0.87c1.57,-1.33 1.73,-3.34 2.09,-5.02c0.17,-0.84 0.35,-1.61 0.56,-2.14c0.21,-0.53 0.42,-0.71 0.48,-0.74c1.12,-0.54 2.42,-1.29 3.56,-2.22c1.14,-0.93 2.2,-2 2.48,-3.51c0.11,-0.58 0.04,-1.02 -0.06,-1.56c-0.09,-0.55 -0.24,-1.17 -0.42,-1.84c-0.37,-1.35 -0.89,-2.93 -1.47,-4.49c-0.57,-1.55 -1.19,-3.08 -1.74,-4.3c-0.28,-0.61 -0.54,-1.14 -0.78,-1.58c-0.24,-0.45 -0.38,-0.75 -0.81,-1.14c-0.77,-0.71 -1.44,-1.16 -1.93,-1.45l-1.83,-11.5l0.94,-0.6c0.22,0.04 0.24,0.07 0.59,0.09c0.77,0.04 1.86,-0.01 3.21,-0.32c2.63,-0.62 6.27,-2.3 10.57,-6.2c1.19,-0.14 10.56,-1.45 14.39,-9.31c2.06,-4.21 2.32,-10.23 2.17,-15.56c-0.15,-5.32 -0.79,-10.08 -0.87,-10.96c-0.08,-0.97 -0.01,-1.7 -0.01,-2.53c0,-0.83 -0.1,-1.78 -0.53,-2.82c-0.75,-1.76 -2.51,-6.02 -1.99,-8.97c0.37,-2.11 0.6,-7.21 0.4,-13.42c-0.19,-5.63 -0.79,-12 -2.11,-17.47c1.07,0.03 2.28,0.1 4.91,0.09c3.55,-0.02 7.44,-0.09 9.75,-0.82c1.46,-0.46 3.46,-0.31 5.53,0.03c2.07,0.34 4.16,0.86 6.1,0.75c1.88,-0.11 5.1,-0.77 8.23,-1.63c1.57,-0.43 3.09,-0.91 4.37,-1.41c1.27,-0.49 2.26,-0.9 3.03,-1.67c0.58,-0.58 1.54,-0.97 2.49,-1.36c0.47,-0.2 0.93,-0.36 1.42,-0.78c0.24,-0.2 0.51,-0.51 0.65,-0.93c0.15,-0.42 0.11,-0.92 -0.02,-1.29c-0.21,-0.59 -0.56,-1.53 -1.47,-2.12c0.56,-0.51 0.97,-1.09 1.14,-1.74c0.23,-0.85 0,-1.77 -0.56,-2.41c0.42,-0.23 0.79,-0.53 1.08,-0.9c0.32,-0.41 0.55,-0.94 0.55,-1.53c-0.01,-0.6 -0.29,-1.2 -0.7,-1.61c-1.14,-1.15 -2.86,-1.58 -4.52,-1.18c0.66,-0.88 1.35,-1.79 1.84,-2.52c0.34,-0.51 0.62,-0.95 0.83,-1.37c0.1,-0.21 0.19,-0.4 0.26,-0.68c0.03,-0.14 0.07,-0.31 0.04,-0.56c-0.03,-0.27 -0.16,-0.67 -0.5,-0.96c-0.15,-0.13 -1.33,-1.3 -2.97,-1.13c-1.64,0.18 -3.32,1.4 -5.45,4.33c-2.34,3.22 -4.55,5.38 -6.23,6.88c-0.01,-0.64 -0.03,-1.31 -0.14,-1.91c-0.06,-0.34 -0.14,-0.67 -0.3,-1.02c-0.17,-0.35 -0.49,-0.85 -1.17,-1.03c-1.24,-0.34 -2.26,0.25 -3.08,1.07c-0.82,0.82 -1.45,2.04 -1.57,3.53c-0.07,0.92 -0.03,1.31 -0.01,1.74c-0.29,-0.09 -0.6,-0.18 -1.2,-0.47c-0.81,-0.4 -1.81,-0.94 -3.1,-0.78c-1.65,0.19 -5.86,0.87 -10.19,0.27c-3.29,-0.45 -5.19,-0.25 -6.34,-0.06c-0.11,-0.3 -0.12,-0.36 -0.28,-0.73c-0.19,-0.46 -0.4,-0.93 -0.62,-1.34c-0.11,-0.21 -0.22,-0.4 -0.36,-0.6c-0.14,-0.19 -0.24,-0.41 -0.72,-0.65c-0.39,-0.19 -0.41,-0.14 -0.57,-0.18c-0.16,-0.03 -0.35,-0.06 -0.58,-0.1c-0.45,-0.07 -1.04,-0.15 -1.75,-0.21c-1.41,-0.14 -3.27,-0.26 -5.27,-0.24c-4,0.05 -8.53,0.46 -11.18,3.04c-2.13,2.08 -3.76,3.94 -4.9,4.55c-0.58,0.3 -0.91,0.35 -1.4,0.21c-0.32,-0.09 -0.77,-0.41 -1.29,-0.85c1.72,-2.35 2.36,-5.42 2.51,-8.38c0.18,-3.41 -0.31,-6.74 -0.88,-8.95c-0.57,-2.2 -1.47,-4.15 -3.16,-5.72c-1.7,-1.56 -4.09,-2.71 -7.58,-3.69c-1.76,-0.49 -3.4,-0.72 -4.89,-0.72zm-0.05,2.6c1.25,0.03 2.64,0.25 4.24,0.7c3.26,0.91 5.23,1.92 6.48,3.08c1.25,1.15 1.89,2.48 2.39,4.42c0.51,1.93 0.96,5.08 0.8,8.15c-0.16,3.06 -0.96,5.98 -2.62,7.68c-0.49,0.5 -0.51,1.3 -0.05,1.82c1.11,1.25 2.19,2.08 3.37,2.43c1.19,0.34 2.41,0.1 3.41,-0.43c1.98,-1.05 3.5,-3.02 5.51,-4.99c1.49,-1.46 5.59,-2.23 9.33,-2.27c1.87,-0.02 3.66,0.08 4.99,0.22c0.66,0.06 1.22,0.13 1.6,0.19c0.09,0.02 0.14,0.03 0.21,0.04c0.03,0.04 0.04,0.05 0.06,0.1c0.15,0.28 0.34,0.7 0.51,1.11c0.34,0.83 0.63,1.63 0.63,1.63c0.23,0.67 0.95,1.04 1.64,0.84c0,0 2.06,-0.65 6.45,-0.05c4.84,0.66 9.46,-0.1 10.87,-0.27c0.24,-0.03 0.86,0.16 1.62,0.53c0.76,0.37 1.6,0.92 2.81,0.92c0.47,0 1.03,-0.04 1.54,-0.48c0.52,-0.44 0.66,-1.07 0.68,-1.46c0.05,-0.8 -0.07,-1.41 0.01,-2.45c0.07,-0.84 0.43,-1.47 0.8,-1.84c0.02,-0.03 0.03,-0.02 0.05,-0.04c0.05,0.39 0.09,0.81 0.09,1.31c0.01,1.3 -0.1,2.61 -0.1,2.61c-0.05,0.73 0.49,1.38 1.23,1.44c0.32,0.03 0.65,-0.06 0.91,-0.26c0,0 4.83,-3.62 9.01,-9.37c1.92,-2.65 3.16,-3.19 3.58,-3.24c0.08,-0.01 0.1,0.02 0.15,0.02c-0.11,0.19 -0.17,0.3 -0.32,0.54c-0.62,0.93 -1.54,2.17 -2.48,3.4c-1.88,2.45 -3.85,4.84 -3.85,4.84c-0.47,0.57 -0.39,1.41 0.18,1.88c0.47,0.39 1.15,0.41 1.64,0.04c0,0 1.14,-0.84 2.42,-1.72c0.64,-0.45 1.31,-0.9 1.89,-1.25c0.57,-0.34 1.13,-0.6 1.11,-0.59c0.64,-0.19 1.28,0 1.75,0.28c-0.18,0.1 -0.43,0.21 -0.78,0.26c-1.5,0.23 -2.69,1.16 -3.77,1.98c-1.07,0.83 -1.9,1.61 -1.9,1.61c-0.54,0.51 -0.56,1.35 -0.05,1.89c0.44,0.47 1.16,0.55 1.71,0.19c1.26,-0.84 2.38,-1.36 3.18,-1.61c0.36,-0.1 0.62,-0.11 0.8,-0.11c-0.1,0.18 -0.31,0.45 -0.93,0.78c-1.17,0.6 -1.9,1.23 -2.35,1.76c-0.23,0.26 -0.38,0.5 -0.48,0.7c-0.11,0.2 -0.18,0.44 -0.18,0.44c-0.2,0.71 0.22,1.45 0.93,1.64c0.35,0.1 0.71,0.05 1.01,-0.12c1.51,-0.86 2.05,-0.73 2.09,-0.72c0.01,0 0.11,0.23 0.15,0.3c-0.12,0.07 -0.12,0.07 -0.3,0.14c-0.85,0.36 -2.23,0.82 -3.36,1.95c-0.09,0.09 -0.96,0.63 -2.11,1.07c-1.15,0.45 -2.6,0.91 -4.1,1.32c-3.01,0.83 -6.31,1.47 -7.67,1.54c-1.3,0.08 -3.35,-0.36 -5.53,-0.71c-2.18,-0.36 -4.54,-0.65 -6.77,0.06c-1.38,0.43 -5.46,0.67 -8.95,0.68c-3.48,0.02 -6.51,-0.12 -6.51,-0.12c-0.74,-0.03 -1.37,0.54 -1.4,1.28c0,0.14 0.01,0.28 0.05,0.42c1.52,5.44 2.2,12.48 2.41,18.56c0.2,6.09 -0.1,11.38 -0.36,12.88c-0.75,4.25 1.45,8.81 2.15,10.47c0.28,0.67 0.32,1.11 0.32,1.78c0,0.68 -0.07,1.57 0.03,2.76c0.1,1.28 0.72,5.66 0.86,10.81c0.14,5.16 -0.27,10.97 -1.9,14.32c-3.29,6.74 -12.71,7.89 -12.71,7.89c-0.28,0.04 -0.56,0.16 -0.77,0.35c-4.18,3.88 -7.49,5.32 -9.7,5.83c-1.1,0.26 -1.92,0.29 -2.45,0.26c-0.53,-0.03 -0.66,-0.08 -0.66,-0.08c-0.39,-0.13 -0.8,-0.07 -1.13,0.15l-2.07,1.35c-0.44,0.29 -0.67,0.81 -0.59,1.33l2.07,12.96c0.07,0.41 0.32,0.77 0.69,0.97c0,0 1.05,0.57 1.98,1.43c-0.16,-0.15 0.07,0.1 0.26,0.45c0.19,0.34 0.43,0.83 0.69,1.4c0.51,1.14 1.11,2.62 1.67,4.12c0.55,1.5 1.06,3.04 1.4,4.27c0.17,0.62 0.29,1.17 0.37,1.58c0.06,0.41 0.04,0.72 0.06,0.61c-0.07,0.39 -0.64,1.2 -1.55,1.94c-0.9,0.73 -2.07,1.42 -3.02,1.88c-0.98,0.46 -1.48,1.33 -1.81,2.17c-0.33,0.83 -0.52,1.71 -0.7,2.57c-0.37,1.72 -0.88,3.27 -1.21,3.55c0.06,-0.05 -0.32,0.18 -0.86,0.36c-0.54,0.19 -1.28,0.38 -2.12,0.57c-1.69,0.37 -3.81,0.69 -5.9,0.89c-2.07,0.18 -4.12,0.24 -5.59,0.1c-0.74,-0.07 -1.33,-0.2 -1.64,-0.32c-0.11,-0.04 -0.11,-0.05 -0.14,-0.06c-0.2,-0.85 -0.02,-1.51 0.49,-2.23c0.54,-0.77 1.45,-1.52 2.38,-2.09c1.05,-0.66 1.47,-1.66 1.93,-2.81c0.46,-1.15 0.84,-2.5 1.16,-3.84c0.63,-2.69 1.02,-5.26 1.09,-6.21c0.02,-0.21 0.36,-0.83 0.95,-1.7c0.59,-0.87 1.34,-2.02 1.58,-3.55c0.16,-0.98 -0.01,-2 -0.24,-3.21c-0.23,-1.21 -0.57,-2.54 -0.92,-3.79c-0.69,-2.52 -1.43,-4.7 -1.43,-4.7c-0.24,-0.7 -1,-1.08 -1.7,-0.84c-0.05,0.02 -0.09,0.04 -0.14,0.06c0,0 -2.29,1.08 -4.82,2.67c-2.53,1.59 -5.36,3.56 -6.52,6.13c-1.04,2.3 -1.92,6.42 -3.26,10.73c-1.33,4.32 -3.11,8.7 -5.26,10.9c-2.64,2.7 -5.8,7.24 -8.39,11.14c-2.57,3.91 -4.53,7.18 -4.53,7.18c-0.37,0.62 -0.18,1.43 0.44,1.82c0,0 0.8,0.52 1.64,1.44c0.01,0.03 0.04,0.07 0.05,0.17c0.04,0.23 0.06,0.6 0.05,1.05c-0.02,0.9 -0.15,2.09 -0.35,3.29c-0.2,1.2 -0.47,2.42 -0.76,3.4c-0.28,0.97 -0.69,1.76 -0.7,1.77c0.05,-0.06 -0.32,0.21 -0.98,0.34c-0.65,0.14 -1.55,0.21 -2.47,0.22c-1.85,0.01 -3.88,-0.22 -4.67,-0.38c-1.38,-0.27 -2.63,0.22 -3.5,0.82c-0.87,0.61 -1.48,1.35 -1.85,1.79c-0.19,0.22 -1.26,1.25 -3.13,1.74c-1.88,0.5 -4.64,0.55 -8.55,-1.2c-3.99,-1.78 -5.19,-3.24 -5.45,-3.93c-0.2,-0.52 -0.08,-0.77 0.12,-1.2c0.06,-0.01 0.06,-0.02 0.14,-0.03c0.43,-0.07 1.15,-0.12 1.97,-0.2c1.64,-0.16 3.76,-0.41 5.57,-1.59c1.76,-1.15 3.27,-3.05 4.5,-4.83c0.61,-0.88 1.14,-1.74 1.55,-2.44c0.34,-0.61 0.54,-1.02 0.71,-1.42c0.08,-0.02 0.22,-0.05 0.42,-0.06c0.44,-0.03 0.9,0.04 0.9,0.04c0.4,0.07 0.8,-0.04 1.1,-0.31c8.95,-7.9 12.71,-18.2 17.91,-30.38c5.21,-12.2 6.63,-14.6 7.32,-17.53c0.21,-0.84 1.5,-3.22 2.74,-5.12c1.23,-1.9 2.39,-3.48 2.39,-3.48c0.21,-0.28 0.29,-0.64 0.24,-0.99c0,0 -0.15,-1.01 -0.28,-2.2c-0.13,-1.18 -0.21,-2.64 -0.16,-3.01c-0.05,0.34 0,0.01 0.2,-0.3c0.2,-0.32 0.51,-0.75 0.89,-1.24c0.74,-0.97 1.75,-2.18 2.75,-3.33c2.01,-2.32 4,-4.47 4,-4.47c0.41,-0.43 0.47,-1.09 0.16,-1.61c0,0 -1.52,-2.47 -3.07,-5.59c-1.54,-3.12 -3.05,-6.97 -3.12,-9.14c-0.07,-1.92 1.61,-3.78 3.59,-5.16c1.98,-1.39 4.01,-2.18 4.01,-2.18c0.3,-0.12 0.56,-0.35 0.71,-0.64c0,0 0.4,-0.77 1.05,-1.61c0.65,-0.84 1.56,-1.61 2.12,-1.75c0.66,-0.16 1.8,0.05 2.73,0.38c0.93,0.34 1.59,0.73 1.59,0.73c0.21,0.12 0.44,0.19 0.68,0.19l4.59,0c0.72,0 1.31,-0.58 1.33,-1.3l0.18,-5.94c0.02,-0.63 -0.41,-1.2 -1.03,-1.34c0,0 -0.75,-0.18 -1.67,-0.12c-0.92,0.06 -2.24,0.39 -3.01,1.61c0.14,-0.22 -0.22,0.16 -0.85,0.38c-0.64,0.23 -1.5,0.43 -2.34,0.59c-1.67,0.32 -3.27,0.48 -3.27,0.48c-0.42,0.04 -0.79,0.27 -1.01,0.62c-0.15,0.25 -1.39,0.92 -2.73,1.24c-0.67,0.17 -1.35,0.29 -1.9,0.4c-0.28,0.05 -0.53,0.1 -0.76,0.16c-0.23,0.06 -0.38,-0.01 -0.87,0.38c0.32,-0.26 0.34,-0.15 0.24,-0.15c-0.1,0 -0.31,-0.01 -0.51,-0.07c-0.42,-0.1 -0.84,-0.39 -0.81,-0.37c0.02,0.03 -0.25,-0.61 -0.33,-1.17c-0.09,-0.56 -0.11,-1.03 -0.11,-1.03c-0.02,-0.38 -0.19,-0.73 -0.48,-0.97c0,0 -0.17,-0.24 -0.3,-0.44c0,-0.06 -0.01,-0.09 0.01,-0.17c0.1,-0.28 0.28,-0.68 0.49,-1.08c0.21,-0.4 0.46,-0.8 0.69,-1.1c0.17,-0.22 0.25,-0.3 0.3,-0.34c0.1,0 0.41,-0.09 0.77,-0.09c0.58,0 1.36,0.05 2.17,0.1c0.81,0.05 1.65,0.11 2.41,0.12c0.76,0.01 1.39,0.03 2.1,-0.19c1,-0.31 3.16,-1.26 5.3,-2.19c2.15,-0.94 4.11,-1.82 4.11,-1.82c0.67,-0.3 0.97,-1.09 0.67,-1.77c-0.05,-0.11 -0.12,-0.22 -0.19,-0.31c-4.18,-4.98 -2.27,-11.64 -2.48,-15.77c-0.07,-1.44 0.38,-4.03 0.89,-6.15c0.51,-2.13 1.03,-3.82 1.03,-3.82c0.06,-0.18 0.08,-0.37 0.06,-0.56c-0.53,-4.39 -1.65,-6.76 -2.19,-7.78l0.87,-0.97c0.49,-0.56 0.44,-1.4 -0.11,-1.89c-0.36,-0.32 -0.87,-0.42 -1.33,-0.26c0,0 -2.93,0.88 -4.48,-0.6c-0.76,-0.74 -1.96,-2.98 -2.84,-5.12c-0.87,-2.15 -1.54,-4.23 -1.76,-4.94c-0.29,-0.92 -1.12,-2.96 -1.92,-4.92c-0.8,-1.96 -1.54,-3.75 -1.54,-3.75c-0.02,-0.05 -0.06,-0.12 -0.09,-0.17c0,0 -0.35,-0.57 -0.42,-1.55c-0.07,-0.98 0.12,-2.25 1.58,-3.75c2.43,-2.52 4.84,-4.15 8.57,-4.06zm6.37,75.91l-0.1,3.33l-3.02,0c-0.25,-0.14 -0.69,-0.41 -1.62,-0.75c-0.17,-0.06 -0.4,-0.1 -0.58,-0.16c0.8,-0.16 1.62,-0.35 2.36,-0.6c0.84,-0.3 1.64,-0.54 2.23,-1.48c0.11,-0.19 0.37,-0.29 0.73,-0.34zm0,0" fill="#ffffff" fill-rule="nonzero" id="svg_14"/>
  </g>
  <path d="m188.91,75.09c4.05,4.59 6.21,1 10.34,-3.05c4.14,-4.05 17.28,-2.34 17.82,-2.08c0.54,0.27 1.72,3.6 1.72,3.6c0,0 2.42,-0.72 7.01,-0.08c4.59,0.63 9,-0.09 10.53,-0.27c1.53,-0.18 3.24,1.43 4.59,1.43c1.35,0 0.72,-0.8 0.9,-3.14c0.18,-2.34 1.98,-3.69 2.97,-3.42c0.99,0.26 0.54,5.67 0.54,5.67c0,0 4.68,-3.51 8.73,-9.09c4.05,-5.58 5.85,-3.51 6.48,-2.97c0.62,0.54 -7.3,10.17 -7.3,10.17c0,0 4.59,-3.43 5.85,-3.78c1.26,-0.37 2.61,0 3.42,0.81c0.81,0.81 -0.09,2.07 -1.89,2.34c-1.8,0.26 -4.94,3.23 -4.94,3.23c2.7,-1.79 4.85,-2.33 5.66,-1.79c0.82,0.54 0.81,2.07 -1.25,3.14c-2.08,1.08 -2.34,2.08 -2.34,2.08c3.32,-1.89 3.96,-0.46 4.41,0.81c0.45,1.25 -2.52,1.25 -4.23,2.96c-1.71,1.71 -11.52,4.14 -14.76,4.32c-3.24,0.18 -8.28,-1.89 -11.96,-0.72c-3.69,1.17 -15.93,0.63 -15.93,0.63c3.15,11.25 2.7,28.43 2.08,32.04c-0.64,3.59 1.34,8 2.07,9.71c0.71,1.71 0.26,2.79 0.45,4.95c0.18,2.16 2.51,18.27 -1.17,25.82c-3.69,7.56 -13.77,8.64 -13.77,8.64c-8.64,8.01 -14.13,6.3 -14.13,6.3l-2.07,1.35l2.07,12.96c0,0 1.17,0.63 2.25,1.62c1.08,0.99 5.22,11.78 4.86,13.67c-0.36,1.89 -3.24,3.78 -5.31,4.77c-2.07,0.99 -1.53,6.48 -3.42,8.1c-1.89,1.62 -17.63,3.72 -18.39,1.04c-0.77,-2.67 1.4,-4.7 3.43,-5.98c2.04,-1.27 3.44,-10.31 3.56,-11.84c0.13,-1.52 2.17,-2.92 2.55,-5.34c0.38,-2.42 -2.55,-11.07 -2.55,-11.07c0,0 -8.9,4.2 -10.68,8.14c-1.79,3.94 -3.82,16.93 -8.79,22.02c-4.97,5.1 -12.74,18.07 -12.74,18.07c0,0 1.02,0.64 2.04,1.78c1.01,1.15 -0.51,9.8 -1.78,11.33c-1.28,1.53 -7.52,1.02 -9.42,0.64c-1.91,-0.38 -3.31,1.27 -4.07,2.16c-0.77,0.89 -4.97,4.58 -13.24,0.89c-8.27,-3.69 -6.2,-6.36 -5.85,-7.25c0.38,-0.95 5.09,-0.13 8.02,-2.04c2.93,-1.91 5.98,-7.25 6.36,-8.27c0.38,-1.02 2.68,-0.64 2.68,-0.64c8.64,-7.63 12.34,-17.68 17.56,-29.9c5.22,-12.22 6.61,-14.63 7.25,-17.31c0.64,-2.67 5.35,-9.08 5.35,-9.08c0,0 -0.63,-4.13 -0.45,-5.58c0.17,-1.43 8.18,-10.07 8.18,-10.07c0,0 -6.21,-10.08 -6.39,-15.39c-0.18,-5.31 8.46,-8.64 8.46,-8.64c0,0 1.8,-3.51 4.05,-4.05c2.25,-0.54 5.31,1.26 5.31,1.26l4.59,0l0.18,-5.94c0,0 -2.34,-0.54 -3.25,0.9c-0.89,1.44 -7.46,2.08 -7.46,2.08c-1.17,1.89 -6.12,2.16 -6.57,2.51c-0.45,0.37 -2.34,0 -2.97,-0.8c-0.63,-0.81 -0.72,-2.97 -0.72,-2.97c0,0 -0.54,-0.45 -0.81,-1.17c-0.27,-0.72 1.35,-3.69 2.25,-4.23c0.91,-0.54 6.21,0.36 7.65,-0.09c1.44,-0.45 9.27,-3.96 9.27,-3.96c-4.68,-5.58 -2.61,-13.05 -2.79,-16.55c-0.18,-3.52 1.98,-10.44 1.98,-10.44c-0.63,-5.31 -2.43,-8.19 -2.43,-8.19l1.44,-1.62c0,0 -3.6,1.26 -5.85,-0.9c-2.25,-2.16 -4.5,-9.18 -4.95,-10.62c-0.45,-1.44 -3.42,-8.55 -3.42,-8.55c0,0 -2.07,-3.42 1.35,-6.93c3.42,-3.51 7.38,-5.58 14.12,-3.69c6.75,1.89 8.73,4.32 9.81,8.46c1.08,4.14 1.89,12.96 -2.15,17.09zm0,0" fill="#00025d" fill-rule="nonzero" id="svg_15" transform="translate(-56.1798, -69.1011) matrix(1, 0, 0, 1, 0, 0) translate(50, 73.5955) matrix(1, 0, 0, 1, 0, 0) translate(-32.0225, -4.49438) matrix(1, 0, 0, 1, 0, 0)"/>
  <path d="m219.36,82.88c0,0 -0.63,-5.47 -2.86,-11.77c0,0 -11.39,-0.45 -14.7,1.15c-3.31,1.59 -4.77,4.51 -4.77,4.51c0,0 2.67,-2.61 6.24,-3.63c3.56,-1.01 11.95,-0.53 11.95,-0.53c0,0 3,5.62 4.14,10.27zm0,0" fill="#5271ff" fill-rule="nonzero" id="svg_16" transform="translate(-56.1798, -69.1011) matrix(1, 0, 0, 1, 0, 0) translate(50, 73.5955) matrix(1, 0, 0, 1, 0, 0) translate(-32.0225, -4.49438) matrix(1, 0, 0, 1, 0, 0)"/>
  <path d="m200.24,132.31c0,0 -18.48,-1.43 -33.78,5.59c0,0 11.25,7.47 19.71,23.57c0,0 -5.58,-13.67 -9.99,-20.24c0,0 3.42,0.45 8.1,5.57l-5.04,-7.73l13.67,-0.18l-10.88,-2.7c0,0 3.67,-1.9 18.21,-3.88zm0,0" fill="#5271ff" fill-rule="nonzero" id="svg_17" transform="translate(-56.1798, -69.1011) matrix(1, 0, 0, 1, 0, 0) translate(50, 73.5955) matrix(1, 0, 0, 1, 0, 0) translate(-32.0225, -4.49438) matrix(1, 0, 0, 1, 0, 0)"/>
  <path d="m129.08,231.51c5.98,2.79 14.63,0.38 14.63,0.38c0,0 2.42,1.53 2.55,2.16c0.13,0.64 -0.45,8.15 -1.78,8.59c-1.34,0.45 -8.46,-0.06 -8.46,-0.06l0.69,-1.46c-4.89,0.19 -8.07,6.61 -11.03,6.49c-2.96,-0.13 -7.32,-2.61 -7.32,-2.61c0,0 -0.83,-1.43 -2.2,-1.62c-1.36,-0.19 -0.88,0.45 -0.88,0.45c0,0 -0.61,-0.26 -1.15,-0.86c-0.54,-0.61 0.07,-1.94 0.07,-1.94c0,0 8.01,2.31 14.88,-9.52zm0,0" fill="#5271ff" fill-rule="nonzero" id="svg_18" transform="translate(-56.1798, -69.1011) matrix(1, 0, 0, 1, 0, 0) translate(50, 73.5955) matrix(1, 0, 0, 1, 0, 0) translate(-32.0225, -4.49438) matrix(1, 0, 0, 1, 0, 0)"/>
  <path d="m180.77,197.46c0,0 -1.44,1.17 -1.44,2.79c0,1.63 -2.38,10.08 -3.24,11.25c-0.86,1.17 -3.24,1.62 -3.69,3.02c-0.45,1.39 -0.63,1.88 -0.04,2.11c0.58,0.23 13.71,-0.95 15.25,-2.02c1.53,-1.08 1.72,-7.34 3,-8.42c1.27,-1.08 4.96,-2.61 5.21,-4.08c0.26,-1.46 -2.67,-10.17 -3.69,-10.94c-1.02,-0.76 -2.8,-0.63 -2.8,-0.63c0,0 -0.44,5.72 -2.35,7.44c-1.91,1.72 -6.11,11.84 -6.68,12.15c-0.57,0.32 0.47,-12.67 0.47,-12.67zm0,0" fill="#5271ff" fill-rule="nonzero" id="svg_19" transform="translate(-56.1798, -69.1011) matrix(1, 0, 0, 1, 0, 0) translate(50, 73.5955) matrix(1, 0, 0, 1, 0, 0) translate(-32.0225, -4.49438) matrix(1, 0, 0, 1, 0, 0)"/>
  <path d="m204.56,165.16c20.01,-2.06 13.34,-29.98 13.34,-29.98c0,0 2.89,25.85 -13.34,29.98zm0,0" fill="#5271ff" fill-rule="nonzero" id="svg_20" transform="translate(-56.1798, -69.1011) matrix(1, 0, 0, 1, 0, 0) translate(50, 73.5955) matrix(1, 0, 0, 1, 0, 0) translate(-32.0225, -4.49438) matrix(1, 0, 0, 1, 0, 0)"/>
  <path d="m146.93,206.55c0,0 9.18,-19.61 10.89,-21.05c1.72,-1.44 9.81,-8.55 9.81,-8.55l6.12,1.17c0,0 -7.2,-3.51 -8.28,-4.86c-1.08,-1.35 -0.9,-5.22 -0.72,-6.12c0.18,-0.9 5.13,-7.82 5.13,-7.82c0,0 -7.65,7.2 -7.74,8.55c-0.09,1.35 0.55,5.85 0.55,5.85c0,0 -5.85,6.83 -6.21,8.99c-0.37,2.16 -9.55,23.84 -9.55,23.84zm0,0" fill="#5271ff" fill-rule="nonzero" id="svg_21" transform="translate(-56.1798, -69.1011) matrix(1, 0, 0, 1, 0, 0) translate(50, 73.5955) matrix(1, 0, 0, 1, 0, 0) translate(-32.0225, -4.49438) matrix(1, 0, 0, 1, 0, 0)"/>
  <path d="m147.58,84.93c-8.97,0 -16.28,7.3 -16.28,16.27c0,8.97 7.31,16.27 16.28,16.27c8.97,0 16.28,-7.3 16.28,-16.27c0,-8.97 -7.31,-16.27 -16.28,-16.27zm0,2.67c7.53,0 13.6,6.07 13.6,13.6c0,7.53 -6.07,13.6 -13.6,13.6c-7.53,0 -13.6,-6.07 -13.6,-13.6c0,-7.52 6.07,-13.6 13.6,-13.6zm0,0" fill="#ffffff" fill-rule="nonzero" id="svg_22" transform="translate(-56.1798, -69.1011) matrix(1, 0, 0, 1, 0, 0) translate(50, 73.5955) matrix(1, 0, 0, 1, 0, 0) translate(-32.0225, -4.49438) matrix(1, 0, 0, 1, 0, 0)"/>
  <path d="m162.52,101.2c0,8.25 -6.69,14.94 -14.94,14.94c-8.25,0 -14.94,-6.69 -14.94,-14.94c0,-8.25 6.69,-14.93 14.94,-14.93c8.25,0 14.94,6.68 14.94,14.93zm0,0" fill="#00025d" fill-rule="nonzero" id="svg_23" transform="translate(-56.1798, -69.1011) matrix(1, 0, 0, 1, 0, 0) translate(50, 73.5955) matrix(1, 0, 0, 1, 0, 0) translate(-32.0225, -4.49438) matrix(1, 0, 0, 1, 0, 0)"/>
  <path d="m157.37,92.57c1.19,2.02 1.82,4.31 1.82,6.66c0,7.2 -5.84,13.04 -13.04,13.04c-3.75,0 -7.31,-1.61 -9.79,-4.42c2.35,3.97 6.62,6.4 11.23,6.4c7.2,0 13.04,-5.84 13.04,-13.05c0,-3.18 -1.16,-6.24 -3.26,-8.63zm0,0" fill="#5271ff" fill-rule="nonzero" id="svg_24" transform="translate(-56.1798, -69.1011) matrix(1, 0, 0, 1, 0, 0) translate(50, 73.5955) matrix(1, 0, 0, 1, 0, 0) translate(-32.0225, -4.49438) matrix(1, 0, 0, 1, 0, 0)"/>
  <g clip-path="url(#ef54f0c78a)" id="svg_105" transform="translate(-56.1798, -69.1011) matrix(1, 0, 0, 1, 0, 0) translate(50, 73.5955) matrix(1, 0, 0, 1, 0, 0) translate(-32.0225, -4.49438) matrix(1, 0, 0, 1, 0, 0)">
   <g clip-path="url(#46f8703f09)" id="svg_106">
    <path d="m134.55,138.39l23.24,0l0,22.12l-23.24,0l0,-22.12zm0,0" fill="#00025d" fill-rule="nonzero" id="svg_107"/>
   </g>
  </g>
  <g clip-path="url(#6531ea0173)" id="svg_108">
   <g clip-path="url(#86df7101e4)" id="svg_109">
    <path d="m223.18,138.39l23.24,0l0,22.12l-23.24,0l0,-22.12zm0,0" fill="#00025d" fill-rule="nonzero" id="svg_110"/>
   </g>
  </g>
 </g>
</svg>