<svg xmlns="http://www.w3.org/2000/svg" xmlns:xlink="http://www.w3.org/1999/xlink" width="1080" zoomAndPan="magnify" viewBox="0 0 810 809.999993" height="1080" preserveAspectRatio="xMidYMid meet" version="1.0"><defs><clipPath id="d48206145d"><path d="M 125 32 L 680.273438 32 L 680.273438 771 L 125 771 Z M 125 32 " clip-rule="nonzero"/></clipPath><clipPath id="7921b71b1c"><path d="M 209.910156 362.835938 L 294.445312 362.835938 L 294.445312 443.296875 L 209.910156 443.296875 Z M 209.910156 362.835938 " clip-rule="nonzero"/></clipPath><clipPath id="3b75a86733"><path d="M 252.105469 362.835938 L 262.070312 393.574219 L 294.300781 393.574219 L 268.21875 412.5625 L 278.183594 443.296875 L 252.105469 424.308594 L 226.023438 443.296875 L 235.988281 412.5625 L 209.910156 393.574219 L 242.136719 393.574219 Z M 252.105469 362.835938 " clip-rule="nonzero"/></clipPath><clipPath id="a50d2463a7"><path d="M 671.261719 362.835938 L 755.796875 362.835938 L 755.796875 443.296875 L 671.261719 443.296875 Z M 671.261719 362.835938 " clip-rule="nonzero"/></clipPath><clipPath id="e691667826"><path d="M 713.492188 362.835938 L 723.421875 393.574219 L 755.6875 393.574219 L 729.570312 412.5625 L 739.574219 443.296875 L 713.492188 424.308594 L 687.375 443.296875 L 697.339844 412.5625 L 671.261719 393.574219 L 703.523438 393.574219 Z M 713.492188 362.835938 " clip-rule="nonzero"/></clipPath></defs><path fill="#00025d" d="M 405.316406 46.847656 C 329.035156 46.445312 252.175781 60.742188 175.460938 90.824219 L 153.855469 99.300781 L 153.855469 527.980469 C 153.855469 555.769531 166.257812 577.847656 182.15625 601.53125 C 197.976562 625.210938 218.964844 649.253906 242.609375 671.515625 C 289.859375 716 344.316406 756.414062 403.570312 756.414062 C 462.859375 756.414062 517.277344 716 564.566406 671.515625 C 588.207031 649.253906 609.160156 625.210938 625.019531 601.53125 C 640.878906 577.847656 653.320312 555.769531 653.320312 527.980469 L 653.320312 99.117188 L 631.496094 90.75 C 557.21875 62.234375 481.558594 47.210938 405.316406 46.847656 Z M 405.0625 114.394531 C 465.296875 114.722656 525.132812 125.636719 585.261719 146.367188 L 585.261719 527.980469 C 585.261719 528.925781 580.644531 545.511719 568.492188 563.699219 C 556.34375 581.851562 538.265625 602.800781 517.933594 621.972656 C 477.230469 660.273438 423.792969 688.394531 403.570312 688.394531 C 383.34375 688.394531 329.945312 660.3125 289.242188 621.972656 C 268.910156 602.800781 250.832031 581.851562 238.679688 563.699219 C 226.53125 545.511719 221.914062 528.925781 221.914062 527.980469 L 221.914062 146.222656 C 283.75 124.542969 344.605469 114.105469 405.0625 114.394531 Z M 405.0625 114.394531 " fill-opacity="1" fill-rule="nonzero"/><path fill="#ffffff" d="M 405.277344 58.085938 C 330.492188 57.722656 255.085938 71.765625 179.609375 101.375 L 165.203125 107.046875 L 165.203125 527.980469 C 165.203125 551.296875 176.335938 572.464844 191.574219 595.238281 C 206.816406 618.007812 227.296875 641.503906 250.394531 663.257812 C 296.554688 706.726562 350.824219 745.027344 403.570312 745.027344 C 456.347656 745.027344 510.585938 706.726562 556.78125 663.257812 C 579.878906 641.503906 600.359375 617.972656 615.597656 595.238281 C 630.839844 572.464844 641.972656 551.296875 641.972656 527.980469 L 641.972656 106.902344 L 627.382812 101.335938 C 554.308594 73.253906 480.066406 58.449219 405.277344 58.085938 Z M 405.097656 103.121094 C 469.226562 103.445312 532.882812 115.597656 596.613281 138.402344 L 596.613281 527.980469 C 596.613281 533.398438 590.683594 550.894531 577.914062 569.992188 C 565.148438 589.089844 546.597656 610.550781 525.714844 630.230469 C 483.921875 669.550781 430.304688 699.707031 403.570312 699.707031 C 376.871094 699.707031 323.253906 669.585938 281.457031 630.230469 C 260.578125 610.550781 242.027344 589.050781 229.261719 569.992188 C 216.492188 550.894531 210.5625 533.398438 210.5625 527.980469 L 210.5625 138.332031 C 276.148438 114.359375 340.859375 102.792969 405.097656 103.117188 Z M 405.097656 103.121094 " fill-opacity="1" fill-rule="nonzero"/><path fill="#00025d" d="M 405.242188 69.328125 C 331.875 69 257.996094 82.820312 183.753906 111.957031 L 176.554688 114.757812 L 176.554688 527.980469 C 176.554688 546.820312 186.335938 567.082031 200.960938 588.90625 C 215.621094 610.769531 235.589844 633.792969 258.140625 655 C 303.210938 697.449219 357.300781 733.753906 403.570312 733.753906 C 449.839844 733.753906 503.929688 697.449219 548.996094 655 C 571.550781 633.792969 591.519531 610.769531 606.140625 588.90625 C 620.800781 567.082031 630.585938 546.820312 630.585938 527.980469 L 630.585938 114.6875 L 623.3125 111.921875 C 551.359375 84.242188 478.574219 69.691406 405.242188 69.328125 Z M 405.132812 91.878906 C 473.117188 92.207031 540.628906 105.484375 607.925781 130.472656 L 607.925781 527.980469 C 607.925781 537.875 600.722656 556.277344 587.335938 576.285156 C 573.949219 596.292969 554.890625 618.296875 533.464844 638.488281 C 490.578125 678.863281 436.816406 711.054688 403.570312 711.054688 C 370.324219 711.054688 316.558594 678.863281 273.675781 638.488281 C 252.214844 618.296875 233.226562 596.292969 219.804688 576.285156 C 206.417969 556.277344 199.214844 537.875 199.214844 527.980469 L 199.214844 130.4375 C 268.546875 104.136719 337.074219 91.515625 405.132812 91.878906 Z M 405.132812 91.878906 " fill-opacity="1" fill-rule="nonzero"/><path fill="#5271ff" d="M 187.902344 122.507812 L 187.902344 527.980469 C 187.902344 585.488281 324.089844 722.367188 403.570312 722.367188 C 483.085938 722.367188 619.273438 585.488281 619.273438 527.980469 L 619.273438 122.507812 C 477.554688 68.089844 333.875 65.214844 187.902344 122.507812 Z M 187.902344 122.507812 " fill-opacity="1" fill-rule="nonzero"/><g clip-path="url(#d48206145d)"><path fill="#ffffff" d="M 363.265625 32.332031 C 346.859375 32.296875 334.746094 39.609375 324.964844 49.683594 C 317.832031 56.960938 316.050781 64.960938 316.453125 70.78125 C 316.886719 76.636719 319.359375 80.785156 319.359375 80.785156 L 319.035156 80.128906 C 319.035156 80.128906 321.726562 86.570312 324.636719 93.660156 C 327.507812 100.753906 330.710938 108.902344 331.328125 110.792969 C 332.164062 113.484375 334.640625 121.269531 337.984375 129.527344 C 341.367188 137.75 345.152344 146.296875 350.570312 151.496094 C 355.082031 155.828125 360.429688 157.207031 365.121094 157.425781 C 365.15625 158.226562 365.410156 159.027344 365.847656 159.71875 C 365.847656 159.71875 371.558594 168.847656 373.851562 186.671875 C 373.558594 187.65625 371.996094 192.601562 370.25 199.984375 C 368.320312 208.0625 366.359375 217.589844 366.757812 225.121094 C 367.265625 234.871094 360.609375 261.3125 374.503906 282.992188 C 371.777344 284.195312 369.921875 285.066406 364.902344 287.25 C 357.15625 290.632812 348.171875 294.378906 346.605469 294.851562 C 346.535156 294.886719 344.460938 295.179688 342.023438 295.105469 C 339.585938 295.070312 336.640625 294.886719 333.691406 294.707031 C 330.746094 294.523438 327.800781 294.34375 325.21875 294.34375 C 322.636719 294.34375 320.851562 293.796875 317.6875 295.6875 C 315.761719 296.851562 314.707031 298.234375 313.542969 299.796875 C 312.339844 301.363281 311.214844 303.144531 310.230469 305 C 309.25 306.820312 308.414062 308.675781 307.832031 310.492188 C 307.210938 312.277344 306.265625 313.765625 307.503906 316.929688 C 308.265625 319.042969 309.394531 320.570312 310.339844 321.660156 C 310.414062 322.53125 310.414062 322.96875 310.632812 324.535156 C 311.03125 327.1875 311.394531 330.207031 313.757812 333.265625 C 316.125 336.320312 319.214844 337.375 322.089844 338.066406 C 323.542969 338.429688 324.964844 338.609375 326.417969 338.609375 C 327.871094 338.574219 329.4375 338.648438 331.4375 337.011719 C 330.054688 338.136719 330.417969 337.59375 330.890625 337.445312 C 331.363281 337.335938 332.164062 337.191406 333.148438 336.972656 C 335.003906 336.609375 337.546875 336.136719 340.242188 335.519531 C 338.023438 338.429688 337.183594 340.066406 336.601562 341.15625 C 334.675781 341.921875 328.5625 344.503906 321.433594 349.488281 C 313.105469 355.34375 303.792969 364.292969 304.230469 376.585938 C 304.59375 388.042969 310.742188 402.011719 316.597656 413.796875 C 320.925781 422.601562 324.417969 428.566406 326.308594 431.804688 C 324.488281 433.804688 320.234375 438.386719 313.976562 445.589844 C 310.265625 449.882812 306.519531 454.355469 303.609375 458.140625 C 302.15625 460.066406 300.882812 461.8125 299.902344 463.378906 C 298.917969 464.941406 298.046875 465.886719 297.71875 468.433594 C 297.207031 472.324219 297.789062 477.164062 298.265625 481.710938 C 298.664062 485.164062 298.917969 486.875 299.101562 488.113281 C 298.226562 489.347656 295.316406 493.277344 291.242188 499.570312 C 286.585938 506.734375 281.566406 514.628906 280.003906 521.25 C 277.894531 530.050781 272.875 538.929688 253.886719 583.414062 C 235.152344 627.28125 221.984375 662.492188 192.59375 689.15625 C 191.574219 689.082031 191.320312 688.9375 189.867188 689.011719 C 188.410156 689.082031 186.8125 689.265625 185.027344 689.957031 C 183.28125 690.683594 181.136719 692.175781 180.191406 694.722656 C 180.117188 694.941406 179.171875 696.941406 177.824219 699.269531 C 176.480469 701.597656 174.734375 704.507812 172.660156 707.453125 C 168.550781 713.417969 163.203125 719.640625 158.949219 722.402344 C 154.910156 725.058594 148.691406 726.113281 143.089844 726.660156 C 140.285156 726.914062 137.703125 727.09375 135.339844 727.460938 C 134.140625 727.640625 133.011719 727.859375 131.773438 728.40625 C 130.539062 728.949219 128.792969 729.933594 127.957031 732.117188 C 127.882812 732.261719 124.320312 738.480469 126.792969 744.992188 C 129.265625 751.539062 136.175781 757.757812 151.78125 764.742188 C 167.640625 771.800781 180.261719 772.019531 189.285156 769.617188 C 198.304688 767.253906 203.46875 762.632812 205.582031 760.195312 C 206.960938 758.558594 208.671875 756.632812 210.492188 755.359375 C 212.308594 754.085938 213.835938 753.539062 215.730469 753.941406 C 219.804688 754.742188 227.222656 755.539062 234.714844 755.46875 C 238.464844 755.433594 242.210938 755.175781 245.59375 754.523438 C 248.9375 753.832031 252.175781 752.957031 254.6875 749.976562 C 256.976562 747.210938 257.886719 744.082031 259.085938 740.046875 C 260.289062 735.972656 261.34375 731.242188 262.105469 726.511719 C 262.90625 721.785156 263.417969 717.128906 263.488281 713.164062 C 263.5625 711.164062 263.453125 709.34375 263.234375 707.671875 C 262.945312 705.960938 262.726562 704.289062 261.089844 702.433594 C 259.414062 700.542969 257.886719 699.269531 256.46875 698.105469 C 258.070312 695.449219 262.507812 688.027344 270.472656 675.914062 C 279.710938 661.910156 291.316406 645.542969 299.828125 636.847656 C 310.050781 626.335938 316.304688 609.421875 321.289062 593.308594 C 326.273438 577.15625 329.984375 561.371094 332.710938 555.371094 C 334.964844 550.386719 344.097656 542.746094 352.71875 537.289062 C 357.046875 534.597656 361.15625 532.308594 364.175781 530.707031 C 365.15625 533.617188 365.957031 535.945312 367.628906 541.910156 C 368.867188 546.277344 370.03125 550.96875 370.796875 554.933594 C 371.558594 558.898438 371.742188 562.460938 371.59375 563.261719 C 371.121094 566.5 369.449219 569.265625 367.414062 572.246094 C 365.410156 575.195312 362.71875 578.285156 362.320312 583.050781 C 362.136719 585.160156 360.757812 594.980469 358.535156 604.222656 C 357.445312 608.839844 356.136719 613.351562 354.789062 616.804688 C 353.40625 620.261719 351.480469 622.480469 351.625 622.410156 C 347.589844 624.917969 343.257812 628.226562 340.167969 632.703125 C 337.003906 637.214844 335.222656 643.25 337.039062 649.617188 C 338.023438 653.035156 340.824219 654.710938 343.332031 655.691406 C 345.878906 656.636719 348.714844 657.144531 351.917969 657.4375 C 358.28125 658.054688 366.101562 657.800781 374.070312 657.074219 C 382.035156 656.308594 390.074219 655.109375 396.695312 653.65625 C 400.003906 652.925781 402.949219 652.164062 405.425781 651.328125 C 407.898438 650.488281 409.863281 649.835938 411.753906 648.160156 C 417.464844 643.324219 418.046875 636.011719 419.355469 629.902344 C 419.972656 626.847656 420.628906 624.046875 421.394531 622.117188 C 422.15625 620.1875 422.921875 619.535156 423.140625 619.425781 C 427.214844 617.460938 431.941406 614.734375 436.089844 611.351562 C 440.234375 607.96875 444.089844 604.074219 445.109375 598.582031 C 445.507812 596.472656 445.253906 594.871094 444.890625 592.90625 C 444.5625 590.90625 444.019531 588.652344 443.363281 586.214844 C 442.019531 581.304688 440.125 575.558594 438.015625 569.882812 C 435.941406 564.246094 433.6875 558.679688 431.6875 554.242188 C 430.667969 552.023438 429.722656 550.09375 428.851562 548.496094 C 427.976562 546.855469 427.46875 545.765625 425.902344 544.347656 C 423.101562 541.765625 420.664062 540.128906 418.882812 539.074219 L 412.226562 497.242188 L 415.644531 495.058594 C 416.445312 495.203125 416.519531 495.3125 417.792969 495.386719 C 420.59375 495.53125 424.558594 495.351562 429.46875 494.222656 C 439.035156 491.96875 452.277344 485.855469 467.917969 471.671875 C 472.246094 471.160156 506.328125 466.394531 520.261719 437.804688 C 527.753906 422.492188 528.699219 400.59375 528.152344 381.207031 C 527.609375 361.855469 525.28125 344.539062 524.988281 341.339844 C 524.699219 337.808594 524.953125 335.15625 524.953125 332.136719 C 524.953125 329.117188 524.589844 325.660156 523.023438 321.878906 C 520.296875 315.476562 513.894531 299.980469 515.785156 289.25 C 517.132812 281.574219 517.96875 263.023438 517.242188 240.433594 C 516.550781 219.957031 514.367188 196.785156 509.566406 176.886719 C 513.457031 176.996094 517.859375 177.25 527.425781 177.214844 C 540.339844 177.140625 554.488281 176.886719 562.890625 174.230469 C 568.203125 172.558594 575.476562 173.105469 583.007812 174.339844 C 590.535156 175.578125 598.140625 177.46875 605.195312 177.070312 C 612.035156 176.667969 623.746094 174.269531 635.132812 171.140625 C 640.84375 169.574219 646.371094 167.828125 651.027344 166.011719 C 655.648438 164.230469 659.25 162.738281 662.050781 159.9375 C 664.160156 157.828125 667.652344 156.40625 671.105469 154.988281 C 672.816406 154.261719 674.488281 153.679688 676.273438 152.152344 C 677.144531 151.425781 678.128906 150.296875 678.636719 148.769531 C 679.183594 147.242188 679.035156 145.421875 678.5625 144.078125 C 677.800781 141.929688 676.527344 138.511719 673.21875 136.367188 C 675.253906 134.511719 676.746094 132.402344 677.363281 130.035156 C 678.199219 126.945312 677.363281 123.597656 675.328125 121.269531 C 676.855469 120.433594 678.199219 119.34375 679.253906 117.996094 C 680.417969 116.503906 681.257812 114.578125 681.257812 112.429688 C 681.21875 110.25 680.199219 108.066406 678.710938 106.574219 C 674.5625 102.390625 668.304688 100.828125 662.269531 102.28125 C 664.667969 99.082031 667.179688 95.769531 668.960938 93.117188 C 670.199219 91.261719 671.214844 89.660156 671.980469 88.132812 C 672.34375 87.367188 672.671875 86.675781 672.925781 85.660156 C 673.035156 85.148438 673.179688 84.53125 673.070312 83.621094 C 672.960938 82.640625 672.488281 81.183594 671.253906 80.128906 C 670.707031 79.65625 666.414062 75.402344 660.449219 76.019531 C 654.484375 76.675781 648.371094 81.113281 640.625 91.769531 C 632.113281 103.484375 624.074219 111.339844 617.964844 116.796875 C 617.925781 114.46875 617.855469 112.03125 617.453125 109.847656 C 617.234375 108.613281 616.945312 107.410156 616.363281 106.136719 C 615.746094 104.863281 614.582031 103.046875 612.105469 102.390625 C 607.597656 101.15625 603.886719 103.300781 600.902344 106.285156 C 597.921875 109.265625 595.628906 113.703125 595.191406 119.125 C 594.9375 122.46875 595.082031 123.890625 595.15625 125.453125 C 594.101562 125.125 592.972656 124.796875 590.792969 123.742188 C 587.84375 122.289062 584.207031 120.324219 579.515625 120.90625 C 573.511719 121.597656 558.199219 124.070312 542.449219 121.886719 C 530.480469 120.25 523.570312 120.980469 519.386719 121.671875 C 518.988281 120.578125 518.949219 120.359375 518.367188 119.015625 C 517.675781 117.339844 516.914062 115.632812 516.113281 114.140625 C 515.714844 113.375 515.3125 112.683594 514.804688 111.957031 C 514.292969 111.265625 513.929688 110.464844 512.183594 109.59375 C 510.765625 108.902344 510.695312 109.085938 510.113281 108.9375 C 509.53125 108.828125 508.839844 108.71875 508 108.574219 C 506.363281 108.320312 504.21875 108.03125 501.636719 107.8125 C 496.507812 107.300781 489.742188 106.867188 482.464844 106.9375 C 467.917969 107.121094 451.4375 108.613281 441.800781 117.996094 C 434.050781 125.5625 428.121094 132.328125 423.976562 134.546875 C 421.867188 135.636719 420.664062 135.820312 418.882812 135.3125 C 417.71875 134.984375 416.082031 133.820312 414.191406 132.21875 C 420.449219 123.671875 422.773438 112.503906 423.320312 101.738281 C 423.976562 89.332031 422.191406 77.21875 420.121094 69.179688 C 418.046875 61.179688 414.773438 54.085938 408.625 48.375 C 402.441406 42.699219 393.746094 38.515625 381.054688 34.953125 C 374.652344 33.167969 368.6875 32.332031 363.265625 32.332031 Z M 363.085938 41.789062 C 367.632812 41.898438 372.6875 42.699219 378.507812 44.335938 C 390.367188 47.648438 397.53125 51.320312 402.078125 55.539062 C 406.625 59.722656 408.953125 64.5625 410.773438 71.617188 C 412.625 78.640625 414.261719 90.097656 413.683594 101.265625 C 413.101562 112.394531 410.191406 123.015625 404.152344 129.199219 C 402.367188 131.019531 402.296875 133.929688 403.96875 135.820312 C 408.007812 140.367188 411.9375 143.386719 416.226562 144.660156 C 420.554688 145.894531 424.996094 145.023438 428.632812 143.09375 C 435.835938 139.277344 441.363281 132.109375 448.675781 124.945312 C 454.09375 119.632812 469.007812 116.832031 482.613281 116.6875 C 489.414062 116.613281 495.925781 116.976562 500.761719 117.488281 C 503.164062 117.707031 505.199219 117.960938 506.582031 118.179688 C 506.910156 118.25 507.09375 118.289062 507.347656 118.324219 C 507.457031 118.46875 507.492188 118.503906 507.566406 118.6875 C 508.109375 119.707031 508.800781 121.234375 509.421875 122.726562 C 510.65625 125.746094 511.710938 128.65625 511.710938 128.65625 C 512.550781 131.089844 515.167969 132.4375 517.679688 131.710938 C 517.679688 131.710938 525.171875 129.34375 541.140625 131.527344 C 558.746094 133.929688 575.550781 131.164062 580.679688 130.546875 C 581.550781 130.4375 583.808594 131.128906 586.570312 132.472656 C 589.335938 133.820312 592.390625 135.820312 596.792969 135.820312 C 598.503906 135.820312 600.539062 135.675781 602.394531 134.074219 C 604.285156 132.472656 604.796875 130.183594 604.867188 128.761719 C 605.050781 125.851562 604.613281 123.632812 604.90625 119.851562 C 605.160156 116.796875 606.46875 114.503906 607.816406 113.160156 C 607.886719 113.050781 607.925781 113.085938 607.996094 113.011719 C 608.179688 114.433594 608.324219 115.960938 608.324219 117.777344 C 608.359375 122.507812 607.960938 127.273438 607.960938 127.273438 C 607.777344 129.925781 609.742188 132.292969 612.433594 132.511719 C 613.597656 132.621094 614.800781 132.292969 615.746094 131.5625 C 615.746094 131.5625 633.3125 118.398438 648.519531 97.480469 C 655.503906 87.839844 660.011719 85.878906 661.539062 85.695312 C 661.832031 85.660156 661.90625 85.769531 662.085938 85.769531 C 661.6875 86.460938 661.46875 86.859375 660.921875 87.734375 C 658.667969 91.117188 655.320312 95.625 651.902344 100.101562 C 645.0625 109.011719 637.898438 117.707031 637.898438 117.707031 C 636.1875 119.777344 636.476562 122.835938 638.550781 124.542969 C 640.261719 125.960938 642.734375 126.035156 644.515625 124.691406 C 644.515625 124.691406 648.664062 121.632812 653.320312 118.433594 C 655.648438 116.796875 658.085938 115.160156 660.195312 113.886719 C 662.269531 112.648438 664.304688 111.703125 664.230469 111.738281 C 666.558594 111.050781 668.886719 111.738281 670.597656 112.757812 C 669.941406 113.121094 669.035156 113.523438 667.761719 113.703125 C 662.304688 114.539062 657.976562 117.921875 654.046875 120.90625 C 650.15625 123.925781 647.136719 126.761719 647.136719 126.761719 C 645.171875 128.617188 645.097656 131.671875 646.953125 133.636719 C 648.554688 135.347656 651.171875 135.636719 653.175781 134.328125 C 657.757812 131.273438 661.832031 129.382812 664.742188 128.472656 C 666.050781 128.109375 666.996094 128.074219 667.652344 128.074219 C 667.289062 128.726562 666.523438 129.710938 664.269531 130.910156 C 660.011719 133.09375 657.359375 135.382812 655.71875 137.3125 C 654.882812 138.257812 654.339844 139.128906 653.972656 139.859375 C 653.574219 140.585938 653.320312 141.457031 653.320312 141.457031 C 652.59375 144.042969 654.121094 146.734375 656.703125 147.425781 C 657.976562 147.789062 659.285156 147.605469 660.375 146.988281 C 665.871094 143.859375 667.832031 144.332031 667.980469 144.367188 C 668.015625 144.367188 668.378906 145.203125 668.523438 145.460938 C 668.089844 145.714844 668.089844 145.714844 667.433594 145.96875 C 664.339844 147.277344 659.320312 148.953125 655.210938 153.0625 C 654.882812 153.390625 651.71875 155.355469 647.535156 156.953125 C 643.351562 158.589844 638.078125 160.265625 632.621094 161.753906 C 621.671875 164.773438 609.667969 167.101562 604.722656 167.355469 C 599.992188 167.648438 592.539062 166.046875 584.609375 164.773438 C 576.679688 163.464844 568.09375 162.410156 559.980469 164.992188 C 554.960938 166.558594 540.121094 167.429688 527.425781 167.464844 C 514.765625 167.539062 503.746094 167.03125 503.746094 167.03125 C 501.054688 166.921875 498.761719 168.996094 498.652344 171.6875 C 498.652344 172.195312 498.691406 172.703125 498.835938 173.214844 C 504.363281 193 506.835938 218.609375 507.601562 240.726562 C 508.328125 262.878906 507.238281 282.121094 506.292969 287.578125 C 503.5625 303.035156 511.566406 319.625 514.113281 325.660156 C 515.132812 328.097656 515.277344 329.699219 515.277344 332.136719 C 515.277344 334.609375 515.023438 337.847656 515.386719 342.175781 C 515.75 346.832031 518.003906 362.765625 518.515625 381.496094 C 519.023438 400.265625 517.53125 421.398438 511.601562 433.585938 C 499.636719 458.101562 465.371094 462.285156 465.371094 462.285156 C 464.351562 462.429688 463.332031 462.867188 462.570312 463.558594 C 447.363281 477.671875 435.324219 482.910156 427.285156 484.765625 C 423.285156 485.710938 420.300781 485.820312 418.375 485.710938 C 416.445312 485.601562 415.972656 485.421875 415.972656 485.421875 C 414.554688 484.949219 413.0625 485.164062 411.863281 485.964844 L 404.332031 490.875 C 402.734375 491.929688 401.894531 493.824219 402.1875 495.714844 L 409.714844 542.855469 C 409.972656 544.347656 410.878906 545.65625 412.226562 546.386719 C 412.226562 546.386719 416.046875 548.457031 419.429688 551.585938 C 418.847656 551.039062 419.683594 551.949219 420.375 553.222656 C 421.066406 554.460938 421.9375 556.242188 422.882812 558.316406 C 424.738281 562.460938 426.921875 567.847656 428.957031 573.300781 C 430.960938 578.757812 432.816406 584.359375 434.050781 588.835938 C 434.667969 591.089844 435.105469 593.089844 435.398438 594.582031 C 435.617188 596.074219 435.542969 597.199219 435.617188 596.800781 C 435.359375 598.21875 433.289062 601.164062 429.976562 603.855469 C 426.703125 606.511719 422.449219 609.023438 418.992188 610.695312 C 415.425781 612.367188 413.609375 615.535156 412.40625 618.589844 C 411.207031 621.609375 410.515625 624.808594 409.863281 627.9375 C 408.515625 634.195312 406.660156 639.832031 405.460938 640.851562 C 405.679688 640.667969 404.296875 641.503906 402.332031 642.160156 C 400.367188 642.851562 397.675781 643.542969 394.621094 644.234375 C 388.472656 645.578125 380.761719 646.742188 373.160156 647.472656 C 365.628906 648.125 358.171875 648.34375 352.824219 647.835938 C 350.132812 647.578125 347.988281 647.105469 346.859375 646.671875 C 346.460938 646.523438 346.460938 646.488281 346.351562 646.453125 C 345.625 643.359375 346.277344 640.960938 348.132812 638.339844 C 350.097656 635.539062 353.40625 632.8125 356.789062 630.738281 C 360.609375 628.335938 362.136719 624.699219 363.8125 620.515625 C 365.484375 616.335938 366.867188 611.421875 368.03125 606.550781 C 370.324219 596.765625 371.742188 587.414062 371.996094 583.960938 C 372.070312 583.195312 373.304688 580.941406 375.453125 577.777344 C 377.597656 574.613281 380.324219 570.429688 381.199219 564.863281 C 381.78125 561.296875 381.164062 557.589844 380.324219 553.1875 C 379.488281 548.785156 378.253906 543.949219 376.980469 539.402344 C 374.46875 530.234375 371.777344 522.304688 371.777344 522.304688 C 370.90625 519.757812 368.140625 518.375 365.59375 519.25 C 365.410156 519.320312 365.265625 519.394531 365.085938 519.46875 C 365.085938 519.46875 356.753906 523.394531 347.550781 529.179688 C 338.347656 534.964844 328.054688 542.128906 323.835938 551.476562 C 320.050781 559.84375 316.851562 574.832031 311.976562 590.507812 C 307.140625 606.222656 300.664062 622.152344 292.84375 630.15625 C 283.242188 639.976562 271.746094 656.492188 262.324219 670.679688 C 252.976562 684.902344 245.847656 696.796875 245.847656 696.796875 C 244.5 699.050781 245.191406 701.996094 247.449219 703.414062 C 247.449219 703.414062 250.359375 705.308594 253.414062 708.652344 C 253.449219 708.761719 253.558594 708.910156 253.59375 709.273438 C 253.742188 710.109375 253.8125 711.453125 253.777344 713.089844 C 253.703125 716.363281 253.230469 720.695312 252.503906 725.058594 C 251.777344 729.421875 250.792969 733.863281 249.738281 737.425781 C 248.722656 740.953125 247.230469 743.828125 247.191406 743.863281 C 247.375 743.644531 246.027344 744.628906 243.628906 745.101562 C 241.265625 745.609375 237.988281 745.867188 234.644531 745.902344 C 227.914062 745.9375 220.53125 745.101562 217.65625 744.519531 C 212.636719 743.539062 208.089844 745.320312 204.925781 747.503906 C 201.761719 749.722656 199.542969 752.414062 198.195312 754.011719 C 197.503906 754.8125 193.613281 758.558594 186.8125 760.34375 C 179.972656 762.160156 169.933594 762.34375 155.710938 755.976562 C 141.195312 749.503906 136.832031 744.191406 135.886719 741.683594 C 135.15625 739.789062 135.59375 738.882812 136.320312 737.316406 C 136.539062 737.28125 136.539062 737.246094 136.832031 737.207031 C 138.394531 736.953125 141.015625 736.773438 143.996094 736.480469 C 149.960938 735.898438 157.675781 734.988281 164.257812 730.695312 C 170.660156 726.515625 176.152344 719.601562 180.625 713.128906 C 182.847656 709.925781 184.773438 706.796875 186.265625 704.253906 C 187.5 702.035156 188.230469 700.542969 188.847656 699.085938 C 189.136719 699.015625 189.648438 698.90625 190.375 698.867188 C 191.976562 698.761719 193.648438 699.015625 193.648438 699.015625 C 195.105469 699.269531 196.558594 698.867188 197.648438 697.886719 C 230.207031 669.152344 243.882812 631.683594 262.796875 587.378906 C 281.75 543.003906 286.914062 534.273438 289.425781 523.613281 C 290.1875 520.558594 294.878906 511.902344 299.390625 504.988281 C 303.867188 498.078125 308.085938 492.332031 308.085938 492.332031 C 308.847656 491.3125 309.140625 490.003906 308.957031 488.730469 C 308.957031 488.730469 308.414062 485.058594 307.9375 480.726562 C 307.464844 476.4375 307.175781 471.125 307.359375 469.777344 C 307.175781 471.015625 307.359375 469.816406 308.085938 468.6875 C 308.8125 467.523438 309.941406 465.960938 311.324219 464.175781 C 314.015625 460.648438 317.6875 456.246094 321.324219 452.066406 C 328.636719 443.625 335.875 435.804688 335.875 435.804688 C 337.367188 434.242188 337.585938 431.839844 336.457031 429.949219 C 336.457031 429.949219 330.929688 420.964844 325.289062 409.613281 C 319.6875 398.265625 314.195312 384.261719 313.941406 376.367188 C 313.6875 369.382812 319.796875 362.617188 327 357.597656 C 334.203125 352.542969 341.585938 349.667969 341.585938 349.667969 C 342.675781 349.234375 343.625 348.394531 344.167969 347.339844 C 344.167969 347.339844 345.625 344.539062 347.988281 341.484375 C 350.351562 338.429688 353.664062 335.628906 355.699219 335.117188 C 358.101562 334.535156 362.246094 335.300781 365.628906 336.5 C 369.011719 337.738281 371.414062 339.15625 371.414062 339.15625 C 372.175781 339.59375 373.015625 339.847656 373.886719 339.847656 L 390.582031 339.847656 C 393.203125 339.847656 395.347656 337.738281 395.421875 335.117188 L 396.074219 313.511719 C 396.148438 311.21875 394.585938 309.148438 392.328125 308.636719 C 392.328125 308.636719 389.601562 307.984375 386.253906 308.203125 C 382.90625 308.417969 378.105469 309.621094 375.304688 314.058594 C 375.816406 313.257812 374.503906 314.640625 372.214844 315.441406 C 369.886719 316.277344 366.757812 317.003906 363.703125 317.585938 C 357.628906 318.75 351.808594 319.332031 351.808594 319.332031 C 350.28125 319.476562 348.933594 320.3125 348.132812 321.585938 C 347.589844 322.496094 343.078125 324.933594 338.203125 326.097656 C 335.765625 326.714844 333.292969 327.152344 331.292969 327.554688 C 330.273438 327.734375 329.363281 327.917969 328.527344 328.136719 C 327.691406 328.351562 327.144531 328.097656 325.363281 329.515625 C 326.527344 328.570312 326.601562 328.972656 326.234375 328.972656 C 325.871094 328.972656 325.109375 328.933594 324.382812 328.71875 C 322.851562 328.351562 321.324219 327.296875 321.433594 327.371094 C 321.507812 327.480469 320.523438 325.152344 320.234375 323.113281 C 319.90625 321.078125 319.835938 319.367188 319.835938 319.367188 C 319.761719 317.988281 319.144531 316.714844 318.089844 315.839844 C 318.089844 315.839844 317.46875 314.96875 316.996094 314.238281 C 316.996094 314.019531 316.960938 313.914062 317.03125 313.621094 C 317.398438 312.601562 318.050781 311.148438 318.816406 309.691406 C 319.578125 308.238281 320.488281 306.78125 321.324219 305.691406 C 321.945312 304.890625 322.234375 304.601562 322.417969 304.453125 C 322.78125 304.453125 323.90625 304.128906 325.21875 304.128906 C 327.328125 304.128906 330.164062 304.308594 333.109375 304.492188 C 336.058594 304.671875 339.113281 304.890625 341.878906 304.929688 C 344.640625 304.964844 346.933594 305.035156 349.515625 304.238281 C 353.152344 303.109375 361.011719 299.652344 368.792969 296.269531 C 376.617188 292.851562 383.746094 289.648438 383.746094 289.648438 C 386.183594 288.558594 387.273438 285.683594 386.183594 283.210938 C 386 282.8125 385.746094 282.410156 385.492188 282.085938 C 370.285156 263.96875 377.234375 239.742188 376.46875 224.722656 C 376.214844 219.484375 377.851562 210.0625 379.707031 202.351562 C 381.5625 194.601562 383.453125 188.453125 383.453125 188.453125 C 383.671875 187.800781 383.746094 187.109375 383.671875 186.417969 C 381.746094 170.449219 377.671875 161.828125 375.707031 158.117188 L 378.871094 154.589844 C 380.652344 152.554688 380.472656 149.496094 378.46875 147.714844 C 377.160156 146.550781 375.304688 146.1875 373.632812 146.769531 C 373.632812 146.769531 362.976562 149.96875 357.335938 144.585938 C 354.574219 141.894531 350.207031 133.746094 347.007812 125.960938 C 343.839844 118.140625 341.40625 110.574219 340.605469 107.992188 C 339.550781 104.648438 336.53125 97.226562 333.621094 90.097656 C 330.710938 82.96875 328.019531 76.457031 328.019531 76.457031 C 327.945312 76.273438 327.800781 76.019531 327.691406 75.839844 C 327.691406 75.839844 326.417969 73.765625 326.164062 70.199219 C 325.910156 66.636719 326.601562 62.015625 331.910156 56.558594 C 340.75 47.394531 349.515625 41.464844 363.085938 41.792969 Z M 386.253906 317.914062 L 385.890625 330.027344 L 374.90625 330.027344 C 373.996094 329.515625 372.394531 328.535156 369.011719 327.296875 C 368.394531 327.078125 367.558594 326.933594 366.902344 326.714844 C 369.8125 326.132812 372.796875 325.441406 375.488281 324.535156 C 378.542969 323.441406 381.453125 322.570312 383.597656 319.148438 C 384 318.460938 384.945312 318.09375 386.253906 317.914062 Z M 386.253906 317.914062 " fill-opacity="1" fill-rule="nonzero"/></g><path fill="#00025d" d="M 407.644531 132.582031 C 422.375 149.277344 430.230469 136.21875 445.253906 121.488281 C 460.3125 106.757812 508.109375 112.976562 510.074219 113.921875 C 512.039062 114.90625 516.332031 127.015625 516.332031 127.015625 C 516.332031 127.015625 525.132812 124.398438 541.832031 126.726562 C 558.527344 129.019531 574.566406 126.398438 580.132812 125.746094 C 585.699219 125.089844 591.917969 130.945312 596.828125 130.945312 C 601.742188 130.945312 599.449219 128.035156 600.101562 119.523438 C 600.757812 111.011719 607.304688 106.101562 610.90625 107.085938 C 614.507812 108.03125 612.871094 127.707031 612.871094 127.707031 C 612.871094 127.707031 629.894531 114.941406 644.625 94.644531 C 659.359375 74.347656 665.90625 81.875 668.199219 83.839844 C 670.453125 85.804688 641.644531 120.832031 641.644531 120.832031 C 641.644531 120.832031 658.339844 108.355469 662.921875 107.085938 C 667.507812 105.738281 672.417969 107.085938 675.363281 110.03125 C 678.308594 112.976562 675.035156 117.558594 668.488281 118.542969 C 661.941406 119.488281 650.519531 130.292969 650.519531 130.292969 C 660.339844 123.78125 668.160156 121.816406 671.105469 123.78125 C 674.089844 125.746094 674.054688 131.308594 666.558594 135.203125 C 658.996094 139.128906 658.046875 142.769531 658.046875 142.769531 C 670.125 135.894531 672.453125 141.09375 674.089844 145.714844 C 675.726562 150.261719 664.921875 150.261719 658.703125 156.480469 C 652.484375 162.703125 616.800781 171.539062 605.015625 172.195312 C 593.226562 172.851562 574.894531 165.320312 561.507812 169.578125 C 548.085938 173.832031 503.5625 171.867188 503.5625 171.867188 C 515.023438 212.789062 513.386719 275.28125 511.128906 288.414062 C 508.800781 301.472656 516.003906 317.511719 518.660156 323.734375 C 521.242188 329.953125 519.605469 333.882812 520.296875 341.738281 C 520.953125 349.597656 529.425781 408.195312 516.039062 435.660156 C 502.617188 463.160156 465.953125 467.085938 465.953125 467.085938 C 434.523438 496.222656 414.554688 490.003906 414.554688 490.003906 L 407.023438 494.914062 L 414.554688 542.054688 C 414.554688 542.054688 418.808594 544.347656 422.738281 547.949219 C 426.667969 551.550781 441.726562 590.796875 440.417969 597.671875 C 439.109375 604.546875 428.632812 611.421875 421.101562 615.023438 C 413.574219 618.625 415.535156 638.59375 408.660156 644.488281 C 401.785156 650.382812 344.53125 658.019531 341.769531 648.269531 C 338.96875 638.558594 346.859375 631.175781 354.246094 626.519531 C 361.664062 621.898438 366.757812 589.015625 367.195312 583.449219 C 367.667969 577.921875 375.085938 572.828125 376.46875 564.027344 C 377.851562 555.222656 367.195312 523.757812 367.195312 523.757812 C 367.195312 523.757812 334.820312 539.039062 328.347656 553.367188 C 321.835938 567.699219 314.449219 614.953125 296.371094 633.464844 C 278.292969 652.019531 250.03125 699.195312 250.03125 699.195312 C 250.03125 699.195312 253.742188 701.523438 257.449219 705.671875 C 261.125 709.855469 255.597656 741.320312 250.976562 746.882812 C 246.320312 752.449219 223.621094 750.59375 216.710938 749.210938 C 209.761719 747.828125 204.671875 753.832031 201.90625 757.070312 C 199.105469 760.304688 183.828125 773.730469 153.746094 760.304688 C 123.664062 746.882812 131.191406 737.171875 132.464844 733.933594 C 133.847656 730.480469 150.980469 733.460938 161.640625 726.515625 C 172.296875 719.566406 183.390625 700.140625 184.773438 696.433594 C 186.15625 692.722656 194.523438 694.105469 194.523438 694.105469 C 225.949219 666.351562 239.410156 629.792969 258.398438 585.34375 C 277.382812 540.890625 282.441406 532.125 284.769531 522.378906 C 287.097656 512.664062 304.230469 489.347656 304.230469 489.347656 C 304.230469 489.347656 301.9375 474.324219 302.59375 469.050781 C 303.210938 463.851562 332.347656 432.421875 332.347656 432.421875 C 332.347656 432.421875 309.757812 395.757812 309.101562 376.441406 C 308.449219 357.125 339.875 345.011719 339.875 345.011719 C 339.875 345.011719 346.425781 332.246094 354.609375 330.28125 C 362.792969 328.316406 373.921875 334.863281 373.921875 334.863281 L 390.621094 334.863281 L 391.273438 313.257812 C 391.273438 313.257812 382.761719 311.292969 379.453125 316.53125 C 376.214844 321.769531 352.316406 324.097656 352.316406 324.097656 C 348.0625 330.972656 330.054688 331.953125 328.417969 333.226562 C 326.78125 334.574219 319.90625 333.226562 317.613281 330.316406 C 315.324219 327.371094 314.996094 319.515625 314.996094 319.515625 C 314.996094 319.515625 313.03125 317.878906 312.050781 315.257812 C 311.066406 312.640625 316.960938 301.835938 320.234375 299.871094 C 323.542969 297.90625 342.824219 301.179688 348.0625 299.542969 C 353.300781 297.90625 381.78125 285.140625 381.78125 285.140625 C 364.757812 264.84375 372.285156 237.671875 371.632812 224.9375 C 370.976562 212.136719 378.835938 186.964844 378.835938 186.964844 C 376.542969 167.648438 369.996094 157.171875 369.996094 157.171875 L 375.234375 151.28125 C 375.234375 151.28125 362.136719 155.863281 353.953125 148.007812 C 345.769531 140.148438 337.585938 114.613281 335.949219 109.375 C 334.3125 104.136719 323.507812 78.273438 323.507812 78.273438 C 323.507812 78.273438 315.976562 65.835938 328.417969 53.066406 C 340.859375 40.300781 355.261719 32.769531 379.78125 39.644531 C 404.332031 46.519531 411.535156 55.359375 415.464844 70.417969 C 419.390625 85.476562 422.339844 117.558594 407.644531 132.582031 Z M 407.644531 132.582031 " fill-opacity="1" fill-rule="nonzero"/><path fill="#5271ff" d="M 518.40625 160.917969 C 518.40625 160.917969 516.113281 141.023438 508.003906 118.105469 C 508.003906 118.105469 466.570312 116.46875 454.53125 122.289062 C 442.492188 128.074219 437.179688 138.695312 437.179688 138.695312 C 437.179688 138.695312 446.890625 129.199219 459.878906 125.488281 C 472.828125 121.816406 503.347656 123.5625 503.347656 123.5625 C 503.347656 123.5625 514.257812 144.003906 518.40625 160.917969 Z M 518.40625 160.917969 " fill-opacity="1" fill-rule="nonzero"/><path fill="#5271ff" d="M 448.855469 340.71875 C 448.855469 340.71875 381.636719 335.519531 325.980469 361.054688 C 325.980469 361.054688 366.902344 388.226562 397.675781 446.789062 C 397.675781 446.789062 377.378906 397.066406 361.339844 373.167969 C 361.339844 373.167969 373.777344 374.804688 390.800781 393.429688 L 372.46875 365.308594 L 422.195312 364.65625 L 382.617188 354.835938 C 382.617188 354.835938 395.96875 347.921875 448.855469 340.722656 Z M 448.855469 340.71875 " fill-opacity="1" fill-rule="nonzero"/><path fill="#5271ff" d="M 190.011719 701.5625 C 211.765625 711.710938 243.226562 702.941406 243.226562 702.941406 C 243.226562 702.941406 252.03125 708.507812 252.503906 710.800781 C 252.976562 713.128906 250.867188 740.445312 246.027344 742.046875 C 241.15625 743.683594 215.257812 741.828125 215.257812 741.828125 L 217.765625 736.515625 C 199.980469 737.207031 188.410156 760.5625 177.644531 760.125 C 166.878906 759.652344 151.019531 750.628906 151.019531 750.628906 C 151.019531 750.628906 148 745.429688 143.015625 744.738281 C 138.066406 744.046875 139.8125 746.375 139.8125 746.375 C 139.8125 746.375 137.59375 745.429688 135.632812 743.246094 C 133.667969 741.027344 135.886719 736.191406 135.886719 736.191406 C 135.886719 736.191406 165.023438 744.59375 190.011719 701.5625 Z M 190.011719 701.5625 " fill-opacity="1" fill-rule="nonzero"/><path fill="#5271ff" d="M 378.035156 577.703125 C 378.035156 577.703125 372.796875 581.960938 372.796875 587.851562 C 372.796875 593.78125 364.140625 624.519531 361.011719 628.773438 C 357.882812 633.03125 349.226562 634.667969 347.589844 639.757812 C 345.953125 644.816406 345.296875 646.597656 347.441406 647.433594 C 349.550781 648.269531 397.3125 643.980469 402.914062 640.085938 C 408.480469 636.160156 409.171875 613.386719 413.828125 609.460938 C 418.445312 605.53125 431.871094 599.964844 432.777344 594.617188 C 433.722656 589.308594 423.066406 557.625 419.355469 554.824219 C 415.644531 552.058594 409.171875 552.53125 409.171875 552.53125 C 409.171875 552.53125 407.570312 573.339844 400.621094 579.59375 C 393.675781 585.851562 378.398438 622.664062 376.324219 623.789062 C 374.25 624.953125 378.035156 577.703125 378.035156 577.703125 Z M 378.035156 577.703125 " fill-opacity="1" fill-rule="nonzero"/><path fill="#5271ff" d="M 464.570312 460.210938 C 537.355469 452.71875 513.09375 351.160156 513.09375 351.160156 C 513.09375 351.160156 523.605469 445.191406 464.570312 460.210938 Z M 464.570312 460.210938 " fill-opacity="1" fill-rule="nonzero"/><path fill="#5271ff" d="M 254.941406 610.769531 C 254.941406 610.769531 288.332031 539.4375 294.554688 534.199219 C 300.808594 528.960938 330.238281 503.097656 330.238281 503.097656 L 352.5 507.355469 C 352.5 507.355469 326.308594 494.585938 322.378906 489.675781 C 318.453125 484.765625 319.105469 470.6875 319.761719 467.414062 C 320.417969 464.140625 338.421875 438.96875 338.421875 438.96875 C 338.421875 438.96875 310.59375 465.160156 310.265625 470.070312 C 309.941406 474.980469 312.269531 491.347656 312.269531 491.347656 C 312.269531 491.347656 290.988281 516.195312 289.679688 524.050781 C 288.332031 531.90625 254.941406 610.769531 254.941406 610.769531 Z M 254.941406 610.769531 " fill-opacity="1" fill-rule="nonzero"/><path fill="#ffffff" d="M 257.304688 168.375 C 224.675781 168.375 198.085938 194.929688 198.085938 227.558594 C 198.085938 260.1875 224.675781 286.738281 257.304688 286.738281 C 289.933594 286.738281 316.523438 260.1875 316.523438 227.558594 C 316.523438 194.929688 289.933594 168.375 257.304688 168.375 Z M 257.304688 178.089844 C 284.695312 178.089844 306.777344 200.167969 306.777344 227.558594 C 306.777344 254.949219 284.695312 277.027344 257.304688 277.027344 C 229.914062 277.027344 207.835938 254.949219 207.835938 227.558594 C 207.835938 200.203125 229.914062 178.089844 257.304688 178.089844 Z M 257.304688 178.089844 " fill-opacity="1" fill-rule="nonzero"/><path fill="#00025d" d="M 311.648438 227.558594 C 311.648438 257.566406 287.316406 281.902344 257.304688 281.902344 C 227.296875 281.902344 202.960938 257.566406 202.960938 227.558594 C 202.960938 197.546875 227.296875 173.25 257.304688 173.25 C 287.316406 173.25 311.648438 197.546875 311.648438 227.558594 Z M 311.648438 227.558594 " fill-opacity="1" fill-rule="nonzero"/><path fill="#5271ff" d="M 292.917969 196.167969 C 297.246094 203.515625 299.535156 211.84375 299.535156 220.390625 C 299.535156 246.582031 278.292969 267.824219 252.105469 267.824219 C 238.464844 267.824219 225.515625 261.96875 216.492188 251.746094 C 225.039062 266.1875 240.574219 275.027344 257.34375 275.027344 C 283.53125 275.027344 304.773438 253.785156 304.773438 227.558594 C 304.773438 215.992188 300.554688 204.859375 292.917969 196.167969 Z M 292.917969 196.167969 " fill-opacity="1" fill-rule="nonzero"/><g clip-path="url(#7921b71b1c)"><g clip-path="url(#3b75a86733)"><path fill="#00025d" d="M 209.910156 362.835938 L 294.445312 362.835938 L 294.445312 443.296875 L 209.910156 443.296875 Z M 209.910156 362.835938 " fill-opacity="1" fill-rule="nonzero"/></g></g><g clip-path="url(#a50d2463a7)"><g clip-path="url(#e691667826)"><path fill="#00025d" d="M 671.261719 362.835938 L 755.796875 362.835938 L 755.796875 443.296875 L 671.261719 443.296875 Z M 671.261719 362.835938 " fill-opacity="1" fill-rule="nonzero"/></g></g></svg>