<svg xmlns="http://www.w3.org/2000/svg" xmlns:xlink="http://www.w3.org/1999/xlink" width="500" zoomAndPan="magnify" viewBox="0 0 375 374.999991" height="500" preserveAspectRatio="xMidYMid meet" version="1.0"><defs><g/><clipPath id="3f300984e8"><path d="M 81 2.25 L 294.210938 2.25 L 294.210938 287 L 81 287 Z M 81 2.25 " clip-rule="nonzero"/></clipPath><clipPath id="01d03d785b"><path d="M 112.816406 125.171875 L 144.605469 125.171875 L 144.605469 155.421875 L 112.816406 155.421875 Z M 112.816406 125.171875 " clip-rule="nonzero"/></clipPath><clipPath id="36005a64b6"><path d="M 128.6875 125.171875 L 132.433594 136.726562 L 144.554688 136.726562 L 134.75 143.867188 L 138.496094 155.421875 L 128.6875 148.28125 L 118.878906 155.421875 L 122.625 143.867188 L 112.816406 136.726562 L 124.941406 136.726562 Z M 128.6875 125.171875 " clip-rule="nonzero"/></clipPath><clipPath id="58e1c21f90"><path d="M 234.054688 125.171875 L 265.84375 125.171875 L 265.84375 155.421875 L 234.054688 155.421875 Z M 234.054688 125.171875 " clip-rule="nonzero"/></clipPath><clipPath id="5e5f92fa1b"><path d="M 249.925781 125.171875 L 253.671875 136.726562 L 265.792969 136.726562 L 255.984375 143.867188 L 259.730469 155.421875 L 249.925781 148.28125 L 240.117188 155.421875 L 243.863281 143.867188 L 234.054688 136.726562 L 246.175781 136.726562 Z M 249.925781 125.171875 " clip-rule="nonzero"/></clipPath></defs><path fill="#00025d" d="M 188.578125 7.953125 C 159.28125 7.804688 129.75 13.292969 100.285156 24.851562 L 91.988281 28.109375 L 91.988281 192.773438 C 91.988281 203.453125 96.757812 211.9375 102.851562 221.027344 C 108.941406 230.125 116.992188 239.359375 126.074219 247.90625 C 144.234375 265.003906 165.140625 280.511719 187.914062 280.511719 C 210.679688 280.511719 231.585938 265.003906 249.753906 247.90625 C 258.832031 239.351562 266.886719 230.125 272.972656 221.027344 C 279.0625 211.929688 283.835938 203.453125 283.835938 192.773438 L 283.835938 28.039062 L 275.453125 24.824219 C 246.925781 13.863281 217.871094 8.09375 188.578125 7.953125 Z M 188.484375 33.910156 C 211.617188 34.027344 234.613281 38.226562 257.699219 46.1875 L 257.699219 192.773438 C 257.699219 193.136719 255.925781 199.507812 251.257812 206.488281 C 246.585938 213.464844 239.644531 221.523438 231.832031 228.882812 C 216.195312 243.597656 195.675781 254.386719 187.914062 254.386719 C 180.144531 254.386719 159.625 243.601562 143.996094 228.882812 C 136.179688 221.523438 129.238281 213.46875 124.570312 206.488281 C 119.898438 199.515625 118.128906 193.136719 118.128906 192.773438 L 118.128906 46.132812 C 141.878906 37.796875 165.253906 33.789062 188.484375 33.910156 Z M 188.484375 33.910156 " fill-opacity="1" fill-rule="nonzero"/><path fill="#ffffff" d="M 188.558594 12.277344 C 159.828125 12.132812 130.867188 17.53125 101.875 28.910156 L 96.347656 31.078125 L 96.347656 192.773438 C 96.347656 201.734375 100.617188 209.867188 106.472656 218.605469 C 112.328125 227.351562 120.195312 236.382812 129.0625 244.730469 C 146.804688 261.433594 167.648438 276.152344 187.914062 276.152344 C 208.183594 276.152344 229.023438 261.433594 246.761719 244.730469 C 255.632812 236.378906 263.496094 227.34375 269.355469 218.605469 C 275.210938 209.859375 279.476562 201.734375 279.476562 192.773438 L 279.476562 31.03125 L 273.886719 28.886719 C 245.804688 18.097656 217.292969 12.417969 188.558594 12.277344 Z M 188.503906 29.578125 C 213.121094 29.703125 237.578125 34.363281 262.054688 43.128906 L 262.054688 192.773438 C 262.054688 194.855469 259.785156 201.578125 254.878906 208.910156 C 249.96875 216.242188 242.847656 224.496094 234.820312 232.046875 C 218.765625 247.160156 198.183594 258.738281 187.914062 258.738281 C 177.648438 258.738281 157.058594 247.167969 141.003906 232.046875 C 132.980469 224.488281 125.859375 216.238281 120.949219 208.910156 C 116.039062 201.578125 113.769531 194.855469 113.769531 192.773438 L 113.769531 43.097656 C 138.960938 33.898438 163.816406 29.453125 188.503906 29.578125 Z M 188.503906 29.578125 " fill-opacity="1" fill-rule="nonzero"/><path fill="#00025d" d="M 188.546875 16.601562 C 160.371094 16.464844 131.980469 21.777344 103.464844 32.964844 L 100.699219 34.050781 L 100.699219 192.773438 C 100.699219 200.015625 104.46875 207.792969 110.085938 216.179688 C 115.703125 224.570312 123.382812 233.410156 132.042969 241.566406 C 149.363281 257.871094 170.140625 271.808594 187.90625 271.808594 C 205.675781 271.808594 226.457031 257.871094 243.769531 241.566406 C 252.429688 233.410156 260.109375 224.574219 265.726562 216.179688 C 271.34375 207.792969 275.113281 200.015625 275.113281 192.773438 L 275.113281 34.023438 L 272.320312 32.949219 C 244.671875 22.332031 216.71875 16.742188 188.546875 16.601562 Z M 188.515625 25.253906 C 214.625 25.386719 240.554688 30.480469 266.410156 40.078125 L 266.410156 192.773438 C 266.410156 196.574219 263.640625 203.652344 258.492188 211.335938 C 253.34375 219.019531 246.042969 227.464844 237.800781 235.222656 C 221.328125 250.730469 200.675781 263.089844 187.90625 263.089844 C 175.136719 263.089844 154.488281 250.730469 138.011719 235.222656 C 129.773438 227.464844 122.46875 219.019531 117.324219 211.335938 C 112.175781 203.652344 109.40625 196.574219 109.40625 192.773438 L 109.40625 40.058594 C 136.039062 29.96875 162.371094 25.125 188.515625 25.253906 Z M 188.515625 25.253906 " fill-opacity="1" fill-rule="nonzero"/><path fill="#5271ff" d="M 105.058594 37.019531 L 105.058594 192.773438 C 105.058594 214.859375 157.375 267.449219 187.914062 267.449219 C 218.449219 267.449219 270.765625 214.859375 270.765625 192.773438 L 270.765625 37.019531 C 216.332031 16.117188 161.136719 15.011719 105.058594 37.019531 Z M 105.058594 37.019531 " fill-opacity="1" fill-rule="nonzero"/><g clip-path="url(#3f300984e8)"><path fill="#ffffff" d="M 172.421875 2.378906 C 166.125 2.367188 161.472656 5.183594 157.707031 9.046875 C 154.976562 11.851562 154.289062 14.914062 154.449219 17.15625 C 154.605469 19.402344 155.558594 20.992188 155.558594 20.992188 L 155.433594 20.742188 C 155.433594 20.742188 156.46875 23.21875 157.582031 25.945312 C 158.691406 28.671875 159.925781 31.796875 160.152344 32.523438 C 160.472656 33.550781 161.429688 36.546875 162.714844 39.714844 C 164.011719 42.878906 165.472656 46.15625 167.550781 48.152344 C 169.289062 49.820312 171.335938 50.347656 173.140625 50.441406 C 173.15625 50.75 173.253906 51.050781 173.417969 51.3125 C 173.417969 51.3125 175.613281 54.828125 176.488281 61.675781 C 176.375 62.042969 175.78125 63.945312 175.105469 66.785156 C 174.367188 69.882812 173.617188 73.546875 173.765625 76.441406 C 173.957031 80.175781 171.410156 90.335938 176.746094 98.671875 C 175.699219 99.136719 174.980469 99.460938 173.054688 100.300781 C 170.082031 101.597656 166.625 103.039062 166.019531 103.226562 C 165.996094 103.234375 165.195312 103.339844 164.265625 103.324219 C 163.335938 103.308594 162.199219 103.234375 161.066406 103.164062 C 159.929688 103.097656 158.800781 103.023438 157.808594 103.023438 C 156.8125 103.023438 156.128906 102.8125 154.925781 103.539062 C 154.175781 103.988281 153.773438 104.515625 153.320312 105.125 C 152.863281 105.730469 152.433594 106.417969 152.058594 107.121094 C 151.679688 107.824219 151.355469 108.535156 151.128906 109.226562 C 150.902344 109.917969 150.539062 110.484375 150.996094 111.707031 C 151.304688 112.519531 151.730469 113.109375 152.09375 113.523438 C 152.117188 113.863281 152.117188 114.027344 152.207031 114.625 C 152.363281 115.640625 152.5 116.808594 153.410156 117.976562 C 154.324219 119.152344 155.503906 119.554688 156.617188 119.828125 C 157.171875 119.964844 157.714844 120.035156 158.273438 120.027344 C 158.828125 120.015625 159.425781 120.042969 160.195312 119.425781 C 159.667969 119.851562 159.816406 119.632812 159.992188 119.589844 C 160.171875 119.542969 160.480469 119.480469 160.855469 119.40625 C 161.570312 119.269531 162.550781 119.089844 163.578125 118.839844 C 162.722656 119.957031 162.402344 120.585938 162.175781 121.007812 C 161.4375 121.308594 159.09375 122.296875 156.355469 124.214844 C 153.152344 126.457031 149.585938 129.886719 149.742188 134.621094 C 149.890625 139.019531 152.25 144.382812 154.492188 148.917969 C 156.160156 152.289062 157.5 154.585938 158.238281 155.828125 C 157.527344 156.601562 155.890625 158.367188 153.5 161.125 C 152.070312 162.773438 150.632812 164.488281 149.511719 165.953125 C 148.949219 166.683594 148.464844 167.355469 148.085938 167.957031 C 147.707031 168.558594 147.371094 168.921875 147.246094 169.902344 C 147.058594 171.394531 147.269531 173.25 147.460938 174.992188 C 147.609375 176.328125 147.710938 176.984375 147.785156 177.460938 C 147.4375 177.9375 146.328125 179.449219 144.761719 181.859375 C 142.972656 184.617188 141.050781 187.640625 140.441406 190.191406 C 139.636719 193.574219 137.707031 196.972656 130.410156 214.070312 C 123.214844 230.925781 118.15625 244.441406 106.859375 254.6875 C 106.476562 254.652344 106.382812 254.601562 105.824219 254.628906 C 105.269531 254.65625 104.644531 254.726562 103.96875 255 C 103.292969 255.269531 102.472656 255.847656 102.109375 256.8125 C 102.074219 256.90625 101.710938 257.675781 101.195312 258.574219 C 100.683594 259.46875 99.996094 260.582031 99.207031 261.71875 C 97.628906 264 95.570312 266.398438 93.949219 267.460938 C 92.390625 268.476562 90.003906 268.882812 87.851562 269.09375 C 86.773438 269.195312 85.777344 269.253906 84.867188 269.402344 C 84.414062 269.476562 83.980469 269.554688 83.503906 269.757812 C 83.027344 269.964844 82.359375 270.355469 82.03125 271.1875 C 82.011719 271.238281 80.640625 273.628906 81.59375 276.136719 C 82.546875 278.644531 85.195312 281.039062 91.183594 283.714844 C 97.277344 286.429688 102.128906 286.503906 105.597656 285.589844 C 109.066406 284.679688 111.046875 282.917969 111.851562 281.976562 C 112.390625 281.347656 113.050781 280.601562 113.746094 280.117188 C 114.445312 279.628906 115.019531 279.421875 115.757812 279.570312 C 117.316406 279.882812 120.164062 280.183594 123.046875 280.160156 C 124.488281 280.148438 125.917969 280.054688 127.21875 279.792969 C 128.511719 279.53125 129.757812 279.191406 130.714844 278.042969 C 131.59375 276.984375 131.953125 275.78125 132.410156 274.226562 C 132.867188 272.667969 133.269531 270.855469 133.570312 269.039062 C 133.871094 267.222656 134.070312 265.433594 134.101562 263.90625 C 134.121094 263.140625 134.089844 262.445312 133.996094 261.792969 C 133.894531 261.136719 133.8125 260.503906 133.171875 259.78125 C 132.535156 259.066406 131.945312 258.574219 131.402344 258.121094 C 132.015625 257.105469 133.71875 254.242188 136.78125 249.605469 C 140.335938 244.222656 144.792969 237.929688 148.050781 234.589844 C 151.984375 230.554688 154.386719 224.058594 156.296875 217.863281 C 158.214844 211.664062 159.644531 205.597656 160.683594 203.300781 C 161.554688 201.382812 165.066406 198.441406 168.378906 196.351562 C 170.03125 195.308594 171.613281 194.433594 172.785156 193.816406 C 173.148438 194.941406 173.464844 195.832031 174.101562 198.117188 C 174.570312 199.808594 175.019531 201.601562 175.316406 203.128906 C 175.609375 204.65625 175.683594 206.019531 175.632812 206.328125 C 175.4375 207.566406 174.796875 208.632812 174.019531 209.773438 C 173.242188 210.914062 172.214844 212.09375 172.0625 213.933594 C 171.996094 214.738281 171.460938 218.519531 170.617188 222.054688 C 170.195312 223.824219 169.691406 225.566406 169.164062 226.894531 C 168.636719 228.222656 167.902344 229.070312 167.953125 229.039062 C 166.40625 230.011719 164.746094 231.277344 163.542969 233.003906 C 162.339844 234.726562 161.648438 237.058594 162.347656 239.496094 C 162.722656 240.804688 163.800781 241.453125 164.777344 241.828125 C 165.753906 242.199219 166.835938 242.386719 168.0625 242.507812 C 170.511719 242.742188 173.519531 242.644531 176.574219 242.359375 C 179.632812 242.078125 182.71875 241.609375 185.261719 241.054688 C 186.535156 240.777344 187.667969 240.480469 188.621094 240.160156 C 189.574219 239.835938 190.320312 239.578125 191.058594 238.945312 C 193.234375 237.078125 193.460938 234.273438 193.960938 231.925781 C 194.210938 230.75 194.46875 229.671875 194.757812 228.933594 C 195.050781 228.195312 195.335938 227.941406 195.421875 227.894531 C 196.980469 227.152344 198.804688 226.097656 200.398438 224.796875 C 201.992188 223.503906 203.46875 222 203.863281 219.894531 C 204.019531 219.082031 203.917969 218.472656 203.785156 217.707031 C 203.65625 216.949219 203.449219 216.085938 203.195312 215.144531 C 202.679688 213.257812 201.941406 211.046875 201.140625 208.871094 C 200.339844 206.699219 199.484375 204.570312 198.707031 202.863281 C 198.320312 202.011719 197.957031 201.261719 197.617188 200.648438 C 197.277344 200.03125 197.089844 199.605469 196.492188 199.058594 C 195.410156 198.066406 194.472656 197.441406 193.796875 197.027344 L 191.234375 180.972656 L 192.539062 180.125 C 192.855469 180.179688 192.882812 180.226562 193.371094 180.253906 C 194.449219 180.308594 195.964844 180.246094 197.855469 179.804688 C 201.53125 178.941406 206.613281 176.597656 212.628906 171.144531 C 214.289062 170.945312 227.382812 169.113281 232.734375 158.136719 C 235.609375 152.246094 235.972656 143.84375 235.765625 136.398438 C 235.554688 128.957031 234.652344 122.308594 234.550781 121.082031 C 234.4375 119.726562 234.527344 118.710938 234.527344 117.546875 C 234.527344 116.382812 234.394531 115.054688 233.785156 113.601562 C 232.75 111.144531 230.289062 105.191406 231.007812 101.070312 C 231.523438 98.132812 231.855469 91.003906 231.570312 82.316406 C 231.308594 74.449219 230.464844 65.550781 228.628906 57.902344 C 230.113281 57.953125 231.8125 58.042969 235.480469 58.03125 C 240.453125 58.015625 245.875 57.914062 249.101562 56.890625 C 251.144531 56.246094 253.933594 56.464844 256.828125 56.9375 C 259.722656 57.414062 262.644531 58.128906 265.359375 57.980469 C 267.980469 57.835938 272.480469 56.902344 276.863281 55.699219 C 279.050781 55.097656 281.175781 54.429688 282.957031 53.738281 C 284.738281 53.042969 286.125 52.476562 287.191406 51.40625 C 288 50.59375 289.351562 50.042969 290.667969 49.496094 C 291.328125 49.226562 291.972656 48.992188 292.660156 48.414062 C 293 48.125 293.375 47.703125 293.574219 47.109375 C 293.773438 46.519531 293.726562 45.824219 293.539062 45.304688 C 293.25 44.488281 292.757812 43.175781 291.480469 42.347656 C 292.269531 41.632812 292.835938 40.820312 293.082031 39.914062 C 293.398438 38.726562 293.082031 37.445312 292.304688 36.546875 C 292.886719 36.21875 293.398438 35.808594 293.808594 35.289062 C 294.25 34.714844 294.574219 33.976562 294.566406 33.148438 C 294.5625 32.320312 294.175781 31.480469 293.601562 30.902344 C 292.003906 29.300781 289.609375 28.6875 287.285156 29.25 C 288.207031 28.023438 289.171875 26.757812 289.851562 25.738281 C 290.328125 25.023438 290.71875 24.398438 291.007812 23.820312 C 291.152344 23.527344 291.277344 23.261719 291.371094 22.871094 C 291.417969 22.671875 291.46875 22.441406 291.429688 22.078125 C 291.390625 21.714844 291.207031 21.144531 290.738281 20.742188 C 290.527344 20.5625 288.882812 18.921875 286.589844 19.171875 C 284.296875 19.421875 281.933594 21.117188 278.960938 25.207031 C 275.691406 29.710938 272.609375 32.734375 270.261719 34.832031 C 270.246094 33.925781 270.214844 33 270.0625 32.15625 C 269.976562 31.679688 269.875 31.222656 269.636719 30.734375 C 269.40625 30.242188 268.96875 29.542969 268.015625 29.289062 C 266.285156 28.816406 264.851562 29.640625 263.707031 30.792969 C 262.5625 31.9375 261.675781 33.640625 261.515625 35.722656 C 261.421875 37.007812 261.476562 37.550781 261.503906 38.160156 C 261.089844 38.027344 260.660156 37.898438 259.824219 37.488281 C 258.683594 36.9375 257.289062 36.191406 255.488281 36.40625 C 253.191406 36.679688 247.3125 37.621094 241.25 36.785156 C 236.648438 36.15625 234 36.433594 232.398438 36.699219 C 232.238281 36.28125 232.222656 36.203125 232 35.671875 C 231.734375 35.039062 231.449219 34.386719 231.140625 33.804688 C 230.984375 33.515625 230.832031 33.246094 230.632812 32.972656 C 230.441406 32.699219 230.292969 32.394531 229.628906 32.0625 C 229.078125 31.792969 229.0625 31.859375 228.835938 31.816406 C 228.609375 31.769531 228.347656 31.722656 228.027344 31.671875 C 227.398438 31.574219 226.570312 31.46875 225.582031 31.371094 C 223.609375 31.179688 221.003906 31.015625 218.210938 31.046875 C 212.632812 31.109375 206.289062 31.679688 202.59375 35.289062 C 199.621094 38.199219 197.34375 40.785156 195.746094 41.636719 C 194.945312 42.0625 194.472656 42.136719 193.796875 41.9375 C 193.347656 41.808594 192.714844 41.371094 191.992188 40.753906 C 194.394531 37.464844 195.285156 33.1875 195.5 29.050781 C 195.75 24.277344 195.070312 19.628906 194.261719 16.539062 C 193.460938 13.460938 192.214844 10.742188 189.84375 8.546875 C 187.46875 6.355469 184.128906 4.757812 179.257812 3.390625 C 176.796875 2.703125 174.515625 2.382812 172.421875 2.378906 Z M 172.359375 6.015625 C 174.101562 6.0625 176.046875 6.367188 178.277344 6.992188 C 182.839844 8.269531 185.589844 9.683594 187.332031 11.292969 C 189.082031 12.90625 189.96875 14.773438 190.675781 17.480469 C 191.378906 20.167969 192.019531 24.574219 191.792969 28.859375 C 191.574219 33.136719 190.449219 37.21875 188.128906 39.59375 C 187.441406 40.292969 187.414062 41.40625 188.066406 42.136719 C 189.617188 43.890625 191.113281 45.042969 192.777344 45.523438 C 194.4375 46.011719 196.140625 45.671875 197.527344 44.933594 C 200.300781 43.460938 202.417969 40.707031 205.226562 37.960938 C 207.320312 35.910156 213.042969 34.84375 218.273438 34.78125 C 220.890625 34.753906 223.375 34.90625 225.238281 35.089844 C 226.167969 35.179688 226.9375 35.28125 227.476562 35.363281 C 227.609375 35.382812 227.671875 35.394531 227.773438 35.414062 C 227.808594 35.46875 227.820312 35.484375 227.859375 35.554688 C 228.070312 35.953125 228.328125 36.53125 228.566406 37.109375 C 229.042969 38.261719 229.441406 39.386719 229.441406 39.386719 C 229.769531 40.320312 230.78125 40.835938 231.734375 40.554688 C 231.734375 40.554688 234.625 39.644531 240.757812 40.484375 C 247.515625 41.417969 253.964844 40.34375 255.9375 40.109375 C 256.277344 40.070312 257.140625 40.332031 258.203125 40.847656 C 259.265625 41.367188 260.4375 42.136719 262.128906 42.136719 C 262.789062 42.136719 263.566406 42.082031 264.285156 41.46875 C 265.007812 40.855469 265.195312 39.976562 265.234375 39.417969 C 265.308594 38.3125 265.136719 37.460938 265.25 36.007812 C 265.339844 34.820312 265.839844 33.949219 266.355469 33.425781 C 266.390625 33.390625 266.410156 33.402344 266.4375 33.375 C 266.5 33.917969 266.554688 34.503906 266.5625 35.203125 C 266.578125 37.023438 266.425781 38.851562 266.425781 38.851562 C 266.339844 39.878906 267.101562 40.78125 268.132812 40.867188 C 268.585938 40.90625 269.042969 40.773438 269.410156 40.496094 C 269.410156 40.496094 276.15625 35.445312 281.996094 27.40625 C 284.683594 23.703125 286.40625 22.949219 287.003906 22.882812 C 287.105469 22.871094 287.140625 22.917969 287.210938 22.917969 C 287.058594 23.171875 286.972656 23.335938 286.765625 23.660156 C 285.894531 24.960938 284.609375 26.695312 283.296875 28.410156 C 280.664062 31.832031 277.910156 35.179688 277.910156 35.179688 C 277.257812 35.972656 277.371094 37.15625 278.167969 37.808594 C 278.832031 38.351562 279.777344 38.375 280.464844 37.863281 C 280.464844 37.863281 282.046875 36.683594 283.835938 35.453125 C 284.734375 34.832031 285.675781 34.203125 286.476562 33.714844 C 287.273438 33.226562 288.058594 32.875 288.035156 32.882812 C 288.921875 32.625 289.816406 32.882812 290.476562 33.273438 C 290.21875 33.414062 289.875 33.566406 289.386719 33.640625 C 287.292969 33.953125 285.628906 35.257812 284.125 36.410156 C 282.628906 37.5625 281.464844 38.660156 281.464844 38.660156 C 280.714844 39.367188 280.679688 40.546875 281.390625 41.296875 C 282.015625 41.957031 283.023438 42.070312 283.78125 41.570312 C 285.542969 40.390625 287.109375 39.65625 288.230469 39.324219 C 288.734375 39.167969 289.089844 39.164062 289.347656 39.15625 C 289.203125 39.40625 288.914062 39.792969 288.042969 40.246094 C 286.417969 41.09375 285.398438 41.960938 284.765625 42.703125 C 284.449219 43.074219 284.234375 43.414062 284.089844 43.6875 C 283.945312 43.964844 283.835938 44.304688 283.835938 44.304688 C 283.5625 45.296875 284.152344 46.324219 285.148438 46.597656 C 285.625 46.726562 286.128906 46.664062 286.558594 46.421875 C 288.664062 45.222656 289.421875 45.398438 289.464844 45.417969 C 289.484375 45.421875 289.617188 45.746094 289.679688 45.84375 C 289.511719 45.929688 289.511719 45.9375 289.265625 46.042969 C 288.070312 46.535156 286.152344 47.183594 284.574219 48.761719 C 284.449219 48.882812 283.222656 49.632812 281.621094 50.257812 C 280.023438 50.882812 277.992188 51.523438 275.890625 52.101562 C 271.691406 53.253906 267.074219 54.152344 265.171875 54.253906 C 263.355469 54.355469 260.496094 53.753906 257.453125 53.253906 C 254.40625 52.753906 251.101562 52.347656 247.988281 53.332031 C 246.058594 53.945312 240.355469 54.28125 235.484375 54.296875 C 230.617188 54.316406 226.382812 54.128906 226.382812 54.128906 C 225.351562 54.082031 224.480469 54.882812 224.4375 55.910156 C 224.425781 56.109375 224.449219 56.308594 224.503906 56.496094 C 226.632812 64.09375 227.582031 73.933594 227.863281 82.441406 C 228.140625 90.949219 227.722656 98.335938 227.359375 100.429688 C 226.320312 106.367188 229.390625 112.734375 230.367188 115.054688 C 230.757812 115.992188 230.816406 116.609375 230.816406 117.550781 C 230.816406 118.492188 230.714844 119.734375 230.855469 121.398438 C 231.003906 123.191406 231.859375 129.304688 232.058594 136.511719 C 232.257812 143.71875 231.683594 151.839844 229.402344 156.507812 C 224.804688 165.929688 211.644531 167.542969 211.644531 167.542969 C 211.25 167.585938 210.867188 167.757812 210.574219 168.03125 C 204.734375 173.445312 200.097656 175.457031 197.019531 176.179688 C 195.484375 176.535156 194.332031 176.578125 193.59375 176.535156 C 192.855469 176.496094 192.664062 176.417969 192.664062 176.417969 C 192.128906 176.253906 191.554688 176.332031 191.089844 176.640625 L 188.203125 178.523438 C 187.582031 178.925781 187.261719 179.652344 187.378906 180.382812 L 190.273438 198.488281 C 190.363281 199.058594 190.722656 199.558594 191.234375 199.835938 C 191.234375 199.835938 192.695312 200.636719 193.996094 201.835938 C 193.78125 201.636719 194.097656 201.984375 194.363281 202.464844 C 194.632812 202.949219 194.960938 203.628906 195.324219 204.421875 C 196.046875 206.019531 196.886719 208.082031 197.65625 210.183594 C 198.429688 212.28125 199.136719 214.421875 199.613281 216.152344 C 199.851562 217.015625 200.027344 217.78125 200.125 218.355469 C 200.222656 218.929688 200.1875 219.371094 200.214844 219.21875 C 200.113281 219.75 199.324219 220.890625 198.058594 221.917969 C 196.792969 222.945312 195.160156 223.90625 193.824219 224.539062 C 192.46875 225.1875 191.765625 226.40625 191.300781 227.570312 C 190.839844 228.734375 190.574219 229.964844 190.320312 231.167969 C 189.808594 233.570312 189.097656 235.730469 188.632812 236.125 C 188.714844 236.054688 188.191406 236.382812 187.429688 236.640625 C 186.671875 236.894531 185.648438 237.167969 184.46875 237.429688 C 182.113281 237.945312 179.140625 238.394531 176.234375 238.664062 C 173.328125 238.933594 170.46875 239.007812 168.414062 238.8125 C 167.386719 238.714844 166.558594 238.535156 166.117188 238.363281 C 165.972656 238.308594 165.96875 238.296875 165.929688 238.273438 C 165.65625 237.09375 165.90625 236.175781 166.609375 235.164062 C 167.363281 234.085938 168.640625 233.042969 169.933594 232.234375 C 171.40625 231.316406 171.988281 229.921875 172.628906 228.316406 C 173.269531 226.707031 173.804688 224.832031 174.246094 222.953125 C 175.136719 219.199219 175.671875 215.601562 175.78125 214.273438 C 175.800781 213.980469 176.285156 213.117188 177.109375 211.902344 C 177.929688 210.6875 178.980469 209.082031 179.320312 206.941406 C 179.535156 205.5625 179.304688 204.152344 178.980469 202.460938 C 178.65625 200.769531 178.1875 198.90625 177.699219 197.152344 C 176.726562 193.644531 175.6875 190.585938 175.6875 190.585938 C 175.359375 189.613281 174.296875 189.089844 173.324219 189.417969 C 173.253906 189.441406 173.191406 189.46875 173.125 189.5 C 173.125 189.5 169.921875 191.007812 166.386719 193.230469 C 162.859375 195.457031 158.902344 198.210938 157.28125 201.800781 C 155.828125 205.011719 154.589844 210.773438 152.726562 216.800781 C 150.867188 222.828125 148.375 228.949219 145.375 232.027344 C 141.691406 235.800781 137.265625 242.132812 133.660156 247.59375 C 130.058594 253.050781 127.328125 257.621094 127.328125 257.621094 C 126.804688 258.492188 127.078125 259.625 127.941406 260.164062 C 127.941406 260.164062 129.050781 260.890625 130.234375 262.171875 C 130.25 262.214844 130.285156 262.273438 130.300781 262.402344 C 130.351562 262.726562 130.378906 263.253906 130.363281 263.878906 C 130.339844 265.132812 130.160156 266.796875 129.882812 268.476562 C 129.601562 270.15625 129.222656 271.859375 128.824219 273.21875 C 128.429688 274.582031 127.847656 275.6875 127.84375 275.699219 C 127.910156 275.621094 127.394531 275.996094 126.476562 276.183594 C 125.558594 276.371094 124.308594 276.464844 123.019531 276.476562 C 120.4375 276.5 117.59375 276.175781 116.488281 275.957031 C 114.558594 275.570312 112.828125 276.25 111.609375 277.101562 C 110.394531 277.949219 109.542969 278.980469 109.015625 279.597656 C 108.753906 279.90625 107.265625 281.339844 104.644531 282.035156 C 102.023438 282.726562 98.15625 282.792969 92.699219 280.355469 C 87.125 277.867188 85.441406 275.820312 85.078125 274.859375 C 84.800781 274.128906 84.96875 273.78125 85.246094 273.1875 C 85.328125 273.167969 85.328125 273.15625 85.445312 273.140625 C 86.046875 273.042969 87.050781 272.976562 88.199219 272.863281 C 90.492188 272.640625 93.449219 272.289062 95.980469 270.644531 C 98.441406 269.039062 100.558594 266.375 102.273438 263.894531 C 103.128906 262.660156 103.867188 261.46875 104.429688 260.480469 C 104.910156 259.632812 105.195312 259.054688 105.425781 258.503906 C 105.535156 258.472656 105.738281 258.425781 106.007812 258.410156 C 106.625 258.375 107.273438 258.476562 107.273438 258.476562 C 107.828125 258.566406 108.390625 258.410156 108.816406 258.035156 C 121.316406 247.003906 126.566406 232.605469 133.835938 215.585938 C 141.113281 198.542969 143.097656 195.191406 144.066406 191.105469 C 144.351562 189.917969 146.164062 186.597656 147.886719 183.941406 C 149.605469 181.285156 151.222656 179.085938 151.222656 179.085938 C 151.519531 178.6875 151.636719 178.1875 151.566406 177.699219 C 151.566406 177.699219 151.347656 176.285156 151.167969 174.628906 C 150.984375 172.972656 150.878906 170.933594 150.945312 170.414062 C 150.882812 170.894531 150.957031 170.4375 151.234375 169.992188 C 151.515625 169.550781 151.945312 168.949219 152.46875 168.269531 C 153.511719 166.90625 154.917969 165.226562 156.320312 163.609375 C 159.125 160.367188 161.90625 157.371094 161.90625 157.371094 C 162.472656 156.757812 162.5625 155.839844 162.125 155.125 C 162.125 155.125 159.996094 151.667969 157.839844 147.3125 C 155.683594 142.945312 153.578125 137.566406 153.476562 134.542969 C 153.386719 131.859375 155.730469 129.253906 158.492188 127.316406 C 161.261719 125.382812 164.101562 124.277344 164.101562 124.277344 C 164.527344 124.113281 164.878906 123.792969 165.089844 123.386719 C 165.089844 123.386719 165.648438 122.300781 166.550781 121.132812 C 167.460938 119.964844 168.730469 118.886719 169.519531 118.691406 C 170.445312 118.46875 172.039062 118.753906 173.332031 119.226562 C 174.628906 119.695312 175.558594 120.246094 175.558594 120.246094 C 175.847656 120.417969 176.171875 120.503906 176.507812 120.503906 L 182.917969 120.503906 C 183.929688 120.503906 184.75 119.703125 184.785156 118.691406 L 185.035156 110.394531 C 185.0625 109.503906 184.457031 108.722656 183.589844 108.515625 C 183.589844 108.515625 182.539062 108.265625 181.257812 108.347656 C 179.972656 108.433594 178.128906 108.890625 177.054688 110.605469 C 177.25 110.292969 176.75 110.820312 175.859375 111.132812 C 174.96875 111.445312 173.769531 111.734375 172.597656 111.960938 C 170.253906 112.410156 168.023438 112.625 168.023438 112.625 C 167.441406 112.683594 166.921875 113.003906 166.613281 113.5 C 166.398438 113.851562 164.675781 114.777344 162.796875 115.230469 C 161.859375 115.457031 160.917969 115.628906 160.140625 115.78125 C 159.75 115.855469 159.402344 115.921875 159.078125 116.007812 C 158.753906 116.085938 158.546875 115.996094 157.859375 116.546875 C 158.316406 116.179688 158.347656 116.332031 158.203125 116.332031 C 158.0625 116.332031 157.773438 116.308594 157.484375 116.234375 C 156.898438 116.09375 156.320312 115.683594 156.355469 115.722656 C 156.382812 115.757812 156.015625 114.863281 155.894531 114.078125 C 155.769531 113.300781 155.742188 112.640625 155.742188 112.640625 C 155.71875 112.113281 155.476562 111.621094 155.070312 111.285156 C 155.070312 111.285156 154.832031 110.957031 154.652344 110.667969 C 154.652344 110.589844 154.636719 110.542969 154.675781 110.429688 C 154.804688 110.039062 155.054688 109.476562 155.351562 108.917969 C 155.644531 108.363281 155.996094 107.8125 156.308594 107.394531 C 156.546875 107.074219 156.671875 106.972656 156.730469 106.917969 C 156.871094 106.90625 157.300781 106.792969 157.808594 106.792969 C 158.625 106.792969 159.707031 106.859375 160.835938 106.929688 C 161.96875 106.996094 163.140625 107.074219 164.207031 107.09375 C 165.277344 107.109375 166.15625 107.136719 167.136719 106.832031 C 168.542969 106.394531 171.5625 105.066406 174.554688 103.761719 C 177.550781 102.449219 180.292969 101.222656 180.292969 101.222656 C 181.234375 100.804688 181.652344 99.699219 181.234375 98.757812 C 181.164062 98.597656 181.070312 98.449219 180.960938 98.320312 C 175.128906 91.363281 177.792969 82.058594 177.5 76.289062 C 177.398438 74.28125 178.03125 70.652344 178.742188 67.6875 C 179.453125 64.71875 180.183594 62.355469 180.183594 62.355469 C 180.261719 62.105469 180.285156 61.839844 180.257812 61.578125 C 179.523438 55.433594 177.953125 52.121094 177.210938 50.695312 L 178.417969 49.339844 C 179.105469 48.566406 179.03125 47.386719 178.265625 46.707031 C 177.761719 46.257812 177.050781 46.117188 176.410156 46.335938 C 176.410156 46.335938 172.3125 47.574219 170.148438 45.496094 C 169.082031 44.476562 167.410156 41.335938 166.183594 38.339844 C 164.964844 35.34375 164.03125 32.433594 163.71875 31.445312 C 163.316406 30.15625 162.160156 27.3125 161.042969 24.574219 C 159.925781 21.832031 158.886719 19.339844 158.886719 19.339844 C 158.851562 19.253906 158.804688 19.171875 158.761719 19.089844 C 158.761719 19.089844 158.273438 18.296875 158.175781 16.929688 C 158.078125 15.5625 158.339844 13.785156 160.382812 11.683594 C 163.777344 8.167969 167.136719 5.886719 172.359375 6.015625 Z M 181.257812 112.085938 L 181.113281 116.734375 L 176.902344 116.734375 C 176.546875 116.535156 175.933594 116.160156 174.628906 115.683594 C 174.390625 115.597656 174.078125 115.546875 173.820312 115.464844 C 174.941406 115.234375 176.085938 114.980469 177.113281 114.625 C 178.300781 114.203125 179.410156 113.867188 180.234375 112.550781 C 180.394531 112.289062 180.757812 112.15625 181.257812 112.085938 Z M 181.257812 112.085938 " fill-opacity="1" fill-rule="nonzero"/></g><path fill="#00025d" d="M 189.46875 40.898438 C 195.125 47.3125 198.144531 42.285156 203.925781 36.625 C 209.710938 30.96875 228.070312 33.359375 228.824219 33.734375 C 229.578125 34.105469 231.210938 38.761719 231.210938 38.761719 C 231.210938 38.761719 234.605469 37.757812 241.019531 38.636719 C 247.429688 39.515625 253.589844 38.511719 255.726562 38.261719 C 257.867188 38.011719 260.257812 40.269531 262.140625 40.269531 C 264.023438 40.269531 263.144531 39.140625 263.402344 35.871094 C 263.65625 32.601562 266.164062 30.71875 267.550781 31.09375 C 268.933594 31.46875 268.304688 39.015625 268.304688 39.015625 C 268.304688 39.015625 274.839844 34.113281 280.5 26.316406 C 286.15625 18.519531 288.671875 21.414062 289.550781 22.167969 C 290.429688 22.921875 279.359375 36.371094 279.359375 36.371094 C 279.359375 36.371094 285.769531 31.59375 287.53125 31.09375 C 289.289062 30.589844 291.171875 31.09375 292.308594 32.222656 C 293.4375 33.351562 292.183594 35.117188 289.671875 35.492188 C 287.15625 35.867188 282.757812 40.019531 282.757812 40.019531 C 286.53125 37.507812 289.546875 36.75 290.679688 37.507812 C 291.816406 38.261719 291.808594 40.402344 288.921875 41.90625 C 286.027344 43.414062 285.652344 44.796875 285.652344 44.796875 C 290.304688 42.160156 291.183594 44.167969 291.816406 45.929688 C 292.445312 47.6875 288.296875 47.6875 285.90625 50.078125 C 283.519531 52.464844 269.8125 55.859375 265.289062 56.109375 C 260.761719 56.359375 253.726562 53.46875 248.570312 55.105469 C 243.417969 56.738281 226.320312 55.984375 226.320312 55.984375 C 230.71875 71.699219 230.09375 95.714844 229.214844 100.742188 C 228.335938 105.769531 231.097656 111.933594 232.109375 114.324219 C 233.113281 116.710938 232.484375 118.222656 232.738281 121.234375 C 232.996094 124.246094 236.257812 146.753906 231.105469 157.316406 C 225.953125 167.875 211.867188 169.386719 211.867188 169.386719 C 199.796875 180.578125 192.128906 178.1875 192.128906 178.1875 L 189.234375 180.070312 L 192.128906 198.175781 C 192.128906 198.175781 193.761719 199.054688 195.273438 200.4375 C 196.78125 201.824219 202.566406 216.90625 202.058594 219.546875 C 201.554688 222.1875 197.53125 224.824219 194.644531 226.210938 C 191.753906 227.59375 192.503906 235.261719 189.863281 237.523438 C 187.226562 239.789062 165.230469 242.71875 164.164062 238.984375 C 163.097656 235.25 166.121094 232.40625 168.964844 230.625 C 171.808594 228.847656 173.765625 216.222656 173.941406 214.085938 C 174.117188 211.953125 176.964844 209.996094 177.5 206.621094 C 178.03125 203.242188 173.941406 191.148438 173.941406 191.148438 C 173.941406 191.148438 161.496094 197.015625 159.003906 202.527344 C 156.511719 208.039062 153.671875 226.175781 146.734375 233.285156 C 139.785156 240.414062 128.933594 258.546875 128.933594 258.546875 C 128.933594 258.546875 130.359375 259.4375 131.777344 261.035156 C 133.195312 262.636719 131.066406 274.722656 129.285156 276.859375 C 127.503906 278.992188 118.792969 278.28125 116.128906 277.75 C 113.464844 277.214844 111.503906 279.523438 110.4375 280.773438 C 109.371094 282.015625 103.503906 287.175781 91.949219 282.015625 C 80.394531 276.859375 83.285156 273.128906 83.773438 271.882812 C 84.292969 270.558594 90.882812 271.707031 94.972656 269.039062 C 99.066406 266.371094 103.332031 258.902344 103.867188 257.484375 C 104.402344 256.058594 107.601562 256.59375 107.601562 256.59375 C 119.6875 245.925781 124.847656 231.878906 132.140625 214.808594 C 139.433594 197.738281 141.382812 194.363281 142.273438 190.628906 C 143.164062 186.894531 149.742188 177.9375 149.742188 177.9375 C 149.742188 177.9375 148.863281 172.15625 149.113281 170.140625 C 149.363281 168.132812 160.554688 156.0625 160.554688 156.0625 C 160.554688 156.0625 151.878906 141.980469 151.628906 134.566406 C 151.378906 127.148438 163.441406 122.496094 163.441406 122.496094 C 163.441406 122.496094 165.957031 117.589844 169.101562 116.835938 C 172.246094 116.082031 176.515625 118.59375 176.515625 118.59375 L 182.929688 118.59375 L 183.179688 110.296875 C 183.179688 110.296875 179.910156 109.542969 178.652344 111.558594 C 177.390625 113.566406 168.214844 114.453125 168.214844 114.453125 C 166.582031 117.089844 159.667969 117.472656 159.039062 117.972656 C 158.410156 118.476562 155.769531 117.972656 154.890625 116.84375 C 154.011719 115.710938 153.886719 112.695312 153.886719 112.695312 C 153.886719 112.695312 153.132812 112.0625 152.757812 111.058594 C 152.382812 110.054688 154.640625 105.90625 155.902344 105.152344 C 157.160156 104.398438 164.578125 105.65625 166.585938 105.027344 C 168.59375 104.398438 179.535156 99.492188 179.535156 99.492188 C 173 91.695312 175.894531 81.265625 175.636719 76.363281 C 175.386719 71.460938 178.402344 61.777344 178.402344 61.777344 C 177.523438 54.359375 175.007812 50.335938 175.007812 50.335938 L 177.015625 48.074219 C 177.015625 48.074219 171.988281 49.832031 168.84375 46.8125 C 165.699219 43.792969 162.558594 33.988281 161.933594 31.980469 C 161.304688 29.96875 157.15625 20.035156 157.15625 20.035156 C 157.15625 20.035156 154.261719 15.253906 159.039062 10.351562 C 163.816406 5.449219 169.351562 2.554688 178.777344 5.199219 C 188.207031 7.839844 190.972656 11.230469 192.480469 17.015625 C 193.992188 22.796875 195.121094 35.117188 189.46875 40.898438 Z M 189.46875 40.898438 " fill-opacity="1" fill-rule="nonzero"/><path fill="#5271ff" d="M 232.023438 51.777344 C 232.023438 51.777344 231.132812 44.136719 228.023438 35.332031 C 228.023438 35.332031 212.109375 34.707031 207.484375 36.933594 C 202.859375 39.15625 200.816406 43.242188 200.816406 43.242188 C 200.816406 43.242188 204.550781 39.601562 209.527344 38.175781 C 214.503906 36.75 226.234375 37.421875 226.234375 37.421875 C 226.234375 37.421875 230.421875 45.285156 232.023438 51.777344 Z M 232.023438 51.777344 " fill-opacity="1" fill-rule="nonzero"/><path fill="#5271ff" d="M 205.304688 120.84375 C 205.304688 120.84375 179.480469 118.84375 158.109375 128.652344 C 158.109375 128.652344 173.820312 139.085938 185.644531 161.589844 C 185.644531 161.589844 177.84375 142.480469 171.6875 133.300781 C 171.6875 133.300781 176.464844 133.929688 183.003906 141.097656 L 175.960938 130.285156 L 195.070312 130.035156 L 179.855469 126.261719 C 179.859375 126.261719 184.988281 123.601562 205.304688 120.84375 Z M 205.304688 120.84375 " fill-opacity="1" fill-rule="nonzero"/><path fill="#5271ff" d="M 105.875 259.449219 C 114.234375 263.355469 126.324219 259.980469 126.324219 259.980469 C 126.324219 259.980469 129.699219 262.113281 129.882812 263.003906 C 130.058594 263.894531 129.257812 274.382812 127.390625 275.007812 C 125.523438 275.632812 115.570312 274.917969 115.570312 274.917969 L 116.542969 272.875 C 109.699219 273.140625 105.257812 282.117188 101.121094 281.941406 C 96.988281 281.765625 90.894531 278.300781 90.894531 278.300781 C 90.894531 278.300781 89.738281 276.300781 87.828125 276.035156 C 85.917969 275.769531 86.585938 276.660156 86.585938 276.660156 C 86.585938 276.660156 85.742188 276.300781 84.988281 275.460938 C 84.230469 274.617188 85.078125 272.75 85.078125 272.75 C 85.078125 272.75 96.273438 275.984375 105.875 259.449219 Z M 105.875 259.449219 " fill-opacity="1" fill-rule="nonzero"/><path fill="#5271ff" d="M 178.09375 211.878906 C 178.09375 211.878906 176.085938 213.515625 176.085938 215.777344 C 176.085938 218.042969 172.753906 229.859375 171.558594 231.492188 C 170.367188 233.128906 167.027344 233.757812 166.40625 235.703125 C 165.773438 237.648438 165.523438 238.34375 166.34375 238.660156 C 167.160156 238.972656 185.511719 237.335938 187.652344 235.832031 C 189.792969 234.324219 190.0625 225.578125 191.839844 224.070312 C 193.617188 222.558594 198.773438 220.425781 199.132812 218.378906 C 199.488281 216.335938 195.398438 204.15625 193.972656 203.089844 C 192.550781 202.023438 190.0625 202.199219 190.0625 202.199219 C 190.0625 202.199219 189.4375 210.199219 186.773438 212.601562 C 184.105469 215 178.238281 229.136719 177.4375 229.582031 C 176.640625 230.023438 178.09375 211.878906 178.09375 211.878906 Z M 178.09375 211.878906 " fill-opacity="1" fill-rule="nonzero"/><path fill="#5271ff" d="M 211.339844 166.746094 C 239.300781 163.859375 229.980469 124.847656 229.980469 124.847656 C 229.980469 124.847656 234.023438 160.96875 211.339844 166.746094 Z M 211.339844 166.746094 " fill-opacity="1" fill-rule="nonzero"/><path fill="#5271ff" d="M 130.824219 224.582031 C 130.824219 224.582031 143.648438 197.171875 146.039062 195.160156 C 148.425781 193.152344 159.742188 183.214844 159.742188 183.214844 L 168.289062 184.851562 C 168.289062 184.851562 158.234375 179.945312 156.722656 178.0625 C 155.214844 176.179688 155.464844 170.769531 155.71875 169.515625 C 155.96875 168.257812 162.886719 158.582031 162.886719 158.582031 C 162.886719 158.582031 152.199219 168.636719 152.074219 170.527344 C 151.949219 172.410156 152.832031 178.699219 152.832031 178.699219 C 152.832031 178.699219 144.660156 188.253906 144.152344 191.269531 C 143.648438 194.28125 130.824219 224.582031 130.824219 224.582031 Z M 130.824219 224.582031 " fill-opacity="1" fill-rule="nonzero"/><path fill="#ffffff" d="M 131.726562 54.640625 C 119.1875 54.640625 108.984375 64.84375 108.984375 77.371094 C 108.984375 89.910156 119.1875 100.113281 131.726562 100.113281 C 144.261719 100.113281 154.464844 89.910156 154.464844 77.371094 C 154.464844 64.84375 144.261719 54.640625 131.726562 54.640625 Z M 131.726562 58.375 C 142.242188 58.375 150.730469 66.855469 150.730469 77.371094 C 150.730469 87.886719 142.246094 96.378906 131.726562 96.378906 C 121.210938 96.378906 112.71875 87.894531 112.71875 77.371094 C 112.726562 66.863281 121.210938 58.375 131.726562 58.375 Z M 131.726562 58.375 " fill-opacity="1" fill-rule="nonzero"/><path fill="#00025d" d="M 152.597656 77.378906 C 152.597656 88.902344 143.25 98.25 131.726562 98.25 C 120.199219 98.25 110.851562 88.902344 110.851562 77.378906 C 110.851562 65.851562 120.199219 56.507812 131.726562 56.507812 C 143.25 56.507812 152.597656 65.851562 152.597656 77.378906 Z M 152.597656 77.378906 " fill-opacity="1" fill-rule="nonzero"/><path fill="#5271ff" d="M 145.402344 65.320312 C 147.070312 68.132812 147.949219 71.339844 147.949219 74.613281 C 147.949219 84.683594 139.789062 92.84375 129.722656 92.84375 C 124.488281 92.84375 119.511719 90.59375 116.050781 86.667969 C 119.332031 92.207031 125.296875 95.605469 131.738281 95.605469 C 141.804688 95.605469 149.964844 87.445312 149.964844 77.378906 C 149.957031 72.933594 148.335938 68.652344 145.402344 65.320312 Z M 145.402344 65.320312 " fill-opacity="1" fill-rule="nonzero"/><g fill="#00025d" fill-opacity="1"><g transform="translate(7.05401, 334.945329)"><g><path d="M 20.703125 -29.9375 L 3.921875 -29.9375 C 3.625 -29.9375 2.90625 -29.828125 2.90625 -28.65625 L 2.90625 -25.796875 C 2.90625 -24.671875 3.625 -24.5625 3.921875 -24.5625 L 19.765625 -24.5625 C 20.671875 -24.5625 21.328125 -24.296875 21.6875 -23.765625 C 22.09375 -23.21875 22.265625 -22.34375 22.265625 -21.140625 C 22.265625 -19.9375 22.09375 -19.078125 21.6875 -18.53125 C 21.328125 -17.984375 20.671875 -17.734375 19.765625 -17.734375 L 3.921875 -17.734375 C 3.625 -17.734375 2.90625 -17.625 2.90625 -16.5 L 2.90625 -1.234375 C 2.90625 -0.109375 3.625 0.03125 3.921875 0.03125 L 7.265625 0.03125 C 7.5625 0.03125 8.28125 -0.109375 8.28125 -1.234375 L 8.28125 -12.34375 L 20.703125 -12.390625 C 23.171875 -12.390625 24.953125 -13.15625 26.046875 -14.671875 C 27.140625 -16.203125 27.640625 -18.375 27.640625 -21.25 L 27.640625 -21.03125 C 27.640625 -23.9375 27.140625 -26.125 26.046875 -27.609375 C 24.953125 -29.171875 23.171875 -29.9375 20.703125 -29.9375 Z M 20.703125 -29.9375 "/></g></g></g><g fill="#00025d" fill-opacity="1"><g transform="translate(39.426274, 334.945329)"><g><path d="M 23.875 -5.375 L 12.0625 -5.375 C 11.296875 -5.375 10.6875 -5.453125 10.171875 -5.625 C 9.734375 -5.78125 9.375 -6.03125 9.125 -6.4375 C 8.828125 -6.828125 8.609375 -7.375 8.5 -8.03125 C 8.359375 -8.75 8.3125 -9.65625 8.3125 -10.75 L 8.3125 -28.65625 C 8.3125 -29.828125 7.59375 -29.9375 7.296875 -29.9375 L 3.953125 -29.9375 C 3.625 -29.9375 2.90625 -29.828125 2.90625 -28.65625 L 2.90625 -11.375 C 2.90625 -9.34375 3.09375 -7.59375 3.421875 -6.171875 C 3.734375 -4.71875 4.25 -3.53125 4.984375 -2.609375 C 5.703125 -1.671875 6.640625 -0.984375 7.8125 -0.578125 C 8.90625 -0.1875 10.28125 0.03125 11.875 0.03125 L 23.875 0.03125 C 24.1875 0.03125 24.890625 -0.109375 24.890625 -1.234375 L 24.890625 -4.109375 C 24.890625 -5.234375 24.1875 -5.375 23.875 -5.375 Z M 23.875 -5.375 "/></g></g></g><g fill="#00025d" fill-opacity="1"><g transform="translate(69.037271, 334.945329)"><g><path d="M 22.375 -26.5625 C 22.3125 -26.734375 22.234375 -26.953125 22.15625 -27.09375 C 21.578125 -28.984375 19.828125 -30.328125 17.84375 -30.328125 C 16.921875 -30.328125 16.0625 -30.078125 15.328125 -29.578125 C 15.109375 -29.46875 14.9375 -29.3125 14.78125 -29.203125 C 14.234375 -28.734375 13.703125 -27.859375 13.1875 -26.5625 L 3.046875 -1.375 C 2.9375 -1.046875 2.90625 -0.71875 2.984375 -0.515625 C 3.015625 -0.296875 3.203125 0.03125 3.78125 0.03125 L 7.78125 0.03125 C 8.25 0.03125 8.609375 -0.25 8.796875 -0.71875 L 10.859375 -5.921875 L 18.8125 -5.921875 C 19.21875 -5.921875 19.578125 -6.109375 19.765625 -6.4375 C 19.984375 -6.71875 20.015625 -7.125 19.90625 -7.484375 L 18.59375 -10.71875 C 18.421875 -11.15625 18.015625 -11.4375 17.546875 -11.4375 L 13.046875 -11.4375 L 17.6875 -23.21875 C 17.734375 -23.28125 17.765625 -23.328125 17.765625 -23.328125 L 17.90625 -23.328125 C 17.90625 -23.328125 17.90625 -23.328125 17.953125 -23.25 L 26.953125 -0.765625 C 27.140625 -0.25 27.5 0.03125 28.015625 0.03125 L 31.890625 0.03125 C 32.484375 0.03125 32.625 -0.328125 32.6875 -0.515625 C 32.765625 -0.71875 32.734375 -1.046875 32.59375 -1.375 Z M 22.375 -26.5625 "/></g></g></g><g fill="#00025d" fill-opacity="1"><g transform="translate(106.532427, 334.945329)"><g><path d="M 29.78125 -29.9375 L 25.75 -29.9375 C 25.421875 -29.9375 25 -29.828125 24.703125 -29.28125 L 16.703125 -14.71875 L 8.796875 -29.25 C 8.5 -29.828125 8.0625 -29.9375 7.734375 -29.9375 L 3.59375 -29.9375 C 3.265625 -29.9375 3.015625 -29.75 2.9375 -29.421875 C 2.875 -29.171875 2.90625 -28.875 3.046875 -28.625 L 13.953125 -9.1875 L 13.953125 -1.234375 C 13.953125 -0.109375 14.671875 0 14.96875 0 L 18.3125 0 C 18.59375 0 19.328125 -0.109375 19.328125 -1.234375 L 19.328125 -9.1875 L 30.328125 -28.625 C 30.484375 -28.875 30.515625 -29.171875 30.4375 -29.46875 C 30.328125 -29.75 30.078125 -29.9375 29.78125 -29.9375 Z M 29.78125 -29.9375 "/></g></g></g><g fill="#00025d" fill-opacity="1"><g transform="translate(141.738633, 334.945329)"><g><path d="M 6.6875 -5.234375 L 4.328125 -5.234375 C 3.53125 -5.234375 2.90625 -4.609375 2.90625 -3.8125 L 2.90625 -1.453125 C 2.90625 -0.6875 3.53125 -0.03125 4.328125 -0.03125 L 6.6875 -0.03125 C 7.453125 -0.03125 8.09375 -0.6875 8.09375 -1.453125 L 8.09375 -3.8125 C 8.09375 -4.609375 7.453125 -5.234375 6.6875 -5.234375 Z M 6.6875 -5.234375 "/></g></g></g><g fill="#00025d" fill-opacity="1"><g transform="translate(154.564006, 334.945329)"><g><path d="M 33.234375 -29.9375 L 29.96875 -29.9375 C 29.46875 -29.9375 29.0625 -29.890625 28.703125 -29.78125 C 28.328125 -29.6875 28.015625 -29.5 27.71875 -29.25 C 27.46875 -28.953125 27.203125 -28.625 26.984375 -28.1875 C 26.78125 -27.75 26.59375 -27.203125 26.375 -26.515625 L 19.9375 -10.46875 C 19.90625 -10.3125 19.875 -10.3125 19.828125 -10.3125 L 19.46875 -10.3125 C 19.46875 -10.3125 19.40625 -10.3125 19.359375 -10.46875 L 12.96875 -26.515625 C 12.75 -27.203125 12.53125 -27.75 12.34375 -28.1875 C 12.140625 -28.625 11.875 -28.953125 11.625 -29.25 C 11.328125 -29.5 10.96875 -29.6875 10.609375 -29.78125 C 10.25 -29.890625 9.8125 -29.9375 9.34375 -29.9375 L 6 -29.9375 C 4.765625 -29.9375 3.921875 -29.53125 3.484375 -28.765625 C 3.09375 -28.078125 2.90625 -26.921875 2.90625 -25.25 L 2.90625 -1.234375 C 2.90625 -0.109375 3.625 0.03125 3.953125 0.03125 L 7.078125 0.03125 C 7.40625 0.03125 8.09375 -0.109375 8.09375 -1.234375 L 8.09375 -23.0625 C 8.09375 -23.109375 8.09375 -23.140625 8.09375 -23.140625 L 8.28125 -23.140625 C 8.3125 -23.140625 8.359375 -23.140625 8.390625 -23.03125 L 14.609375 -7.671875 C 14.859375 -6.90625 15.109375 -6.25 15.359375 -5.703125 C 15.65625 -5.15625 15.953125 -4.71875 16.234375 -4.359375 C 16.609375 -4 16.96875 -3.703125 17.40625 -3.5625 C 17.84375 -3.421875 18.3125 -3.34375 18.859375 -3.34375 L 20.34375 -3.34375 C 20.890625 -3.34375 21.390625 -3.421875 21.796875 -3.5625 C 22.234375 -3.703125 22.625 -4 22.953125 -4.359375 C 23.25 -4.71875 23.578125 -5.15625 23.828125 -5.703125 C 24.078125 -6.25 24.34375 -6.90625 24.59375 -7.671875 L 30.84375 -23.0625 C 30.84375 -23.140625 30.875 -23.140625 30.921875 -23.140625 L 31.09375 -23.140625 C 31.09375 -23.140625 31.09375 -23.109375 31.09375 -23.0625 L 31.09375 -1.234375 C 31.09375 -0.109375 31.828125 0.03125 32.109375 0.03125 L 35.234375 0.03125 C 35.5625 0.03125 36.296875 -0.109375 36.296875 -1.234375 L 36.296875 -25.25 C 36.296875 -26.921875 36.109375 -28.078125 35.703125 -28.765625 C 35.28125 -29.53125 34.4375 -29.9375 33.234375 -29.9375 Z M 33.234375 -29.9375 "/></g></g></g><g fill="#00025d" fill-opacity="1"><g transform="translate(195.583413, 334.945329)"><g><path d="M 24.734375 -6.5 L 11.953125 -6.5 C 11.1875 -6.5 10.578125 -6.609375 10.0625 -6.75 C 9.59375 -6.9375 9.265625 -7.1875 8.96875 -7.5625 C 8.6875 -7.953125 8.46875 -8.5 8.359375 -9.1875 C 8.3125 -9.375 8.3125 -9.625 8.28125 -9.8125 C 8.28125 -9.8125 8.3125 -12.421875 8.359375 -12.421875 L 24.59375 -12.421875 C 24.890625 -12.421875 25.609375 -12.5625 25.609375 -13.703125 L 25.609375 -16.5625 C 25.609375 -17.6875 24.890625 -17.796875 24.59375 -17.796875 L 5.84375 -17.765625 C 4.796875 -17.6875 3.890625 -17.140625 3.375 -16.234375 C 3.203125 -15.953125 3.046875 -15.65625 2.984375 -15.328125 L 2.90625 -10.75 L 2.90625 -10.578125 C 2.9375 -8.859375 3.125 -7.40625 3.375 -6.21875 C 3.703125 -4.765625 4.25 -3.5625 4.9375 -2.65625 C 5.671875 -1.703125 6.609375 -1.046875 7.78125 -0.65625 C 8.90625 -0.21875 10.25 -0.03125 11.84375 -0.03125 L 24.734375 -0.03125 C 25.0625 -0.03125 25.796875 -0.140625 25.796875 -1.265625 L 25.796875 -5.265625 C 25.796875 -6.390625 25.0625 -6.5 24.734375 -6.5 Z M 24.78125 -30 L 3.890625 -30 C 3.59375 -30 2.90625 -29.859375 2.90625 -28.703125 L 2.90625 -25.859375 C 2.90625 -24.734375 3.59375 -24.625 3.890625 -24.625 L 24.78125 -24.59375 C 25.0625 -24.59375 25.796875 -24.734375 25.796875 -25.859375 L 25.796875 -28.734375 C 25.796875 -29.859375 25.0625 -30 24.78125 -30 Z M 24.78125 -30 "/></g></g></g><g fill="#00025d" fill-opacity="1"><g transform="translate(226.102728, 334.945329)"><g><path d="M 28.015625 -29.9375 L 3.953125 -29.9375 C 3.625 -29.9375 2.90625 -29.828125 2.90625 -28.703125 L 2.90625 -25.859375 C 2.90625 -24.671875 3.625 -24.5625 3.953125 -24.5625 L 13.296875 -24.5625 L 13.296875 -1.234375 C 13.296875 -0.109375 14.015625 0 14.3125 0 L 17.65625 0 C 17.984375 0 18.671875 -0.109375 18.671875 -1.234375 L 18.671875 -24.5625 L 28.015625 -24.5625 C 28.328125 -24.5625 29.0625 -24.671875 29.0625 -25.859375 L 29.0625 -28.703125 C 29.0625 -29.828125 28.328125 -29.9375 28.015625 -29.9375 Z M 28.015625 -29.9375 "/></g></g></g><g fill="#00025d" fill-opacity="1"><g transform="translate(259.891956, 334.945329)"><g><path d="M 27.6875 -21.25 C 27.6875 -21.21875 27.6875 -21.171875 27.6875 -21.140625 C 27.6875 -21.109375 27.6875 -21.0625 27.6875 -21.03125 Z M 28.375 -1.5625 L 22.015625 -12.453125 C 23.796875 -12.671875 25.171875 -13.4375 26.078125 -14.671875 C 27.09375 -16.171875 27.640625 -18.3125 27.6875 -21.140625 C 27.640625 -23.96875 27.09375 -26.125 26.078125 -27.609375 C 25 -29.171875 23.171875 -29.9375 20.703125 -29.9375 L 3.953125 -29.9375 C 3.625 -29.9375 2.90625 -29.828125 2.90625 -28.65625 L 2.90625 -25.796875 C 2.90625 -24.671875 3.625 -24.5625 3.953125 -24.5625 L 19.765625 -24.5625 C 20.703125 -24.5625 21.328125 -24.296875 21.6875 -23.765625 C 22.09375 -23.21875 22.265625 -22.34375 22.265625 -21.140625 C 22.265625 -19.9375 22.09375 -19.078125 21.6875 -18.53125 C 21.328125 -17.984375 20.703125 -17.734375 19.765625 -17.734375 L 3.953125 -17.734375 C 3.625 -17.734375 2.90625 -17.625 2.90625 -16.5 L 2.90625 -1.234375 C 2.90625 -0.109375 3.625 0.03125 3.953125 0.03125 L 7.265625 0.03125 C 7.59375 0.03125 8.28125 -0.109375 8.28125 -1.234375 L 8.28125 -12.34375 L 15.953125 -12.34375 L 22.515625 -0.6875 C 22.671875 -0.46875 22.78125 -0.296875 22.921875 -0.1875 C 23.109375 -0.03125 23.359375 0.03125 23.6875 0.03125 L 27.6875 0.03125 C 28.125 0.03125 28.4375 -0.25 28.515625 -0.6875 C 28.546875 -1.046875 28.515625 -1.34375 28.375 -1.5625 Z M 28.375 -1.5625 "/></g></g></g><g fill="#00025d" fill-opacity="1"><g transform="translate(293.172537, 334.945329)"><g><path d="M 7.265625 -29.9375 L 3.921875 -29.9375 C 3.625 -29.9375 2.90625 -29.78125 2.90625 -28.65625 L 2.90625 -1.234375 C 2.90625 -0.109375 3.625 0.03125 3.921875 0.03125 L 7.265625 0.03125 C 7.5625 0.03125 8.28125 -0.109375 8.28125 -1.234375 L 8.28125 -28.65625 C 8.28125 -29.78125 7.5625 -29.9375 7.265625 -29.9375 Z M 7.265625 -29.9375 "/></g></g></g><g fill="#00025d" fill-opacity="1"><g transform="translate(306.17956, 334.945329)"><g><path d="M 25.109375 -29.9375 L 11.875 -29.9375 C 10.28125 -29.9375 8.90625 -29.71875 7.78125 -29.3125 C 6.609375 -28.875 5.671875 -28.1875 4.984375 -27.28125 C 4.25 -26.375 3.703125 -25.171875 3.375 -23.71875 C 3.046875 -22.3125 2.90625 -20.5625 2.90625 -18.5625 L 2.90625 -11.375 C 2.90625 -9.34375 3.046875 -7.59375 3.375 -6.140625 C 3.703125 -4.71875 4.25 -3.53125 4.984375 -2.578125 C 5.703125 -1.671875 6.640625 -0.984375 7.78125 -0.578125 C 8.90625 -0.1875 10.28125 0.03125 11.875 0.03125 L 25.109375 0.03125 C 25.390625 0.03125 26.125 -0.109375 26.125 -1.234375 L 26.125 -4.109375 C 26.125 -5.234375 25.390625 -5.375 25.109375 -5.375 L 12.0625 -5.375 C 11.296875 -5.375 10.640625 -5.453125 10.171875 -5.625 C 9.703125 -5.78125 9.375 -6.03125 9.078125 -6.4375 C 8.796875 -6.796875 8.609375 -7.34375 8.46875 -8.03125 C 8.359375 -8.75 8.28125 -9.65625 8.28125 -10.75 L 8.28125 -19.21875 C 8.28125 -20.3125 8.359375 -21.21875 8.46875 -21.90625 C 8.609375 -22.59375 8.796875 -23.109375 9.078125 -23.5 C 9.375 -23.90625 9.703125 -24.15625 10.171875 -24.296875 C 10.640625 -24.484375 11.296875 -24.5625 12.0625 -24.5625 L 25.109375 -24.5625 C 25.390625 -24.5625 26.125 -24.703125 26.125 -25.859375 L 26.125 -28.65625 C 26.125 -29.78125 25.390625 -29.9375 25.109375 -29.9375 Z M 25.109375 -29.9375 "/></g></g></g><g fill="#00025d" fill-opacity="1"><g transform="translate(337.025872, 334.945329)"><g><path d="M 20.453125 -17.875 L 9.546875 -17.875 C 9.015625 -17.875 8.3125 -18.09375 8.3125 -19.875 L 8.3125 -22.5625 C 8.3125 -23.21875 8.421875 -23.71875 8.609375 -24.078125 C 8.75 -24.296875 8.96875 -24.5625 9.59375 -24.5625 L 24.375 -24.5625 C 24.671875 -24.5625 25.390625 -24.671875 25.390625 -25.796875 L 25.390625 -28.703125 C 25.390625 -29.828125 24.671875 -29.9375 24.375 -29.9375 L 8.71875 -29.9375 C 6.71875 -29.9375 5.265625 -29.28125 4.328125 -27.9375 C 3.375 -26.625 2.90625 -24.890625 2.90625 -22.78125 L 2.90625 -20.015625 C 2.90625 -17.515625 3.421875 -15.46875 4.328125 -14.203125 C 5.453125 -12.71875 7.125 -12.5 8.640625 -12.5 L 19.546875 -12.5 C 20.09375 -12.5 20.8125 -12.28125 20.8125 -10.5 L 20.8125 -7.375 C 20.8125 -6.71875 20.703125 -6.21875 20.484375 -5.84375 C 20.34375 -5.625 20.125 -5.375 19.515625 -5.375 L 4 -5.375 C 3.671875 -5.375 2.9375 -5.265625 2.9375 -4.140625 L 2.9375 -1.234375 C 2.9375 -0.109375 3.671875 0 4 0 L 20.375 0 C 22.375 0 23.875 -0.6875 24.8125 -2.03125 C 25.71875 -3.34375 26.1875 -5.046875 26.1875 -7.15625 L 26.1875 -10.359375 C 26.1875 -12.71875 25.71875 -14.5625 24.78125 -15.875 C 23.796875 -17.1875 22.34375 -17.875 20.453125 -17.875 Z M 20.453125 -17.875 "/></g></g></g><g fill="#5170fc" fill-opacity="1"><g transform="translate(86.805638, 357.240897)"><g><path d="M 3.6875 -11.046875 L 3.6875 -6.640625 L 10.015625 -6.640625 L 10.015625 -5.09375 L 3.6875 -5.09375 L 3.6875 0 L 1.890625 0 L 1.890625 -12.609375 L 10.796875 -12.609375 L 10.796875 -11.046875 Z M 3.6875 -11.046875 "/></g></g></g><g fill="#5170fc" fill-opacity="1"><g transform="translate(112.656327, 357.240897)"><g><path d="M 7.578125 0.140625 C 6.304688 0.140625 5.160156 -0.132812 4.140625 -0.6875 C 3.117188 -1.25 2.316406 -2.019531 1.734375 -3 C 1.148438 -3.988281 0.859375 -5.09375 0.859375 -6.3125 C 0.859375 -7.519531 1.148438 -8.613281 1.734375 -9.59375 C 2.316406 -10.582031 3.117188 -11.351562 4.140625 -11.90625 C 5.160156 -12.46875 6.304688 -12.75 7.578125 -12.75 C 8.835938 -12.75 9.976562 -12.46875 11 -11.90625 C 12.019531 -11.351562 12.816406 -10.585938 13.390625 -9.609375 C 13.972656 -8.628906 14.265625 -7.53125 14.265625 -6.3125 C 14.265625 -5.082031 13.972656 -3.976562 13.390625 -3 C 12.816406 -2.019531 12.019531 -1.25 11 -0.6875 C 9.976562 -0.132812 8.835938 0.140625 7.578125 0.140625 Z M 7.578125 -1.453125 C 8.503906 -1.453125 9.335938 -1.660156 10.078125 -2.078125 C 10.816406 -2.503906 11.398438 -3.085938 11.828125 -3.828125 C 12.253906 -4.566406 12.46875 -5.394531 12.46875 -6.3125 C 12.46875 -7.21875 12.253906 -8.039062 11.828125 -8.78125 C 11.398438 -9.519531 10.816406 -10.097656 10.078125 -10.515625 C 9.335938 -10.941406 8.503906 -11.15625 7.578125 -11.15625 C 6.660156 -11.15625 5.828125 -10.941406 5.078125 -10.515625 C 4.328125 -10.097656 3.738281 -9.519531 3.3125 -8.78125 C 2.882812 -8.039062 2.671875 -7.21875 2.671875 -6.3125 C 2.671875 -5.394531 2.882812 -4.566406 3.3125 -3.828125 C 3.738281 -3.085938 4.328125 -2.503906 5.078125 -2.078125 C 5.828125 -1.660156 6.660156 -1.453125 7.578125 -1.453125 Z M 7.578125 -1.453125 "/></g></g></g><g fill="#5170fc" fill-opacity="1"><g transform="translate(142.19843, 357.240897)"><g><path d="M 7.578125 0.140625 C 6.304688 0.140625 5.160156 -0.132812 4.140625 -0.6875 C 3.117188 -1.25 2.316406 -2.019531 1.734375 -3 C 1.148438 -3.988281 0.859375 -5.09375 0.859375 -6.3125 C 0.859375 -7.519531 1.148438 -8.613281 1.734375 -9.59375 C 2.316406 -10.582031 3.117188 -11.351562 4.140625 -11.90625 C 5.160156 -12.46875 6.304688 -12.75 7.578125 -12.75 C 8.835938 -12.75 9.976562 -12.46875 11 -11.90625 C 12.019531 -11.351562 12.816406 -10.585938 13.390625 -9.609375 C 13.972656 -8.628906 14.265625 -7.53125 14.265625 -6.3125 C 14.265625 -5.082031 13.972656 -3.976562 13.390625 -3 C 12.816406 -2.019531 12.019531 -1.25 11 -0.6875 C 9.976562 -0.132812 8.835938 0.140625 7.578125 0.140625 Z M 7.578125 -1.453125 C 8.503906 -1.453125 9.335938 -1.660156 10.078125 -2.078125 C 10.816406 -2.503906 11.398438 -3.085938 11.828125 -3.828125 C 12.253906 -4.566406 12.46875 -5.394531 12.46875 -6.3125 C 12.46875 -7.21875 12.253906 -8.039062 11.828125 -8.78125 C 11.398438 -9.519531 10.816406 -10.097656 10.078125 -10.515625 C 9.335938 -10.941406 8.503906 -11.15625 7.578125 -11.15625 C 6.660156 -11.15625 5.828125 -10.941406 5.078125 -10.515625 C 4.328125 -10.097656 3.738281 -9.519531 3.3125 -8.78125 C 2.882812 -8.039062 2.671875 -7.21875 2.671875 -6.3125 C 2.671875 -5.394531 2.882812 -4.566406 3.3125 -3.828125 C 3.738281 -3.085938 4.328125 -2.503906 5.078125 -2.078125 C 5.828125 -1.660156 6.660156 -1.453125 7.578125 -1.453125 Z M 7.578125 -1.453125 "/></g></g></g><g fill="#5170fc" fill-opacity="1"><g transform="translate(171.740534, 357.240897)"><g><path d="M 4.390625 -11.046875 L 0.078125 -11.046875 L 0.078125 -12.609375 L 10.5 -12.609375 L 10.5 -11.046875 L 6.171875 -11.046875 L 6.171875 0 L 4.390625 0 Z M 4.390625 -11.046875 "/></g></g></g><g fill="#5170fc" fill-opacity="1"><g transform="translate(196.726888, 357.240897)"><g><path d="M 10.375 -6.546875 C 11.101562 -6.335938 11.675781 -5.960938 12.09375 -5.421875 C 12.519531 -4.890625 12.734375 -4.21875 12.734375 -3.40625 C 12.734375 -2.3125 12.320312 -1.46875 11.5 -0.875 C 10.675781 -0.289062 9.476562 0 7.90625 0 L 1.890625 0 L 1.890625 -12.609375 L 7.546875 -12.609375 C 8.984375 -12.609375 10.097656 -12.316406 10.890625 -11.734375 C 11.679688 -11.160156 12.078125 -10.363281 12.078125 -9.34375 C 12.078125 -8.6875 11.921875 -8.117188 11.609375 -7.640625 C 11.304688 -7.160156 10.894531 -6.796875 10.375 -6.546875 Z M 3.6875 -11.15625 L 3.6875 -7.109375 L 7.390625 -7.109375 C 8.316406 -7.109375 9.023438 -7.28125 9.515625 -7.625 C 10.015625 -7.96875 10.265625 -8.472656 10.265625 -9.140625 C 10.265625 -9.796875 10.015625 -10.296875 9.515625 -10.640625 C 9.023438 -10.984375 8.316406 -11.15625 7.390625 -11.15625 Z M 7.84375 -1.453125 C 8.863281 -1.453125 9.628906 -1.617188 10.140625 -1.953125 C 10.660156 -2.296875 10.921875 -2.828125 10.921875 -3.546875 C 10.921875 -4.953125 9.894531 -5.65625 7.84375 -5.65625 L 3.6875 -5.65625 L 3.6875 -1.453125 Z M 7.84375 -1.453125 "/></g></g></g><g fill="#5170fc" fill-opacity="1"><g transform="translate(224.774421, 357.240897)"><g><path d="M 9.921875 -3.15625 L 3.21875 -3.15625 L 1.84375 0 L -0.015625 0 L 5.6875 -12.609375 L 7.46875 -12.609375 L 13.203125 0 L 11.3125 0 Z M 9.296875 -4.59375 L 6.578125 -10.765625 L 3.859375 -4.59375 Z M 9.296875 -4.59375 "/></g></g></g><g fill="#5170fc" fill-opacity="1"><g transform="translate(252.371771, 357.240897)"><g><path d="M 1.890625 -12.609375 L 3.6875 -12.609375 L 3.6875 -1.5625 L 10.515625 -1.5625 L 10.515625 0 L 1.890625 0 Z M 1.890625 -12.609375 "/></g></g></g><g fill="#5170fc" fill-opacity="1"><g transform="translate(277.484176, 357.240897)"><g><path d="M 1.890625 -12.609375 L 3.6875 -12.609375 L 3.6875 -1.5625 L 10.515625 -1.5625 L 10.515625 0 L 1.890625 0 Z M 1.890625 -12.609375 "/></g></g></g><g clip-path="url(#01d03d785b)"><g clip-path="url(#36005a64b6)"><path fill="#00025d" d="M 112.816406 125.171875 L 144.605469 125.171875 L 144.605469 155.421875 L 112.816406 155.421875 Z M 112.816406 125.171875 " fill-opacity="1" fill-rule="nonzero"/></g></g><g clip-path="url(#58e1c21f90)"><g clip-path="url(#5e5f92fa1b)"><path fill="#00025d" d="M 234.054688 125.171875 L 265.84375 125.171875 L 265.84375 155.421875 L 234.054688 155.421875 Z M 234.054688 125.171875 " fill-opacity="1" fill-rule="nonzero"/></g></g></svg>