<svg xmlns="http://www.w3.org/2000/svg" xmlns:xlink="http://www.w3.org/1999/xlink" width="500" zoomAndPan="magnify" viewBox="0 0 375 374.999991" height="500" preserveAspectRatio="xMidYMid meet" version="1.0"><defs><g/></defs><g fill="#00025d" fill-opacity="1"><g transform="translate(9.1246, 204.043824)"><g><path d="M 20.703125 -29.9375 L 3.921875 -29.9375 C 3.625 -29.9375 2.90625 -29.828125 2.90625 -28.65625 L 2.90625 -25.796875 C 2.90625 -24.671875 3.625 -24.5625 3.921875 -24.5625 L 19.765625 -24.5625 C 20.671875 -24.5625 21.328125 -24.296875 21.6875 -23.765625 C 22.09375 -23.21875 22.265625 -22.34375 22.265625 -21.140625 C 22.265625 -19.9375 22.09375 -19.078125 21.6875 -18.53125 C 21.328125 -17.984375 20.671875 -17.734375 19.765625 -17.734375 L 3.921875 -17.734375 C 3.625 -17.734375 2.90625 -17.625 2.90625 -16.5 L 2.90625 -1.234375 C 2.90625 -0.109375 3.625 0.03125 3.921875 0.03125 L 7.265625 0.03125 C 7.5625 0.03125 8.28125 -0.109375 8.28125 -1.234375 L 8.28125 -12.34375 L 20.703125 -12.390625 C 23.171875 -12.390625 24.953125 -13.15625 26.046875 -14.671875 C 27.140625 -16.203125 27.640625 -18.375 27.640625 -21.25 L 27.640625 -21.03125 C 27.640625 -23.9375 27.140625 -26.125 26.046875 -27.609375 C 24.953125 -29.171875 23.171875 -29.9375 20.703125 -29.9375 Z M 20.703125 -29.9375 "/></g></g></g><g fill="#00025d" fill-opacity="1"><g transform="translate(41.496864, 204.043824)"><g><path d="M 23.875 -5.375 L 12.0625 -5.375 C 11.296875 -5.375 10.6875 -5.453125 10.171875 -5.625 C 9.734375 -5.78125 9.375 -6.03125 9.125 -6.4375 C 8.828125 -6.828125 8.609375 -7.375 8.5 -8.03125 C 8.359375 -8.75 8.3125 -9.65625 8.3125 -10.75 L 8.3125 -28.65625 C 8.3125 -29.828125 7.59375 -29.9375 7.296875 -29.9375 L 3.953125 -29.9375 C 3.625 -29.9375 2.90625 -29.828125 2.90625 -28.65625 L 2.90625 -11.375 C 2.90625 -9.34375 3.09375 -7.59375 3.421875 -6.171875 C 3.734375 -4.71875 4.25 -3.53125 4.984375 -2.609375 C 5.703125 -1.671875 6.640625 -0.984375 7.8125 -0.578125 C 8.90625 -0.1875 10.28125 0.03125 11.875 0.03125 L 23.875 0.03125 C 24.1875 0.03125 24.890625 -0.109375 24.890625 -1.234375 L 24.890625 -4.109375 C 24.890625 -5.234375 24.1875 -5.375 23.875 -5.375 Z M 23.875 -5.375 "/></g></g></g><g fill="#00025d" fill-opacity="1"><g transform="translate(71.107861, 204.043824)"><g><path d="M 22.375 -26.5625 C 22.3125 -26.734375 22.234375 -26.953125 22.15625 -27.09375 C 21.578125 -28.984375 19.828125 -30.328125 17.84375 -30.328125 C 16.921875 -30.328125 16.0625 -30.078125 15.328125 -29.578125 C 15.109375 -29.46875 14.9375 -29.3125 14.78125 -29.203125 C 14.234375 -28.734375 13.703125 -27.859375 13.1875 -26.5625 L 3.046875 -1.375 C 2.9375 -1.046875 2.90625 -0.71875 2.984375 -0.515625 C 3.015625 -0.296875 3.203125 0.03125 3.78125 0.03125 L 7.78125 0.03125 C 8.25 0.03125 8.609375 -0.25 8.796875 -0.71875 L 10.859375 -5.921875 L 18.8125 -5.921875 C 19.21875 -5.921875 19.578125 -6.109375 19.765625 -6.4375 C 19.984375 -6.71875 20.015625 -7.125 19.90625 -7.484375 L 18.59375 -10.71875 C 18.421875 -11.15625 18.015625 -11.4375 17.546875 -11.4375 L 13.046875 -11.4375 L 17.6875 -23.21875 C 17.734375 -23.28125 17.765625 -23.328125 17.765625 -23.328125 L 17.90625 -23.328125 C 17.90625 -23.328125 17.90625 -23.328125 17.953125 -23.25 L 26.953125 -0.765625 C 27.140625 -0.25 27.5 0.03125 28.015625 0.03125 L 31.890625 0.03125 C 32.484375 0.03125 32.625 -0.328125 32.6875 -0.515625 C 32.765625 -0.71875 32.734375 -1.046875 32.59375 -1.375 Z M 22.375 -26.5625 "/></g></g></g><g fill="#00025d" fill-opacity="1"><g transform="translate(108.603018, 204.043824)"><g><path d="M 29.78125 -29.9375 L 25.75 -29.9375 C 25.421875 -29.9375 25 -29.828125 24.703125 -29.28125 L 16.703125 -14.71875 L 8.796875 -29.25 C 8.5 -29.828125 8.0625 -29.9375 7.734375 -29.9375 L 3.59375 -29.9375 C 3.265625 -29.9375 3.015625 -29.75 2.9375 -29.421875 C 2.875 -29.171875 2.90625 -28.875 3.046875 -28.625 L 13.953125 -9.1875 L 13.953125 -1.234375 C 13.953125 -0.109375 14.671875 0 14.96875 0 L 18.3125 0 C 18.59375 0 19.328125 -0.109375 19.328125 -1.234375 L 19.328125 -9.1875 L 30.328125 -28.625 C 30.484375 -28.875 30.515625 -29.171875 30.4375 -29.46875 C 30.328125 -29.75 30.078125 -29.9375 29.78125 -29.9375 Z M 29.78125 -29.9375 "/></g></g></g><g fill="#00025d" fill-opacity="1"><g transform="translate(143.809223, 204.043824)"><g><path d="M 6.6875 -5.234375 L 4.328125 -5.234375 C 3.53125 -5.234375 2.90625 -4.609375 2.90625 -3.8125 L 2.90625 -1.453125 C 2.90625 -0.6875 3.53125 -0.03125 4.328125 -0.03125 L 6.6875 -0.03125 C 7.453125 -0.03125 8.09375 -0.6875 8.09375 -1.453125 L 8.09375 -3.8125 C 8.09375 -4.609375 7.453125 -5.234375 6.6875 -5.234375 Z M 6.6875 -5.234375 "/></g></g></g><g fill="#00025d" fill-opacity="1"><g transform="translate(156.634596, 204.043824)"><g><path d="M 33.234375 -29.9375 L 29.96875 -29.9375 C 29.46875 -29.9375 29.0625 -29.890625 28.703125 -29.78125 C 28.328125 -29.6875 28.015625 -29.5 27.71875 -29.25 C 27.46875 -28.953125 27.203125 -28.625 26.984375 -28.1875 C 26.78125 -27.75 26.59375 -27.203125 26.375 -26.515625 L 19.9375 -10.46875 C 19.90625 -10.3125 19.875 -10.3125 19.828125 -10.3125 L 19.46875 -10.3125 C 19.46875 -10.3125 19.40625 -10.3125 19.359375 -10.46875 L 12.96875 -26.515625 C 12.75 -27.203125 12.53125 -27.75 12.34375 -28.1875 C 12.140625 -28.625 11.875 -28.953125 11.625 -29.25 C 11.328125 -29.5 10.96875 -29.6875 10.609375 -29.78125 C 10.25 -29.890625 9.8125 -29.9375 9.34375 -29.9375 L 6 -29.9375 C 4.765625 -29.9375 3.921875 -29.53125 3.484375 -28.765625 C 3.09375 -28.078125 2.90625 -26.921875 2.90625 -25.25 L 2.90625 -1.234375 C 2.90625 -0.109375 3.625 0.03125 3.953125 0.03125 L 7.078125 0.03125 C 7.40625 0.03125 8.09375 -0.109375 8.09375 -1.234375 L 8.09375 -23.0625 C 8.09375 -23.109375 8.09375 -23.140625 8.09375 -23.140625 L 8.28125 -23.140625 C 8.3125 -23.140625 8.359375 -23.140625 8.390625 -23.03125 L 14.609375 -7.671875 C 14.859375 -6.90625 15.109375 -6.25 15.359375 -5.703125 C 15.65625 -5.15625 15.953125 -4.71875 16.234375 -4.359375 C 16.609375 -4 16.96875 -3.703125 17.40625 -3.5625 C 17.84375 -3.421875 18.3125 -3.34375 18.859375 -3.34375 L 20.34375 -3.34375 C 20.890625 -3.34375 21.390625 -3.421875 21.796875 -3.5625 C 22.234375 -3.703125 22.625 -4 22.953125 -4.359375 C 23.25 -4.71875 23.578125 -5.15625 23.828125 -5.703125 C 24.078125 -6.25 24.34375 -6.90625 24.59375 -7.671875 L 30.84375 -23.0625 C 30.84375 -23.140625 30.875 -23.140625 30.921875 -23.140625 L 31.09375 -23.140625 C 31.09375 -23.140625 31.09375 -23.109375 31.09375 -23.0625 L 31.09375 -1.234375 C 31.09375 -0.109375 31.828125 0.03125 32.109375 0.03125 L 35.234375 0.03125 C 35.5625 0.03125 36.296875 -0.109375 36.296875 -1.234375 L 36.296875 -25.25 C 36.296875 -26.921875 36.109375 -28.078125 35.703125 -28.765625 C 35.28125 -29.53125 34.4375 -29.9375 33.234375 -29.9375 Z M 33.234375 -29.9375 "/></g></g></g><g fill="#00025d" fill-opacity="1"><g transform="translate(197.654004, 204.043824)"><g><path d="M 24.734375 -6.5 L 11.953125 -6.5 C 11.1875 -6.5 10.578125 -6.609375 10.0625 -6.75 C 9.59375 -6.9375 9.265625 -7.1875 8.96875 -7.5625 C 8.6875 -7.953125 8.46875 -8.5 8.359375 -9.1875 C 8.3125 -9.375 8.3125 -9.625 8.28125 -9.8125 C 8.28125 -9.8125 8.3125 -12.421875 8.359375 -12.421875 L 24.59375 -12.421875 C 24.890625 -12.421875 25.609375 -12.5625 25.609375 -13.703125 L 25.609375 -16.5625 C 25.609375 -17.6875 24.890625 -17.796875 24.59375 -17.796875 L 5.84375 -17.765625 C 4.796875 -17.6875 3.890625 -17.140625 3.375 -16.234375 C 3.203125 -15.953125 3.046875 -15.65625 2.984375 -15.328125 L 2.90625 -10.75 L 2.90625 -10.578125 C 2.9375 -8.859375 3.125 -7.40625 3.375 -6.21875 C 3.703125 -4.765625 4.25 -3.5625 4.9375 -2.65625 C 5.671875 -1.703125 6.609375 -1.046875 7.78125 -0.65625 C 8.90625 -0.21875 10.25 -0.03125 11.84375 -0.03125 L 24.734375 -0.03125 C 25.0625 -0.03125 25.796875 -0.140625 25.796875 -1.265625 L 25.796875 -5.265625 C 25.796875 -6.390625 25.0625 -6.5 24.734375 -6.5 Z M 24.78125 -30 L 3.890625 -30 C 3.59375 -30 2.90625 -29.859375 2.90625 -28.703125 L 2.90625 -25.859375 C 2.90625 -24.734375 3.59375 -24.625 3.890625 -24.625 L 24.78125 -24.59375 C 25.0625 -24.59375 25.796875 -24.734375 25.796875 -25.859375 L 25.796875 -28.734375 C 25.796875 -29.859375 25.0625 -30 24.78125 -30 Z M 24.78125 -30 "/></g></g></g><g fill="#00025d" fill-opacity="1"><g transform="translate(228.173318, 204.043824)"><g><path d="M 28.015625 -29.9375 L 3.953125 -29.9375 C 3.625 -29.9375 2.90625 -29.828125 2.90625 -28.703125 L 2.90625 -25.859375 C 2.90625 -24.671875 3.625 -24.5625 3.953125 -24.5625 L 13.296875 -24.5625 L 13.296875 -1.234375 C 13.296875 -0.109375 14.015625 0 14.3125 0 L 17.65625 0 C 17.984375 0 18.671875 -0.109375 18.671875 -1.234375 L 18.671875 -24.5625 L 28.015625 -24.5625 C 28.328125 -24.5625 29.0625 -24.671875 29.0625 -25.859375 L 29.0625 -28.703125 C 29.0625 -29.828125 28.328125 -29.9375 28.015625 -29.9375 Z M 28.015625 -29.9375 "/></g></g></g><g fill="#00025d" fill-opacity="1"><g transform="translate(261.962546, 204.043824)"><g><path d="M 27.6875 -21.25 C 27.6875 -21.21875 27.6875 -21.171875 27.6875 -21.140625 C 27.6875 -21.109375 27.6875 -21.0625 27.6875 -21.03125 Z M 28.375 -1.5625 L 22.015625 -12.453125 C 23.796875 -12.671875 25.171875 -13.4375 26.078125 -14.671875 C 27.09375 -16.171875 27.640625 -18.3125 27.6875 -21.140625 C 27.640625 -23.96875 27.09375 -26.125 26.078125 -27.609375 C 25 -29.171875 23.171875 -29.9375 20.703125 -29.9375 L 3.953125 -29.9375 C 3.625 -29.9375 2.90625 -29.828125 2.90625 -28.65625 L 2.90625 -25.796875 C 2.90625 -24.671875 3.625 -24.5625 3.953125 -24.5625 L 19.765625 -24.5625 C 20.703125 -24.5625 21.328125 -24.296875 21.6875 -23.765625 C 22.09375 -23.21875 22.265625 -22.34375 22.265625 -21.140625 C 22.265625 -19.9375 22.09375 -19.078125 21.6875 -18.53125 C 21.328125 -17.984375 20.703125 -17.734375 19.765625 -17.734375 L 3.953125 -17.734375 C 3.625 -17.734375 2.90625 -17.625 2.90625 -16.5 L 2.90625 -1.234375 C 2.90625 -0.109375 3.625 0.03125 3.953125 0.03125 L 7.265625 0.03125 C 7.59375 0.03125 8.28125 -0.109375 8.28125 -1.234375 L 8.28125 -12.34375 L 15.953125 -12.34375 L 22.515625 -0.6875 C 22.671875 -0.46875 22.78125 -0.296875 22.921875 -0.1875 C 23.109375 -0.03125 23.359375 0.03125 23.6875 0.03125 L 27.6875 0.03125 C 28.125 0.03125 28.4375 -0.25 28.515625 -0.6875 C 28.546875 -1.046875 28.515625 -1.34375 28.375 -1.5625 Z M 28.375 -1.5625 "/></g></g></g><g fill="#00025d" fill-opacity="1"><g transform="translate(295.243127, 204.043824)"><g><path d="M 7.265625 -29.9375 L 3.921875 -29.9375 C 3.625 -29.9375 2.90625 -29.78125 2.90625 -28.65625 L 2.90625 -1.234375 C 2.90625 -0.109375 3.625 0.03125 3.921875 0.03125 L 7.265625 0.03125 C 7.5625 0.03125 8.28125 -0.109375 8.28125 -1.234375 L 8.28125 -28.65625 C 8.28125 -29.78125 7.5625 -29.9375 7.265625 -29.9375 Z M 7.265625 -29.9375 "/></g></g></g><g fill="#00025d" fill-opacity="1"><g transform="translate(308.25015, 204.043824)"><g><path d="M 25.109375 -29.9375 L 11.875 -29.9375 C 10.28125 -29.9375 8.90625 -29.71875 7.78125 -29.3125 C 6.609375 -28.875 5.671875 -28.1875 4.984375 -27.28125 C 4.25 -26.375 3.703125 -25.171875 3.375 -23.71875 C 3.046875 -22.3125 2.90625 -20.5625 2.90625 -18.5625 L 2.90625 -11.375 C 2.90625 -9.34375 3.046875 -7.59375 3.375 -6.140625 C 3.703125 -4.71875 4.25 -3.53125 4.984375 -2.578125 C 5.703125 -1.671875 6.640625 -0.984375 7.78125 -0.578125 C 8.90625 -0.1875 10.28125 0.03125 11.875 0.03125 L 25.109375 0.03125 C 25.390625 0.03125 26.125 -0.109375 26.125 -1.234375 L 26.125 -4.109375 C 26.125 -5.234375 25.390625 -5.375 25.109375 -5.375 L 12.0625 -5.375 C 11.296875 -5.375 10.640625 -5.453125 10.171875 -5.625 C 9.703125 -5.78125 9.375 -6.03125 9.078125 -6.4375 C 8.796875 -6.796875 8.609375 -7.34375 8.46875 -8.03125 C 8.359375 -8.75 8.28125 -9.65625 8.28125 -10.75 L 8.28125 -19.21875 C 8.28125 -20.3125 8.359375 -21.21875 8.46875 -21.90625 C 8.609375 -22.59375 8.796875 -23.109375 9.078125 -23.5 C 9.375 -23.90625 9.703125 -24.15625 10.171875 -24.296875 C 10.640625 -24.484375 11.296875 -24.5625 12.0625 -24.5625 L 25.109375 -24.5625 C 25.390625 -24.5625 26.125 -24.703125 26.125 -25.859375 L 26.125 -28.65625 C 26.125 -29.78125 25.390625 -29.9375 25.109375 -29.9375 Z M 25.109375 -29.9375 "/></g></g></g><g fill="#00025d" fill-opacity="1"><g transform="translate(339.096462, 204.043824)"><g><path d="M 20.453125 -17.875 L 9.546875 -17.875 C 9.015625 -17.875 8.3125 -18.09375 8.3125 -19.875 L 8.3125 -22.5625 C 8.3125 -23.21875 8.421875 -23.71875 8.609375 -24.078125 C 8.75 -24.296875 8.96875 -24.5625 9.59375 -24.5625 L 24.375 -24.5625 C 24.671875 -24.5625 25.390625 -24.671875 25.390625 -25.796875 L 25.390625 -28.703125 C 25.390625 -29.828125 24.671875 -29.9375 24.375 -29.9375 L 8.71875 -29.9375 C 6.71875 -29.9375 5.265625 -29.28125 4.328125 -27.9375 C 3.375 -26.625 2.90625 -24.890625 2.90625 -22.78125 L 2.90625 -20.015625 C 2.90625 -17.515625 3.421875 -15.46875 4.328125 -14.203125 C 5.453125 -12.71875 7.125 -12.5 8.640625 -12.5 L 19.546875 -12.5 C 20.09375 -12.5 20.8125 -12.28125 20.8125 -10.5 L 20.8125 -7.375 C 20.8125 -6.71875 20.703125 -6.21875 20.484375 -5.84375 C 20.34375 -5.625 20.125 -5.375 19.515625 -5.375 L 4 -5.375 C 3.671875 -5.375 2.9375 -5.265625 2.9375 -4.140625 L 2.9375 -1.234375 C 2.9375 -0.109375 3.671875 0 4 0 L 20.375 0 C 22.375 0 23.875 -0.6875 24.8125 -2.03125 C 25.71875 -3.34375 26.1875 -5.046875 26.1875 -7.15625 L 26.1875 -10.359375 C 26.1875 -12.71875 25.71875 -14.5625 24.78125 -15.875 C 23.796875 -17.1875 22.34375 -17.875 20.453125 -17.875 Z M 20.453125 -17.875 "/></g></g></g></svg>