<svg xmlns="http://www.w3.org/2000/svg" xmlns:xlink="http://www.w3.org/1999/xlink" width="500" zoomAndPan="magnify" viewBox="0 0 375 374.999991" height="500" preserveAspectRatio="xMidYMid meet" version="1.0"><defs><g/><clipPath id="4e9884bb9f"><path d="M 86 92.160156 L 299.621094 92.160156 L 299.621094 375 L 86 375 Z M 86 92.160156 " clip-rule="nonzero"/></clipPath><clipPath id="02759be193"><path d="M 118.230469 212.828125 L 150 212.828125 L 150 243.078125 L 118.230469 243.078125 Z M 118.230469 212.828125 " clip-rule="nonzero"/></clipPath><clipPath id="67aa5914bb"><path d="M 134.097656 212.828125 L 137.84375 224.382812 L 149.96875 224.382812 L 140.160156 231.523438 L 143.90625 243.078125 L 134.097656 235.9375 L 124.289062 243.078125 L 128.035156 231.523438 L 118.230469 224.382812 L 130.351562 224.382812 Z M 134.097656 212.828125 " clip-rule="nonzero"/></clipPath><clipPath id="8a7993e063"><path d="M 239.464844 212.828125 L 271.253906 212.828125 L 271.253906 243.078125 L 239.464844 243.078125 Z M 239.464844 212.828125 " clip-rule="nonzero"/></clipPath><clipPath id="899363177c"><path d="M 255.335938 212.828125 L 259.082031 224.382812 L 271.203125 224.382812 L 261.398438 231.523438 L 265.144531 243.078125 L 255.335938 235.9375 L 245.527344 243.078125 L 249.273438 231.523438 L 239.464844 224.382812 L 251.589844 224.382812 Z M 255.335938 212.828125 " clip-rule="nonzero"/></clipPath></defs><path fill="#00025d" d="M 193.988281 97.859375 C 164.695312 97.710938 135.160156 103.199219 105.699219 114.761719 L 97.402344 118.015625 L 97.402344 282.679688 C 97.402344 293.363281 102.167969 301.84375 108.261719 310.9375 C 114.351562 320.035156 122.40625 329.265625 131.484375 337.8125 C 149.644531 354.910156 170.550781 370.421875 193.324219 370.421875 C 216.09375 370.421875 237 354.910156 255.164062 337.8125 C 264.242188 329.261719 272.296875 320.035156 278.386719 310.9375 C 284.476562 301.839844 289.246094 293.363281 289.246094 282.679688 L 289.246094 117.949219 L 280.867188 114.730469 C 252.339844 103.773438 223.28125 98.003906 193.988281 97.859375 Z M 193.898438 123.816406 C 217.027344 123.9375 240.023438 128.136719 263.109375 136.097656 L 263.109375 282.679688 C 263.109375 283.042969 261.339844 289.417969 256.667969 296.398438 C 251.996094 303.371094 245.058594 311.429688 237.242188 318.789062 C 221.609375 333.507812 201.085938 344.292969 193.324219 344.292969 C 185.554688 344.292969 165.035156 333.511719 149.40625 318.789062 C 141.589844 311.429688 134.652344 303.378906 129.980469 296.398438 C 125.308594 289.421875 123.539062 283.042969 123.539062 282.679688 L 123.539062 136.042969 C 147.289062 127.703125 170.664062 123.699219 193.898438 123.816406 Z M 193.898438 123.816406 " fill-opacity="1" fill-rule="nonzero"/><path fill="#ffffff" d="M 193.972656 102.183594 C 165.238281 102.042969 136.28125 107.4375 107.285156 118.816406 L 101.757812 120.984375 L 101.757812 282.679688 C 101.757812 291.640625 106.027344 299.773438 111.882812 308.511719 C 117.738281 317.257812 125.605469 326.292969 134.476562 334.640625 C 152.214844 351.34375 173.058594 366.0625 193.324219 366.0625 C 213.59375 366.0625 234.433594 351.34375 252.171875 334.640625 C 261.042969 326.289062 268.910156 317.253906 274.765625 308.511719 C 280.621094 299.769531 284.890625 291.640625 284.890625 282.679688 L 284.890625 120.941406 L 279.300781 118.796875 C 251.214844 108.007812 222.703125 102.328125 193.972656 102.183594 Z M 193.914062 119.488281 C 218.53125 119.613281 242.992188 124.269531 267.46875 133.039062 L 267.46875 282.679688 C 267.46875 284.765625 265.199219 291.488281 260.289062 298.820312 C 255.378906 306.152344 248.257812 314.402344 240.234375 321.957031 C 224.179688 337.070312 203.597656 348.648438 193.324219 348.648438 C 183.058594 348.648438 162.46875 337.074219 146.414062 321.957031 C 138.390625 314.398438 131.269531 306.148438 126.359375 298.820312 C 121.453125 291.488281 119.179688 284.765625 119.179688 282.679688 L 119.179688 133.003906 C 144.371094 123.804688 169.230469 119.363281 193.914062 119.488281 Z M 193.914062 119.488281 " fill-opacity="1" fill-rule="nonzero"/><path fill="#00025d" d="M 193.960938 106.507812 C 165.785156 106.371094 137.390625 111.683594 108.875 122.875 L 106.113281 123.960938 L 106.113281 282.679688 C 106.113281 289.921875 109.878906 297.703125 115.5 306.089844 C 121.117188 314.476562 128.792969 323.320312 137.453125 331.472656 C 154.773438 347.777344 175.550781 361.714844 193.320312 361.714844 C 211.085938 361.714844 231.867188 347.777344 249.183594 331.472656 C 257.84375 323.320312 265.519531 314.484375 271.140625 306.089844 C 276.757812 297.703125 280.523438 289.921875 280.523438 282.679688 L 280.523438 123.929688 L 277.734375 122.859375 C 250.085938 112.242188 222.128906 106.652344 193.960938 106.507812 Z M 193.925781 115.164062 C 220.035156 115.292969 245.964844 120.390625 271.820312 129.984375 L 271.820312 282.679688 C 271.820312 286.484375 269.050781 293.558594 263.902344 301.242188 C 258.757812 308.929688 251.453125 317.371094 243.210938 325.128906 C 226.738281 340.640625 206.085938 353 193.320312 353 C 180.550781 353 159.898438 340.640625 143.425781 325.128906 C 135.183594 317.371094 127.882812 308.929688 122.734375 301.242188 C 117.585938 293.558594 114.816406 286.484375 114.816406 282.679688 L 114.816406 129.96875 C 141.449219 119.878906 167.78125 115.03125 193.925781 115.164062 Z M 193.925781 115.164062 " fill-opacity="1" fill-rule="nonzero"/><path fill="#5271ff" d="M 110.46875 126.925781 L 110.46875 282.679688 C 110.46875 304.769531 162.789062 357.359375 193.324219 357.359375 C 223.859375 357.359375 276.179688 304.769531 276.179688 282.679688 L 276.179688 126.925781 C 221.746094 106.027344 166.550781 104.917969 110.46875 126.925781 Z M 110.46875 126.925781 " fill-opacity="1" fill-rule="nonzero"/><g clip-path="url(#4e9884bb9f)"><path fill="#ffffff" d="M 177.832031 92.289062 C 171.539062 92.277344 166.886719 95.089844 163.117188 98.957031 C 160.386719 101.757812 159.699219 104.824219 159.859375 107.066406 C 160.019531 109.3125 160.972656 110.902344 160.972656 110.902344 L 160.847656 110.652344 C 160.847656 110.652344 161.878906 113.125 162.992188 115.855469 C 164.105469 118.578125 165.335938 121.707031 165.5625 122.433594 C 165.886719 123.460938 166.839844 126.457031 168.128906 129.621094 C 169.421875 132.789062 170.886719 136.0625 172.960938 138.0625 C 174.699219 139.730469 176.746094 140.257812 178.550781 140.347656 C 178.570312 140.660156 178.664062 140.960938 178.832031 141.222656 C 178.832031 141.222656 181.027344 144.734375 181.902344 151.585938 C 181.789062 151.953125 181.191406 153.855469 180.515625 156.691406 C 179.777344 159.789062 179.027344 163.457031 179.175781 166.351562 C 179.371094 170.085938 176.820312 180.242188 182.15625 188.578125 C 181.113281 189.042969 180.390625 189.367188 178.46875 190.207031 C 175.492188 191.507812 172.039062 192.949219 171.429688 193.136719 C 171.40625 193.140625 170.609375 193.25 169.675781 193.234375 C 168.746094 193.214844 167.609375 193.140625 166.476562 193.074219 C 165.339844 193.007812 164.210938 192.933594 163.21875 192.933594 C 162.226562 192.933594 161.539062 192.722656 160.335938 193.449219 C 159.585938 193.898438 159.183594 194.425781 158.730469 195.03125 C 158.277344 195.640625 157.84375 196.324219 157.46875 197.03125 C 157.089844 197.734375 156.765625 198.441406 156.539062 199.136719 C 156.3125 199.828125 155.949219 200.394531 156.410156 201.613281 C 156.714844 202.425781 157.140625 203.015625 157.503906 203.429688 C 157.527344 203.769531 157.527344 203.9375 157.617188 204.53125 C 157.777344 205.546875 157.914062 206.714844 158.820312 207.886719 C 159.734375 209.058594 160.914062 209.464844 162.027344 209.734375 C 162.582031 209.871094 163.128906 209.945312 163.683594 209.933594 C 164.242188 209.921875 164.835938 209.953125 165.609375 209.332031 C 165.082031 209.757812 165.226562 209.542969 165.402344 209.496094 C 165.585938 209.453125 165.890625 209.390625 166.265625 209.316406 C 166.980469 209.179688 167.964844 208.996094 168.988281 208.75 C 168.132812 209.867188 167.816406 210.496094 167.589844 210.917969 C 166.851562 211.21875 164.507812 212.203125 161.765625 214.121094 C 158.566406 216.363281 154.996094 219.796875 155.15625 224.53125 C 155.300781 228.929688 157.664062 234.292969 159.90625 238.824219 C 161.574219 242.195312 162.914062 244.496094 163.648438 245.738281 C 162.941406 246.507812 161.300781 248.273438 158.910156 251.03125 C 157.480469 252.683594 156.046875 254.398438 154.921875 255.863281 C 154.359375 256.59375 153.878906 257.261719 153.496094 257.863281 C 153.117188 258.464844 152.78125 258.828125 152.65625 259.8125 C 152.46875 261.304688 152.679688 263.160156 152.875 264.902344 C 153.019531 266.234375 153.125 266.894531 153.195312 267.371094 C 152.851562 267.847656 151.738281 269.355469 150.171875 271.769531 C 148.382812 274.527344 146.460938 277.550781 145.855469 280.097656 C 145.046875 283.480469 143.117188 286.878906 135.820312 303.980469 C 128.625 320.832031 123.566406 334.351562 112.269531 344.59375 C 111.890625 344.5625 111.792969 344.507812 111.238281 344.539062 C 110.679688 344.566406 110.054688 344.632812 109.378906 344.90625 C 108.707031 345.179688 107.882812 345.757812 107.519531 346.722656 C 107.484375 346.8125 107.121094 347.585938 106.605469 348.480469 C 106.09375 349.378906 105.410156 350.492188 104.621094 351.625 C 103.042969 353.90625 100.980469 356.308594 99.359375 357.367188 C 97.804688 358.386719 95.414062 358.792969 93.265625 359.003906 C 92.1875 359.105469 91.1875 359.164062 90.277344 359.308594 C 89.824219 359.382812 89.394531 359.464844 88.917969 359.667969 C 88.441406 359.871094 87.769531 360.261719 87.441406 361.097656 C 87.425781 361.148438 86.050781 363.539062 87.003906 366.046875 C 87.957031 368.554688 90.609375 370.949219 96.59375 373.621094 C 102.691406 376.339844 107.542969 376.414062 111.007812 375.5 C 114.476562 374.585938 116.457031 372.828125 117.261719 371.886719 C 117.800781 371.253906 118.460938 370.511719 119.160156 370.023438 C 119.855469 369.535156 120.429688 369.332031 121.167969 369.480469 C 122.726562 369.792969 125.578125 370.09375 128.460938 370.070312 C 129.902344 370.058594 131.332031 369.960938 132.632812 369.699219 C 133.925781 369.441406 135.167969 369.097656 136.125 367.953125 C 137.007812 366.890625 137.363281 365.6875 137.824219 364.132812 C 138.277344 362.578125 138.679688 360.761719 138.980469 358.945312 C 139.28125 357.128906 139.480469 355.34375 139.515625 353.816406 C 139.53125 353.050781 139.503906 352.351562 139.40625 351.699219 C 139.304688 351.046875 139.226562 350.410156 138.582031 349.691406 C 137.949219 348.976562 137.359375 348.480469 136.8125 348.027344 C 137.425781 347.011719 139.128906 344.152344 142.191406 339.515625 C 145.746094 334.128906 150.207031 327.835938 153.464844 324.5 C 157.394531 320.464844 159.796875 313.96875 161.710938 307.769531 C 163.628906 301.574219 165.058594 295.507812 166.097656 293.207031 C 166.964844 291.289062 170.476562 288.351562 173.792969 286.261719 C 175.441406 285.21875 177.027344 284.34375 178.195312 283.726562 C 178.558594 284.847656 178.875 285.738281 179.511719 288.027344 C 179.984375 289.71875 180.429688 291.511719 180.726562 293.039062 C 181.019531 294.566406 181.09375 295.925781 181.042969 296.238281 C 180.851562 297.476562 180.210938 298.542969 179.433594 299.683594 C 178.65625 300.824219 177.628906 302.003906 177.472656 303.84375 C 177.40625 304.648438 176.871094 308.429688 176.027344 311.964844 C 175.605469 313.734375 175.101562 315.476562 174.574219 316.804688 C 174.046875 318.132812 173.316406 318.976562 173.367188 318.949219 C 171.816406 319.921875 170.160156 321.1875 168.957031 322.910156 C 167.753906 324.636719 167.0625 326.96875 167.757812 329.402344 C 168.132812 330.714844 169.210938 331.359375 170.1875 331.734375 C 171.164062 332.109375 172.246094 332.296875 173.472656 332.417969 C 175.925781 332.648438 178.933594 332.550781 181.984375 332.269531 C 185.042969 331.984375 188.132812 331.519531 190.675781 330.964844 C 191.945312 330.683594 193.082031 330.390625 194.035156 330.066406 C 194.988281 329.742188 195.730469 329.488281 196.46875 328.851562 C 198.648438 326.984375 198.875 324.183594 199.375 321.832031 C 199.625 320.65625 199.878906 319.578125 200.167969 318.84375 C 200.464844 318.105469 200.746094 317.847656 200.832031 317.804688 C 202.394531 317.058594 204.214844 316.003906 205.808594 314.703125 C 207.402344 313.410156 208.878906 311.90625 209.277344 309.800781 C 209.429688 308.988281 209.328125 308.382812 209.195312 307.617188 C 209.066406 306.855469 208.863281 305.992188 208.605469 305.050781 C 208.089844 303.167969 207.351562 300.953125 206.550781 298.78125 C 205.753906 296.609375 204.894531 294.480469 204.117188 292.769531 C 203.730469 291.921875 203.367188 291.171875 203.027344 290.558594 C 202.6875 289.941406 202.5 289.515625 201.90625 288.96875 C 200.820312 287.976562 199.882812 287.351562 199.210938 286.9375 L 196.644531 270.882812 L 197.949219 270.03125 C 198.265625 270.089844 198.296875 270.132812 198.785156 270.164062 C 199.863281 270.21875 201.378906 270.15625 203.265625 269.714844 C 206.945312 268.851562 212.023438 266.507812 218.039062 261.054688 C 219.703125 260.855469 232.792969 259.023438 238.144531 248.046875 C 241.023438 242.15625 241.386719 233.753906 241.175781 226.304688 C 240.964844 218.867188 240.0625 212.214844 239.960938 210.988281 C 239.847656 209.632812 239.9375 208.617188 239.9375 207.453125 C 239.9375 206.292969 239.808594 204.964844 239.195312 203.511719 C 238.160156 201.054688 235.699219 195.101562 236.417969 190.980469 C 236.9375 188.039062 237.265625 180.914062 236.980469 172.222656 C 236.71875 164.359375 235.875 155.460938 234.042969 147.8125 C 235.523438 147.863281 237.226562 147.953125 240.890625 147.941406 C 245.863281 147.925781 251.289062 147.820312 254.511719 146.800781 C 256.554688 146.152344 259.347656 146.375 262.242188 146.847656 C 265.136719 147.324219 268.058594 148.039062 270.769531 147.890625 C 273.390625 147.742188 277.890625 146.8125 282.273438 145.609375 C 284.464844 145.007812 286.585938 144.335938 288.367188 143.644531 C 290.148438 142.953125 291.535156 142.386719 292.601562 141.3125 C 293.414062 140.5 294.761719 139.949219 296.082031 139.40625 C 296.738281 139.132812 297.386719 138.902344 298.070312 138.324219 C 298.414062 138.03125 298.789062 137.613281 298.984375 137.015625 C 299.183594 136.425781 299.140625 135.734375 298.953125 135.210938 C 298.664062 134.394531 298.167969 133.085938 296.890625 132.257812 C 297.679688 131.539062 298.25 130.730469 298.492188 129.820312 C 298.808594 128.636719 298.492188 127.351562 297.714844 126.457031 C 298.300781 126.128906 298.808594 125.71875 299.21875 125.195312 C 299.660156 124.625 299.984375 123.886719 299.980469 123.058594 C 299.972656 122.226562 299.585938 121.386719 299.015625 120.808594 C 297.414062 119.210938 295.019531 118.597656 292.699219 119.15625 C 293.617188 117.933594 294.582031 116.667969 295.261719 115.644531 C 295.738281 114.929688 296.132812 114.304688 296.421875 113.726562 C 296.5625 113.4375 296.6875 113.171875 296.785156 112.78125 C 296.828125 112.582031 296.878906 112.347656 296.839844 111.984375 C 296.800781 111.621094 296.621094 111.054688 296.148438 110.652344 C 295.9375 110.46875 294.292969 108.828125 292 109.078125 C 289.707031 109.328125 287.347656 111.027344 284.371094 115.117188 C 281.105469 119.617188 278.023438 122.640625 275.671875 124.742188 C 275.65625 123.835938 275.628906 122.910156 275.472656 122.0625 C 275.390625 121.585938 275.289062 121.132812 275.050781 120.644531 C 274.816406 120.152344 274.378906 119.453125 273.425781 119.199219 C 271.695312 118.726562 270.265625 119.550781 269.117188 120.703125 C 267.972656 121.847656 267.085938 123.550781 266.929688 125.632812 C 266.832031 126.914062 266.886719 127.460938 266.917969 128.066406 C 266.503906 127.9375 266.070312 127.808594 265.238281 127.398438 C 264.097656 126.847656 262.699219 126.097656 260.902344 126.3125 C 258.601562 126.585938 252.722656 127.527344 246.664062 126.695312 C 242.0625 126.066406 239.410156 126.34375 237.808594 126.609375 C 237.652344 126.1875 237.632812 126.109375 237.414062 125.582031 C 237.144531 124.945312 236.863281 124.292969 236.550781 123.714844 C 236.398438 123.425781 236.242188 123.152344 236.046875 122.882812 C 235.851562 122.609375 235.703125 122.300781 235.039062 121.972656 C 234.488281 121.699219 234.472656 121.769531 234.246094 121.722656 C 234.019531 121.679688 233.757812 121.632812 233.441406 121.582031 C 232.808594 121.484375 231.980469 121.378906 230.996094 121.28125 C 229.019531 121.085938 226.414062 120.921875 223.621094 120.957031 C 218.042969 121.019531 211.699219 121.585938 208.003906 125.195312 C 205.03125 128.109375 202.757812 130.695312 201.15625 131.546875 C 200.355469 131.972656 199.882812 132.046875 199.210938 131.847656 C 198.761719 131.714844 198.125 131.28125 197.40625 130.660156 C 199.804688 127.375 200.695312 123.097656 200.910156 118.960938 C 201.160156 114.1875 200.480469 109.539062 199.675781 106.445312 C 198.875 103.371094 197.625 100.652344 195.253906 98.457031 C 192.882812 96.265625 189.539062 94.664062 184.671875 93.296875 C 182.207031 92.609375 179.925781 92.292969 177.832031 92.289062 Z M 177.769531 95.925781 C 179.511719 95.96875 181.457031 96.277344 183.6875 96.902344 C 188.25 98.179688 191.003906 99.589844 192.746094 101.203125 C 194.492188 102.8125 195.378906 104.679688 196.089844 107.386719 C 196.792969 110.078125 197.433594 114.480469 197.207031 118.765625 C 196.984375 123.046875 195.859375 127.125 193.539062 129.503906 C 192.851562 130.203125 192.824219 131.3125 193.476562 132.046875 C 195.027344 133.800781 196.523438 134.953125 198.1875 135.433594 C 199.851562 135.921875 201.554688 135.582031 202.9375 134.84375 C 205.710938 133.367188 207.828125 130.617188 210.636719 127.871094 C 212.734375 125.820312 218.453125 124.753906 223.683594 124.691406 C 226.300781 124.664062 228.785156 124.816406 230.648438 124.996094 C 231.578125 125.089844 232.351562 125.191406 232.890625 125.269531 C 233.019531 125.292969 233.082031 125.304688 233.183594 125.320312 C 233.21875 125.378906 233.230469 125.394531 233.269531 125.464844 C 233.480469 125.859375 233.742188 126.4375 233.980469 127.019531 C 234.457031 128.167969 234.851562 129.292969 234.851562 129.292969 C 235.183594 130.230469 236.191406 130.746094 237.144531 130.460938 C 237.144531 130.460938 240.035156 129.554688 246.167969 130.394531 C 252.929688 131.324219 259.375 130.253906 261.351562 130.019531 C 261.691406 129.980469 262.554688 130.242188 263.613281 130.757812 C 264.675781 131.273438 265.851562 132.046875 267.542969 132.046875 C 268.199219 132.046875 268.976562 131.988281 269.699219 131.375 C 270.417969 130.761719 270.605469 129.882812 270.644531 129.328125 C 270.71875 128.222656 270.546875 127.371094 270.664062 125.917969 C 270.753906 124.730469 271.253906 123.855469 271.769531 123.335938 C 271.804688 123.300781 271.820312 123.3125 271.847656 123.285156 C 271.910156 123.828125 271.96875 124.414062 271.972656 125.109375 C 271.988281 126.933594 271.835938 128.761719 271.835938 128.761719 C 271.75 129.789062 272.511719 130.691406 273.546875 130.773438 C 274 130.8125 274.453125 130.683594 274.820312 130.40625 C 274.820312 130.40625 281.570312 125.355469 287.410156 117.3125 C 290.09375 113.613281 291.820312 112.859375 292.414062 112.789062 C 292.515625 112.78125 292.550781 112.824219 292.625 112.824219 C 292.472656 113.082031 292.386719 113.246094 292.175781 113.566406 C 291.308594 114.867188 290.019531 116.605469 288.707031 118.316406 C 286.074219 121.738281 283.324219 125.089844 283.324219 125.089844 C 282.671875 125.882812 282.785156 127.0625 283.578125 127.714844 C 284.242188 128.261719 285.191406 128.285156 285.875 127.773438 C 285.875 127.773438 287.460938 126.59375 289.246094 125.359375 C 290.144531 124.742188 291.085938 124.113281 291.886719 123.625 C 292.6875 123.136719 293.46875 122.785156 293.445312 122.789062 C 294.332031 122.535156 295.230469 122.789062 295.886719 123.183594 C 295.632812 123.324219 295.285156 123.476562 294.796875 123.550781 C 292.703125 123.863281 291.039062 125.167969 289.535156 126.320312 C 288.039062 127.472656 286.875 128.566406 286.875 128.566406 C 286.125 129.277344 286.09375 130.457031 286.800781 131.207031 C 287.425781 131.863281 288.4375 131.976562 289.191406 131.476562 C 290.957031 130.296875 292.523438 129.566406 293.640625 129.230469 C 294.144531 129.078125 294.503906 129.070312 294.757812 129.066406 C 294.617188 129.316406 294.328125 129.703125 293.453125 130.15625 C 291.828125 131 290.808594 131.871094 290.179688 132.613281 C 289.859375 132.980469 289.644531 133.324219 289.503906 133.59375 C 289.355469 133.875 289.246094 134.214844 289.246094 134.214844 C 288.976562 135.207031 289.566406 136.234375 290.558594 136.507812 C 291.035156 136.636719 291.539062 136.574219 291.972656 136.332031 C 294.078125 135.132812 294.832031 135.308594 294.878906 135.324219 C 294.894531 135.332031 295.03125 135.65625 295.09375 135.75 C 294.921875 135.835938 294.921875 135.847656 294.679688 135.949219 C 293.480469 136.445312 291.5625 137.089844 289.984375 138.667969 C 289.859375 138.792969 288.636719 139.542969 287.035156 140.167969 C 285.433594 140.789062 283.402344 141.433594 281.304688 142.011719 C 277.101562 143.164062 272.484375 144.058594 270.582031 144.160156 C 268.765625 144.265625 265.90625 143.664062 262.863281 143.164062 C 259.816406 142.664062 256.515625 142.253906 253.398438 143.242188 C 251.46875 143.855469 245.765625 144.191406 240.898438 144.207031 C 236.027344 144.222656 231.792969 144.035156 231.792969 144.035156 C 230.761719 143.992188 229.894531 144.792969 229.847656 145.820312 C 229.835938 146.015625 229.859375 146.214844 229.917969 146.402344 C 232.042969 154.003906 232.992188 163.84375 233.277344 172.347656 C 233.554688 180.855469 233.132812 188.246094 232.769531 190.339844 C 231.730469 196.273438 234.800781 202.640625 235.777344 204.964844 C 236.171875 205.898438 236.226562 206.519531 236.226562 207.460938 C 236.226562 208.402344 236.125 209.644531 236.265625 211.308594 C 236.414062 213.101562 237.269531 219.210938 237.46875 226.421875 C 237.667969 233.628906 237.09375 241.746094 234.8125 246.417969 C 230.21875 255.839844 217.058594 257.449219 217.058594 257.449219 C 216.660156 257.496094 216.28125 257.667969 215.984375 257.9375 C 210.144531 263.351562 205.507812 265.367188 202.433594 266.085938 C 200.894531 266.445312 199.742188 266.484375 199.003906 266.445312 C 198.265625 266.40625 198.074219 266.324219 198.074219 266.324219 C 197.539062 266.160156 196.96875 266.242188 196.503906 266.546875 L 193.613281 268.429688 C 192.996094 268.835938 192.671875 269.5625 192.789062 270.292969 L 195.683594 288.394531 C 195.777344 288.96875 196.132812 289.46875 196.644531 289.746094 C 196.644531 289.746094 198.109375 290.546875 199.40625 291.742188 C 199.191406 291.546875 199.511719 291.890625 199.777344 292.375 C 200.042969 292.855469 200.371094 293.539062 200.734375 294.332031 C 201.457031 295.925781 202.296875 297.992188 203.066406 300.09375 C 203.839844 302.191406 204.550781 304.332031 205.027344 306.0625 C 205.265625 306.925781 205.441406 307.691406 205.535156 308.265625 C 205.632812 308.835938 205.597656 309.28125 205.628906 309.125 C 205.527344 309.660156 204.738281 310.800781 203.472656 311.828125 C 202.207031 312.855469 200.570312 313.8125 199.238281 314.449219 C 197.882812 315.097656 197.175781 316.316406 196.710938 317.480469 C 196.253906 318.644531 195.984375 319.875 195.730469 321.078125 C 195.21875 323.476562 194.511719 325.640625 194.046875 326.03125 C 194.125 325.964844 193.601562 326.292969 192.84375 326.546875 C 192.082031 326.804688 191.058594 327.078125 189.878906 327.335938 C 187.523438 327.855469 184.550781 328.300781 181.644531 328.574219 C 178.738281 328.839844 175.878906 328.914062 173.824219 328.722656 C 172.796875 328.625 171.96875 328.445312 171.527344 328.273438 C 171.386719 328.21875 171.378906 328.207031 171.339844 328.183594 C 171.066406 327.003906 171.316406 326.082031 172.019531 325.074219 C 172.773438 323.996094 174.050781 322.949219 175.347656 322.144531 C 176.816406 321.226562 177.402344 319.828125 178.042969 318.222656 C 178.683594 316.617188 179.214844 314.738281 179.660156 312.859375 C 180.550781 309.109375 181.082031 305.511719 181.191406 304.183594 C 181.214844 303.886719 181.695312 303.027344 182.519531 301.8125 C 183.34375 300.597656 184.390625 298.992188 184.734375 296.851562 C 184.949219 295.472656 184.714844 294.058594 184.390625 292.367188 C 184.070312 290.675781 183.597656 288.816406 183.109375 287.0625 C 182.140625 283.554688 181.101562 280.496094 181.101562 280.496094 C 180.769531 279.519531 179.710938 279 178.734375 279.328125 C 178.664062 279.351562 178.605469 279.378906 178.535156 279.40625 C 178.535156 279.40625 175.335938 280.917969 171.800781 283.140625 C 168.269531 285.367188 164.3125 288.117188 162.691406 291.710938 C 161.238281 294.921875 160 300.683594 158.140625 306.707031 C 156.277344 312.734375 153.785156 318.859375 150.785156 321.933594 C 147.101562 325.707031 142.675781 332.042969 139.070312 337.5 C 135.46875 342.960938 132.738281 347.527344 132.738281 347.527344 C 132.214844 348.402344 132.488281 349.53125 133.351562 350.070312 C 133.351562 350.070312 134.464844 350.796875 135.644531 352.078125 C 135.660156 352.125 135.695312 352.183594 135.710938 352.3125 C 135.761719 352.636719 135.792969 353.164062 135.773438 353.789062 C 135.753906 355.042969 135.570312 356.703125 135.292969 358.386719 C 135.015625 360.066406 134.632812 361.765625 134.238281 363.128906 C 133.839844 364.492188 133.261719 365.597656 133.253906 365.609375 C 133.324219 365.53125 132.808594 365.902344 131.886719 366.089844 C 130.96875 366.277344 129.71875 366.375 128.429688 366.386719 C 125.847656 366.410156 123.007812 366.085938 121.898438 365.863281 C 119.96875 365.476562 118.238281 366.160156 117.019531 367.011719 C 115.804688 367.855469 114.953125 368.890625 114.425781 369.507812 C 114.164062 369.8125 112.679688 371.25 110.054688 371.941406 C 107.433594 372.632812 103.570312 372.703125 98.109375 370.261719 C 92.539062 367.777344 90.851562 365.726562 90.488281 364.769531 C 90.210938 364.035156 90.382812 363.691406 90.660156 363.09375 C 90.738281 363.078125 90.738281 363.066406 90.859375 363.050781 C 91.460938 362.953125 92.464844 362.886719 93.609375 362.773438 C 95.902344 362.550781 98.859375 362.199219 101.390625 360.550781 C 103.851562 358.945312 105.96875 356.285156 107.683594 353.804688 C 108.539062 352.566406 109.277344 351.375 109.839844 350.390625 C 110.324219 349.542969 110.605469 348.964844 110.839844 348.414062 C 110.945312 348.378906 111.152344 348.335938 111.417969 348.316406 C 112.035156 348.285156 112.683594 348.386719 112.683594 348.386719 C 113.238281 348.476562 113.800781 348.316406 114.226562 347.941406 C 126.730469 336.910156 131.976562 322.511719 139.246094 305.496094 C 146.523438 288.453125 148.507812 285.097656 149.480469 281.011719 C 149.761719 279.828125 151.574219 276.507812 153.300781 273.851562 C 155.019531 271.195312 156.636719 268.992188 156.636719 268.992188 C 156.929688 268.597656 157.050781 268.097656 156.976562 267.609375 C 156.976562 267.609375 156.761719 266.195312 156.578125 264.539062 C 156.398438 262.882812 156.289062 260.84375 156.359375 260.320312 C 156.296875 260.804688 156.371094 260.34375 156.648438 259.902344 C 156.925781 259.460938 157.355469 258.859375 157.878906 258.175781 C 158.921875 256.816406 160.332031 255.136719 161.730469 253.519531 C 164.535156 250.277344 167.316406 247.28125 167.316406 247.28125 C 167.882812 246.667969 167.972656 245.75 167.539062 245.035156 C 167.539062 245.035156 165.410156 241.578125 163.253906 237.21875 C 161.097656 232.855469 158.992188 227.476562 158.890625 224.449219 C 158.796875 221.765625 161.140625 219.160156 163.90625 217.226562 C 166.675781 215.292969 169.511719 214.183594 169.511719 214.183594 C 169.9375 214.019531 170.289062 213.703125 170.5 213.292969 C 170.5 213.292969 171.0625 212.210938 171.964844 211.039062 C 172.871094 209.871094 174.144531 208.792969 174.933594 208.601562 C 175.855469 208.378906 177.453125 208.664062 178.746094 209.132812 C 180.039062 209.605469 180.96875 210.15625 180.96875 210.15625 C 181.257812 210.324219 181.582031 210.410156 181.917969 210.410156 L 188.332031 210.410156 C 189.339844 210.410156 190.164062 209.609375 190.199219 208.601562 L 190.445312 200.304688 C 190.476562 199.414062 189.867188 198.628906 189 198.425781 C 189 198.425781 187.949219 198.175781 186.667969 198.253906 C 185.386719 198.339844 183.539062 198.800781 182.46875 200.515625 C 182.660156 200.203125 182.160156 200.730469 181.269531 201.042969 C 180.378906 201.355469 179.183594 201.644531 178.007812 201.871094 C 175.664062 202.320312 173.433594 202.535156 173.433594 202.535156 C 172.855469 202.589844 172.332031 202.914062 172.027344 203.40625 C 171.8125 203.761719 170.085938 204.683594 168.207031 205.140625 C 167.269531 205.367188 166.328125 205.535156 165.550781 205.6875 C 165.160156 205.761719 164.8125 205.832031 164.488281 205.917969 C 164.167969 205.996094 163.957031 205.90625 163.269531 206.457031 C 163.730469 206.085938 163.757812 206.238281 163.617188 206.238281 C 163.472656 206.238281 163.183594 206.21875 162.894531 206.144531 C 162.3125 206 161.730469 205.59375 161.765625 205.632812 C 161.792969 205.667969 161.425781 204.769531 161.304688 203.988281 C 161.179688 203.210938 161.152344 202.550781 161.152344 202.550781 C 161.128906 202.023438 160.886719 201.53125 160.484375 201.195312 C 160.484375 201.195312 160.246094 200.867188 160.0625 200.578125 C 160.0625 200.496094 160.046875 200.453125 160.085938 200.339844 C 160.214844 199.945312 160.464844 199.382812 160.761719 198.828125 C 161.058594 198.273438 161.410156 197.722656 161.71875 197.300781 C 161.957031 196.984375 162.082031 196.882812 162.140625 196.824219 C 162.28125 196.8125 162.714844 196.699219 163.21875 196.699219 C 164.035156 196.699219 165.121094 196.769531 166.25 196.835938 C 167.378906 196.90625 168.554688 196.984375 169.621094 197 C 170.6875 197.019531 171.566406 197.046875 172.546875 196.738281 C 173.957031 196.304688 176.976562 194.976562 179.964844 193.667969 C 182.960938 192.359375 185.703125 191.132812 185.703125 191.132812 C 186.644531 190.714844 187.066406 189.605469 186.644531 188.664062 C 186.578125 188.503906 186.480469 188.359375 186.371094 188.226562 C 180.539062 181.269531 183.207031 171.96875 182.910156 166.199219 C 182.808594 164.1875 183.445312 160.5625 184.152344 157.59375 C 184.863281 154.625 185.59375 152.265625 185.59375 152.265625 C 185.675781 152.015625 185.695312 151.75 185.667969 151.488281 C 184.9375 145.34375 183.363281 142.027344 182.621094 140.605469 L 183.832031 139.246094 C 184.515625 138.476562 184.441406 137.296875 183.675781 136.613281 C 183.171875 136.164062 182.460938 136.023438 181.820312 136.246094 C 181.820312 136.246094 177.722656 137.480469 175.5625 135.40625 C 174.496094 134.382812 172.820312 131.246094 171.59375 128.25 C 170.375 125.253906 169.445312 122.339844 169.132812 121.355469 C 168.730469 120.066406 167.570312 117.222656 166.453125 114.480469 C 165.335938 111.742188 164.296875 109.25 164.296875 109.25 C 164.261719 109.164062 164.21875 109.078125 164.171875 109 C 164.171875 109 163.683594 108.207031 163.585938 106.835938 C 163.492188 105.46875 163.753906 103.695312 165.796875 101.59375 C 169.1875 98.074219 172.546875 95.792969 177.769531 95.925781 Z M 186.667969 201.996094 L 186.527344 206.644531 L 182.316406 206.644531 C 181.957031 206.445312 181.34375 206.070312 180.039062 205.59375 C 179.800781 205.507812 179.488281 205.457031 179.234375 205.371094 C 180.351562 205.144531 181.496094 204.890625 182.523438 204.53125 C 183.710938 204.113281 184.824219 203.777344 185.644531 202.460938 C 185.804688 202.199219 186.167969 202.0625 186.667969 201.996094 Z M 186.667969 201.996094 " fill-opacity="1" fill-rule="nonzero"/></g><path fill="#00025d" d="M 194.878906 130.808594 C 200.539062 137.222656 203.554688 132.195312 209.339844 126.535156 C 215.121094 120.878906 233.480469 123.265625 234.234375 123.640625 C 234.988281 124.015625 236.625 128.667969 236.625 128.667969 C 236.625 128.667969 240.019531 127.664062 246.429688 128.542969 C 252.84375 129.425781 259 128.417969 261.140625 128.167969 C 263.277344 127.921875 265.667969 130.179688 267.550781 130.179688 C 269.4375 130.179688 268.558594 129.050781 268.8125 125.78125 C 269.066406 122.511719 271.574219 120.628906 272.960938 121.003906 C 274.34375 121.378906 273.714844 128.925781 273.714844 128.925781 C 273.714844 128.925781 280.253906 124.023438 285.910156 116.222656 C 291.570312 108.425781 294.082031 111.320312 294.960938 112.074219 C 295.84375 112.832031 284.769531 126.28125 284.769531 126.28125 C 284.769531 126.28125 291.183594 121.5 292.941406 121.003906 C 294.703125 120.496094 296.585938 121.003906 297.71875 122.132812 C 298.851562 123.261719 297.59375 125.027344 295.082031 125.402344 C 292.566406 125.773438 288.167969 129.929688 288.167969 129.929688 C 291.941406 127.414062 294.957031 126.660156 296.089844 127.414062 C 297.226562 128.171875 297.222656 130.308594 294.332031 131.8125 C 291.4375 133.324219 291.0625 134.707031 291.0625 134.707031 C 295.71875 132.070312 296.597656 134.078125 297.226562 135.835938 C 297.855469 137.597656 293.707031 137.597656 291.320312 139.984375 C 288.929688 142.375 275.226562 145.769531 270.703125 146.015625 C 266.171875 146.265625 259.136719 143.378906 253.984375 145.011719 C 248.832031 146.648438 231.730469 145.894531 231.730469 145.894531 C 236.128906 161.605469 235.507812 185.621094 234.625 190.652344 C 233.746094 195.679688 236.511719 201.84375 237.519531 204.230469 C 238.523438 206.621094 237.894531 208.128906 238.152344 211.144531 C 238.40625 214.15625 241.667969 236.664062 236.515625 247.222656 C 231.363281 257.785156 217.277344 259.292969 217.277344 259.292969 C 205.207031 270.484375 197.539062 268.097656 197.539062 268.097656 L 194.648438 269.980469 L 197.539062 288.082031 C 197.539062 288.082031 199.175781 288.964844 200.683594 290.347656 C 202.195312 291.734375 207.976562 306.816406 207.472656 309.457031 C 206.96875 312.09375 202.941406 314.734375 200.054688 316.117188 C 197.167969 317.503906 197.914062 325.167969 195.277344 327.433594 C 192.636719 329.699219 170.640625 332.625 169.574219 328.890625 C 168.507812 325.15625 171.53125 322.316406 174.375 320.53125 C 177.21875 318.757812 179.175781 306.128906 179.351562 303.996094 C 179.527344 301.863281 182.378906 299.90625 182.910156 296.527344 C 183.445312 293.152344 179.351562 281.058594 179.351562 281.058594 C 179.351562 281.058594 166.90625 286.925781 164.417969 292.4375 C 161.925781 297.945312 159.082031 316.082031 152.148438 323.195312 C 145.195312 330.324219 134.34375 348.453125 134.34375 348.453125 C 134.34375 348.453125 135.769531 349.34375 137.1875 350.945312 C 138.605469 352.546875 136.480469 364.632812 134.695312 366.765625 C 132.914062 368.902344 124.203125 368.191406 121.542969 367.65625 C 118.875 367.125 116.917969 369.433594 115.851562 370.683594 C 114.785156 371.925781 108.914062 377.082031 97.359375 371.925781 C 85.808594 366.765625 88.695312 363.039062 89.183594 361.789062 C 89.707031 360.46875 96.292969 361.613281 100.386719 358.945312 C 104.476562 356.28125 108.746094 348.8125 109.277344 347.390625 C 109.8125 345.96875 113.011719 346.5 113.011719 346.5 C 125.101562 335.832031 130.257812 321.789062 137.550781 304.71875 C 144.84375 287.648438 146.796875 284.269531 147.6875 280.535156 C 148.578125 276.800781 155.15625 267.847656 155.15625 267.847656 C 155.15625 267.847656 154.273438 262.0625 154.523438 260.050781 C 154.773438 258.039062 165.964844 245.96875 165.964844 245.96875 C 165.964844 245.96875 157.289062 231.890625 157.039062 224.472656 C 156.789062 217.054688 168.855469 212.402344 168.855469 212.402344 C 168.855469 212.402344 171.367188 207.5 174.511719 206.746094 C 177.65625 205.988281 181.929688 208.503906 181.929688 208.503906 L 188.339844 208.503906 L 188.589844 200.207031 C 188.589844 200.207031 185.324219 199.453125 184.0625 201.46875 C 182.804688 203.476562 173.625 204.363281 173.625 204.363281 C 171.992188 207 165.082031 207.378906 164.449219 207.878906 C 163.820312 208.386719 161.179688 207.878906 160.300781 206.75 C 159.421875 205.621094 159.296875 202.601562 159.296875 202.601562 C 159.296875 202.601562 158.542969 201.972656 158.167969 200.96875 C 157.792969 199.964844 160.050781 195.816406 161.3125 195.058594 C 162.570312 194.304688 169.988281 195.566406 171.996094 194.933594 C 174.007812 194.304688 184.949219 189.402344 184.949219 189.402344 C 178.410156 181.605469 181.304688 171.175781 181.050781 166.269531 C 180.800781 161.367188 183.8125 151.6875 183.8125 151.6875 C 182.933594 144.269531 180.417969 140.246094 180.417969 140.246094 L 182.429688 137.980469 C 182.429688 137.980469 177.402344 139.742188 174.257812 136.722656 C 171.113281 133.703125 167.96875 123.898438 167.34375 121.886719 C 166.714844 119.878906 162.566406 109.941406 162.566406 109.941406 C 162.566406 109.941406 159.671875 105.164062 164.449219 100.261719 C 169.230469 95.359375 174.761719 92.464844 184.1875 95.109375 C 193.621094 97.746094 196.382812 101.140625 197.894531 106.921875 C 199.402344 112.707031 200.53125 125.027344 194.878906 130.808594 Z M 194.878906 130.808594 " fill-opacity="1" fill-rule="nonzero"/><path fill="#5271ff" d="M 237.433594 141.6875 C 237.433594 141.6875 236.542969 134.042969 233.433594 125.242188 C 233.433594 125.242188 217.523438 124.617188 212.898438 126.84375 C 208.273438 129.066406 206.230469 133.152344 206.230469 133.152344 C 206.230469 133.152344 209.964844 129.507812 214.941406 128.085938 C 219.917969 126.660156 231.648438 127.328125 231.648438 127.328125 C 231.648438 127.328125 235.835938 135.195312 237.433594 141.6875 Z M 237.433594 141.6875 " fill-opacity="1" fill-rule="nonzero"/><path fill="#5271ff" d="M 210.71875 210.75 C 210.71875 210.75 184.890625 208.753906 163.519531 218.558594 C 163.519531 218.558594 179.234375 228.996094 191.054688 251.496094 C 191.054688 251.496094 183.257812 232.390625 177.101562 223.207031 C 177.101562 223.207031 181.878906 223.835938 188.414062 231.003906 L 181.371094 220.195312 L 200.480469 219.945312 L 185.265625 216.171875 C 185.273438 216.171875 190.402344 213.507812 210.71875 210.75 Z M 210.71875 210.75 " fill-opacity="1" fill-rule="nonzero"/><path fill="#5271ff" d="M 111.289062 349.355469 C 119.648438 353.265625 131.734375 349.890625 131.734375 349.890625 C 131.734375 349.890625 135.109375 352.023438 135.292969 352.914062 C 135.46875 353.804688 134.667969 364.292969 132.800781 364.917969 C 130.933594 365.539062 120.980469 364.824219 120.980469 364.824219 L 121.957031 362.78125 C 115.113281 363.050781 110.667969 372.027344 106.53125 371.851562 C 102.402344 371.675781 96.304688 368.207031 96.304688 368.207031 C 96.304688 368.207031 95.148438 366.210938 93.242188 365.945312 C 91.328125 365.675781 92 366.566406 92 366.566406 C 92 366.566406 91.152344 366.210938 90.398438 365.371094 C 89.644531 364.523438 90.488281 362.65625 90.488281 362.65625 C 90.488281 362.65625 101.683594 365.894531 111.289062 349.355469 Z M 111.289062 349.355469 " fill-opacity="1" fill-rule="nonzero"/><path fill="#5271ff" d="M 183.507812 301.789062 C 183.507812 301.789062 181.496094 303.421875 181.496094 305.6875 C 181.496094 307.953125 178.167969 319.765625 176.96875 321.402344 C 175.777344 323.035156 172.441406 323.664062 171.816406 325.613281 C 171.1875 327.558594 170.9375 328.25 171.753906 328.570312 C 172.570312 328.878906 190.921875 327.246094 193.0625 325.742188 C 195.203125 324.234375 195.476562 315.488281 197.25 313.976562 C 199.027344 312.46875 204.1875 310.335938 204.542969 308.285156 C 204.902344 306.242188 200.808594 294.066406 199.386719 293 C 197.960938 291.929688 195.476562 292.105469 195.476562 292.105469 C 195.476562 292.105469 194.851562 300.109375 192.183594 302.507812 C 189.515625 304.910156 183.648438 319.046875 182.847656 319.488281 C 182.054688 319.929688 183.507812 301.789062 183.507812 301.789062 Z M 183.507812 301.789062 " fill-opacity="1" fill-rule="nonzero"/><path fill="#5271ff" d="M 216.75 256.65625 C 244.710938 253.765625 235.390625 214.757812 235.390625 214.757812 C 235.390625 214.757812 239.433594 250.878906 216.75 256.65625 Z M 216.75 256.65625 " fill-opacity="1" fill-rule="nonzero"/><path fill="#5271ff" d="M 136.234375 314.488281 C 136.234375 314.488281 149.058594 287.078125 151.449219 285.070312 C 153.839844 283.0625 165.152344 273.125 165.152344 273.125 L 173.699219 274.757812 C 173.699219 274.757812 163.644531 269.855469 162.136719 267.972656 C 160.625 266.085938 160.875 260.679688 161.128906 259.425781 C 161.378906 258.164062 168.296875 248.488281 168.296875 248.488281 C 168.296875 248.488281 157.613281 258.546875 157.488281 260.433594 C 157.363281 262.320312 158.242188 268.605469 158.242188 268.605469 C 158.242188 268.605469 150.070312 278.164062 149.566406 281.175781 C 149.058594 284.191406 136.234375 314.488281 136.234375 314.488281 Z M 136.234375 314.488281 " fill-opacity="1" fill-rule="nonzero"/><path fill="#ffffff" d="M 137.136719 144.546875 C 124.601562 144.546875 114.398438 154.75 114.398438 167.28125 C 114.398438 179.816406 124.601562 190.019531 137.136719 190.019531 C 149.671875 190.019531 159.875 179.816406 159.875 167.28125 C 159.875 154.75 149.671875 144.546875 137.136719 144.546875 Z M 137.136719 148.28125 C 147.652344 148.28125 156.140625 156.765625 156.140625 167.28125 C 156.140625 177.796875 147.65625 186.285156 137.136719 186.285156 C 126.621094 186.285156 118.132812 177.804688 118.132812 167.28125 C 118.136719 156.773438 126.621094 148.28125 137.136719 148.28125 Z M 137.136719 148.28125 " fill-opacity="1" fill-rule="nonzero"/><path fill="#00025d" d="M 158.007812 167.289062 C 158.007812 178.8125 148.664062 188.160156 137.136719 188.160156 C 125.609375 188.160156 116.265625 178.8125 116.265625 167.289062 C 116.265625 155.761719 125.609375 146.414062 137.136719 146.414062 C 148.664062 146.414062 158.007812 155.761719 158.007812 167.289062 Z M 158.007812 167.289062 " fill-opacity="1" fill-rule="nonzero"/><path fill="#5271ff" d="M 150.8125 155.226562 C 152.480469 158.042969 153.363281 161.25 153.363281 164.523438 C 153.363281 174.589844 145.199219 182.75 135.132812 182.75 C 129.902344 182.75 124.925781 180.503906 121.460938 176.578125 C 124.742188 182.117188 130.707031 185.515625 137.148438 185.515625 C 147.214844 185.515625 155.375 177.355469 155.375 167.289062 C 155.371094 162.84375 153.746094 158.558594 150.8125 155.226562 Z M 150.8125 155.226562 " fill-opacity="1" fill-rule="nonzero"/><g fill="#00025d" fill-opacity="1"><g transform="translate(12.465521, 48.278523)"><g><path d="M 20.703125 -29.9375 L 3.921875 -29.9375 C 3.625 -29.9375 2.90625 -29.828125 2.90625 -28.65625 L 2.90625 -25.796875 C 2.90625 -24.671875 3.625 -24.5625 3.921875 -24.5625 L 19.765625 -24.5625 C 20.671875 -24.5625 21.328125 -24.296875 21.6875 -23.765625 C 22.09375 -23.21875 22.265625 -22.34375 22.265625 -21.140625 C 22.265625 -19.9375 22.09375 -19.078125 21.6875 -18.53125 C 21.328125 -17.984375 20.671875 -17.734375 19.765625 -17.734375 L 3.921875 -17.734375 C 3.625 -17.734375 2.90625 -17.625 2.90625 -16.5 L 2.90625 -1.234375 C 2.90625 -0.109375 3.625 0.03125 3.921875 0.03125 L 7.265625 0.03125 C 7.5625 0.03125 8.28125 -0.109375 8.28125 -1.234375 L 8.28125 -12.34375 L 20.703125 -12.390625 C 23.171875 -12.390625 24.953125 -13.15625 26.046875 -14.671875 C 27.140625 -16.203125 27.640625 -18.375 27.640625 -21.25 L 27.640625 -21.03125 C 27.640625 -23.9375 27.140625 -26.125 26.046875 -27.609375 C 24.953125 -29.171875 23.171875 -29.9375 20.703125 -29.9375 Z M 20.703125 -29.9375 "/></g></g></g><g fill="#00025d" fill-opacity="1"><g transform="translate(44.837786, 48.278523)"><g><path d="M 23.875 -5.375 L 12.0625 -5.375 C 11.296875 -5.375 10.6875 -5.453125 10.171875 -5.625 C 9.734375 -5.78125 9.375 -6.03125 9.125 -6.4375 C 8.828125 -6.828125 8.609375 -7.375 8.5 -8.03125 C 8.359375 -8.75 8.3125 -9.65625 8.3125 -10.75 L 8.3125 -28.65625 C 8.3125 -29.828125 7.59375 -29.9375 7.296875 -29.9375 L 3.953125 -29.9375 C 3.625 -29.9375 2.90625 -29.828125 2.90625 -28.65625 L 2.90625 -11.375 C 2.90625 -9.34375 3.09375 -7.59375 3.421875 -6.171875 C 3.734375 -4.71875 4.25 -3.53125 4.984375 -2.609375 C 5.703125 -1.671875 6.640625 -0.984375 7.8125 -0.578125 C 8.90625 -0.1875 10.28125 0.03125 11.875 0.03125 L 23.875 0.03125 C 24.1875 0.03125 24.890625 -0.109375 24.890625 -1.234375 L 24.890625 -4.109375 C 24.890625 -5.234375 24.1875 -5.375 23.875 -5.375 Z M 23.875 -5.375 "/></g></g></g><g fill="#00025d" fill-opacity="1"><g transform="translate(74.448783, 48.278523)"><g><path d="M 22.375 -26.5625 C 22.3125 -26.734375 22.234375 -26.953125 22.15625 -27.09375 C 21.578125 -28.984375 19.828125 -30.328125 17.84375 -30.328125 C 16.921875 -30.328125 16.0625 -30.078125 15.328125 -29.578125 C 15.109375 -29.46875 14.9375 -29.3125 14.78125 -29.203125 C 14.234375 -28.734375 13.703125 -27.859375 13.1875 -26.5625 L 3.046875 -1.375 C 2.9375 -1.046875 2.90625 -0.71875 2.984375 -0.515625 C 3.015625 -0.296875 3.203125 0.03125 3.78125 0.03125 L 7.78125 0.03125 C 8.25 0.03125 8.609375 -0.25 8.796875 -0.71875 L 10.859375 -5.921875 L 18.8125 -5.921875 C 19.21875 -5.921875 19.578125 -6.109375 19.765625 -6.4375 C 19.984375 -6.71875 20.015625 -7.125 19.90625 -7.484375 L 18.59375 -10.71875 C 18.421875 -11.15625 18.015625 -11.4375 17.546875 -11.4375 L 13.046875 -11.4375 L 17.6875 -23.21875 C 17.734375 -23.28125 17.765625 -23.328125 17.765625 -23.328125 L 17.90625 -23.328125 C 17.90625 -23.328125 17.90625 -23.328125 17.953125 -23.25 L 26.953125 -0.765625 C 27.140625 -0.25 27.5 0.03125 28.015625 0.03125 L 31.890625 0.03125 C 32.484375 0.03125 32.625 -0.328125 32.6875 -0.515625 C 32.765625 -0.71875 32.734375 -1.046875 32.59375 -1.375 Z M 22.375 -26.5625 "/></g></g></g><g fill="#00025d" fill-opacity="1"><g transform="translate(111.943939, 48.278523)"><g><path d="M 29.78125 -29.9375 L 25.75 -29.9375 C 25.421875 -29.9375 25 -29.828125 24.703125 -29.28125 L 16.703125 -14.71875 L 8.796875 -29.25 C 8.5 -29.828125 8.0625 -29.9375 7.734375 -29.9375 L 3.59375 -29.9375 C 3.265625 -29.9375 3.015625 -29.75 2.9375 -29.421875 C 2.875 -29.171875 2.90625 -28.875 3.046875 -28.625 L 13.953125 -9.1875 L 13.953125 -1.234375 C 13.953125 -0.109375 14.671875 0 14.96875 0 L 18.3125 0 C 18.59375 0 19.328125 -0.109375 19.328125 -1.234375 L 19.328125 -9.1875 L 30.328125 -28.625 C 30.484375 -28.875 30.515625 -29.171875 30.4375 -29.46875 C 30.328125 -29.75 30.078125 -29.9375 29.78125 -29.9375 Z M 29.78125 -29.9375 "/></g></g></g><g fill="#00025d" fill-opacity="1"><g transform="translate(147.150145, 48.278523)"><g><path d="M 6.6875 -5.234375 L 4.328125 -5.234375 C 3.53125 -5.234375 2.90625 -4.609375 2.90625 -3.8125 L 2.90625 -1.453125 C 2.90625 -0.6875 3.53125 -0.03125 4.328125 -0.03125 L 6.6875 -0.03125 C 7.453125 -0.03125 8.09375 -0.6875 8.09375 -1.453125 L 8.09375 -3.8125 C 8.09375 -4.609375 7.453125 -5.234375 6.6875 -5.234375 Z M 6.6875 -5.234375 "/></g></g></g><g fill="#00025d" fill-opacity="1"><g transform="translate(159.975518, 48.278523)"><g><path d="M 33.234375 -29.9375 L 29.96875 -29.9375 C 29.46875 -29.9375 29.0625 -29.890625 28.703125 -29.78125 C 28.328125 -29.6875 28.015625 -29.5 27.71875 -29.25 C 27.46875 -28.953125 27.203125 -28.625 26.984375 -28.1875 C 26.78125 -27.75 26.59375 -27.203125 26.375 -26.515625 L 19.9375 -10.46875 C 19.90625 -10.3125 19.875 -10.3125 19.828125 -10.3125 L 19.46875 -10.3125 C 19.46875 -10.3125 19.40625 -10.3125 19.359375 -10.46875 L 12.96875 -26.515625 C 12.75 -27.203125 12.53125 -27.75 12.34375 -28.1875 C 12.140625 -28.625 11.875 -28.953125 11.625 -29.25 C 11.328125 -29.5 10.96875 -29.6875 10.609375 -29.78125 C 10.25 -29.890625 9.8125 -29.9375 9.34375 -29.9375 L 6 -29.9375 C 4.765625 -29.9375 3.921875 -29.53125 3.484375 -28.765625 C 3.09375 -28.078125 2.90625 -26.921875 2.90625 -25.25 L 2.90625 -1.234375 C 2.90625 -0.109375 3.625 0.03125 3.953125 0.03125 L 7.078125 0.03125 C 7.40625 0.03125 8.09375 -0.109375 8.09375 -1.234375 L 8.09375 -23.0625 C 8.09375 -23.109375 8.09375 -23.140625 8.09375 -23.140625 L 8.28125 -23.140625 C 8.3125 -23.140625 8.359375 -23.140625 8.390625 -23.03125 L 14.609375 -7.671875 C 14.859375 -6.90625 15.109375 -6.25 15.359375 -5.703125 C 15.65625 -5.15625 15.953125 -4.71875 16.234375 -4.359375 C 16.609375 -4 16.96875 -3.703125 17.40625 -3.5625 C 17.84375 -3.421875 18.3125 -3.34375 18.859375 -3.34375 L 20.34375 -3.34375 C 20.890625 -3.34375 21.390625 -3.421875 21.796875 -3.5625 C 22.234375 -3.703125 22.625 -4 22.953125 -4.359375 C 23.25 -4.71875 23.578125 -5.15625 23.828125 -5.703125 C 24.078125 -6.25 24.34375 -6.90625 24.59375 -7.671875 L 30.84375 -23.0625 C 30.84375 -23.140625 30.875 -23.140625 30.921875 -23.140625 L 31.09375 -23.140625 C 31.09375 -23.140625 31.09375 -23.109375 31.09375 -23.0625 L 31.09375 -1.234375 C 31.09375 -0.109375 31.828125 0.03125 32.109375 0.03125 L 35.234375 0.03125 C 35.5625 0.03125 36.296875 -0.109375 36.296875 -1.234375 L 36.296875 -25.25 C 36.296875 -26.921875 36.109375 -28.078125 35.703125 -28.765625 C 35.28125 -29.53125 34.4375 -29.9375 33.234375 -29.9375 Z M 33.234375 -29.9375 "/></g></g></g><g fill="#00025d" fill-opacity="1"><g transform="translate(200.994925, 48.278523)"><g><path d="M 24.734375 -6.5 L 11.953125 -6.5 C 11.1875 -6.5 10.578125 -6.609375 10.0625 -6.75 C 9.59375 -6.9375 9.265625 -7.1875 8.96875 -7.5625 C 8.6875 -7.953125 8.46875 -8.5 8.359375 -9.1875 C 8.3125 -9.375 8.3125 -9.625 8.28125 -9.8125 C 8.28125 -9.8125 8.3125 -12.421875 8.359375 -12.421875 L 24.59375 -12.421875 C 24.890625 -12.421875 25.609375 -12.5625 25.609375 -13.703125 L 25.609375 -16.5625 C 25.609375 -17.6875 24.890625 -17.796875 24.59375 -17.796875 L 5.84375 -17.765625 C 4.796875 -17.6875 3.890625 -17.140625 3.375 -16.234375 C 3.203125 -15.953125 3.046875 -15.65625 2.984375 -15.328125 L 2.90625 -10.75 L 2.90625 -10.578125 C 2.9375 -8.859375 3.125 -7.40625 3.375 -6.21875 C 3.703125 -4.765625 4.25 -3.5625 4.9375 -2.65625 C 5.671875 -1.703125 6.609375 -1.046875 7.78125 -0.65625 C 8.90625 -0.21875 10.25 -0.03125 11.84375 -0.03125 L 24.734375 -0.03125 C 25.0625 -0.03125 25.796875 -0.140625 25.796875 -1.265625 L 25.796875 -5.265625 C 25.796875 -6.390625 25.0625 -6.5 24.734375 -6.5 Z M 24.78125 -30 L 3.890625 -30 C 3.59375 -30 2.90625 -29.859375 2.90625 -28.703125 L 2.90625 -25.859375 C 2.90625 -24.734375 3.59375 -24.625 3.890625 -24.625 L 24.78125 -24.59375 C 25.0625 -24.59375 25.796875 -24.734375 25.796875 -25.859375 L 25.796875 -28.734375 C 25.796875 -29.859375 25.0625 -30 24.78125 -30 Z M 24.78125 -30 "/></g></g></g><g fill="#00025d" fill-opacity="1"><g transform="translate(231.51424, 48.278523)"><g><path d="M 28.015625 -29.9375 L 3.953125 -29.9375 C 3.625 -29.9375 2.90625 -29.828125 2.90625 -28.703125 L 2.90625 -25.859375 C 2.90625 -24.671875 3.625 -24.5625 3.953125 -24.5625 L 13.296875 -24.5625 L 13.296875 -1.234375 C 13.296875 -0.109375 14.015625 0 14.3125 0 L 17.65625 0 C 17.984375 0 18.671875 -0.109375 18.671875 -1.234375 L 18.671875 -24.5625 L 28.015625 -24.5625 C 28.328125 -24.5625 29.0625 -24.671875 29.0625 -25.859375 L 29.0625 -28.703125 C 29.0625 -29.828125 28.328125 -29.9375 28.015625 -29.9375 Z M 28.015625 -29.9375 "/></g></g></g><g fill="#00025d" fill-opacity="1"><g transform="translate(265.303467, 48.278523)"><g><path d="M 27.6875 -21.25 C 27.6875 -21.21875 27.6875 -21.171875 27.6875 -21.140625 C 27.6875 -21.109375 27.6875 -21.0625 27.6875 -21.03125 Z M 28.375 -1.5625 L 22.015625 -12.453125 C 23.796875 -12.671875 25.171875 -13.4375 26.078125 -14.671875 C 27.09375 -16.171875 27.640625 -18.3125 27.6875 -21.140625 C 27.640625 -23.96875 27.09375 -26.125 26.078125 -27.609375 C 25 -29.171875 23.171875 -29.9375 20.703125 -29.9375 L 3.953125 -29.9375 C 3.625 -29.9375 2.90625 -29.828125 2.90625 -28.65625 L 2.90625 -25.796875 C 2.90625 -24.671875 3.625 -24.5625 3.953125 -24.5625 L 19.765625 -24.5625 C 20.703125 -24.5625 21.328125 -24.296875 21.6875 -23.765625 C 22.09375 -23.21875 22.265625 -22.34375 22.265625 -21.140625 C 22.265625 -19.9375 22.09375 -19.078125 21.6875 -18.53125 C 21.328125 -17.984375 20.703125 -17.734375 19.765625 -17.734375 L 3.953125 -17.734375 C 3.625 -17.734375 2.90625 -17.625 2.90625 -16.5 L 2.90625 -1.234375 C 2.90625 -0.109375 3.625 0.03125 3.953125 0.03125 L 7.265625 0.03125 C 7.59375 0.03125 8.28125 -0.109375 8.28125 -1.234375 L 8.28125 -12.34375 L 15.953125 -12.34375 L 22.515625 -0.6875 C 22.671875 -0.46875 22.78125 -0.296875 22.921875 -0.1875 C 23.109375 -0.03125 23.359375 0.03125 23.6875 0.03125 L 27.6875 0.03125 C 28.125 0.03125 28.4375 -0.25 28.515625 -0.6875 C 28.546875 -1.046875 28.515625 -1.34375 28.375 -1.5625 Z M 28.375 -1.5625 "/></g></g></g><g fill="#00025d" fill-opacity="1"><g transform="translate(298.584049, 48.278523)"><g><path d="M 7.265625 -29.9375 L 3.921875 -29.9375 C 3.625 -29.9375 2.90625 -29.78125 2.90625 -28.65625 L 2.90625 -1.234375 C 2.90625 -0.109375 3.625 0.03125 3.921875 0.03125 L 7.265625 0.03125 C 7.5625 0.03125 8.28125 -0.109375 8.28125 -1.234375 L 8.28125 -28.65625 C 8.28125 -29.78125 7.5625 -29.9375 7.265625 -29.9375 Z M 7.265625 -29.9375 "/></g></g></g><g fill="#00025d" fill-opacity="1"><g transform="translate(311.591071, 48.278523)"><g><path d="M 25.109375 -29.9375 L 11.875 -29.9375 C 10.28125 -29.9375 8.90625 -29.71875 7.78125 -29.3125 C 6.609375 -28.875 5.671875 -28.1875 4.984375 -27.28125 C 4.25 -26.375 3.703125 -25.171875 3.375 -23.71875 C 3.046875 -22.3125 2.90625 -20.5625 2.90625 -18.5625 L 2.90625 -11.375 C 2.90625 -9.34375 3.046875 -7.59375 3.375 -6.140625 C 3.703125 -4.71875 4.25 -3.53125 4.984375 -2.578125 C 5.703125 -1.671875 6.640625 -0.984375 7.78125 -0.578125 C 8.90625 -0.1875 10.28125 0.03125 11.875 0.03125 L 25.109375 0.03125 C 25.390625 0.03125 26.125 -0.109375 26.125 -1.234375 L 26.125 -4.109375 C 26.125 -5.234375 25.390625 -5.375 25.109375 -5.375 L 12.0625 -5.375 C 11.296875 -5.375 10.640625 -5.453125 10.171875 -5.625 C 9.703125 -5.78125 9.375 -6.03125 9.078125 -6.4375 C 8.796875 -6.796875 8.609375 -7.34375 8.46875 -8.03125 C 8.359375 -8.75 8.28125 -9.65625 8.28125 -10.75 L 8.28125 -19.21875 C 8.28125 -20.3125 8.359375 -21.21875 8.46875 -21.90625 C 8.609375 -22.59375 8.796875 -23.109375 9.078125 -23.5 C 9.375 -23.90625 9.703125 -24.15625 10.171875 -24.296875 C 10.640625 -24.484375 11.296875 -24.5625 12.0625 -24.5625 L 25.109375 -24.5625 C 25.390625 -24.5625 26.125 -24.703125 26.125 -25.859375 L 26.125 -28.65625 C 26.125 -29.78125 25.390625 -29.9375 25.109375 -29.9375 Z M 25.109375 -29.9375 "/></g></g></g><g fill="#00025d" fill-opacity="1"><g transform="translate(342.437383, 48.278523)"><g><path d="M 20.453125 -17.875 L 9.546875 -17.875 C 9.015625 -17.875 8.3125 -18.09375 8.3125 -19.875 L 8.3125 -22.5625 C 8.3125 -23.21875 8.421875 -23.71875 8.609375 -24.078125 C 8.75 -24.296875 8.96875 -24.5625 9.59375 -24.5625 L 24.375 -24.5625 C 24.671875 -24.5625 25.390625 -24.671875 25.390625 -25.796875 L 25.390625 -28.703125 C 25.390625 -29.828125 24.671875 -29.9375 24.375 -29.9375 L 8.71875 -29.9375 C 6.71875 -29.9375 5.265625 -29.28125 4.328125 -27.9375 C 3.375 -26.625 2.90625 -24.890625 2.90625 -22.78125 L 2.90625 -20.015625 C 2.90625 -17.515625 3.421875 -15.46875 4.328125 -14.203125 C 5.453125 -12.71875 7.125 -12.5 8.640625 -12.5 L 19.546875 -12.5 C 20.09375 -12.5 20.8125 -12.28125 20.8125 -10.5 L 20.8125 -7.375 C 20.8125 -6.71875 20.703125 -6.21875 20.484375 -5.84375 C 20.34375 -5.625 20.125 -5.375 19.515625 -5.375 L 4 -5.375 C 3.671875 -5.375 2.9375 -5.265625 2.9375 -4.140625 L 2.9375 -1.234375 C 2.9375 -0.109375 3.671875 0 4 0 L 20.375 0 C 22.375 0 23.875 -0.6875 24.8125 -2.03125 C 25.71875 -3.34375 26.1875 -5.046875 26.1875 -7.15625 L 26.1875 -10.359375 C 26.1875 -12.71875 25.71875 -14.5625 24.78125 -15.875 C 23.796875 -17.1875 22.34375 -17.875 20.453125 -17.875 Z M 20.453125 -17.875 "/></g></g></g><g fill="#5170fc" fill-opacity="1"><g transform="translate(92.217143, 70.574048)"><g><path d="M 3.6875 -11.046875 L 3.6875 -6.640625 L 10.015625 -6.640625 L 10.015625 -5.09375 L 3.6875 -5.09375 L 3.6875 0 L 1.890625 0 L 1.890625 -12.609375 L 10.796875 -12.609375 L 10.796875 -11.046875 Z M 3.6875 -11.046875 "/></g></g></g><g fill="#5170fc" fill-opacity="1"><g transform="translate(118.067833, 70.574048)"><g><path d="M 7.578125 0.140625 C 6.304688 0.140625 5.160156 -0.132812 4.140625 -0.6875 C 3.117188 -1.25 2.316406 -2.019531 1.734375 -3 C 1.148438 -3.988281 0.859375 -5.09375 0.859375 -6.3125 C 0.859375 -7.519531 1.148438 -8.613281 1.734375 -9.59375 C 2.316406 -10.582031 3.117188 -11.351562 4.140625 -11.90625 C 5.160156 -12.46875 6.304688 -12.75 7.578125 -12.75 C 8.835938 -12.75 9.976562 -12.46875 11 -11.90625 C 12.019531 -11.351562 12.816406 -10.585938 13.390625 -9.609375 C 13.972656 -8.628906 14.265625 -7.53125 14.265625 -6.3125 C 14.265625 -5.082031 13.972656 -3.976562 13.390625 -3 C 12.816406 -2.019531 12.019531 -1.25 11 -0.6875 C 9.976562 -0.132812 8.835938 0.140625 7.578125 0.140625 Z M 7.578125 -1.453125 C 8.503906 -1.453125 9.335938 -1.660156 10.078125 -2.078125 C 10.816406 -2.503906 11.398438 -3.085938 11.828125 -3.828125 C 12.253906 -4.566406 12.46875 -5.394531 12.46875 -6.3125 C 12.46875 -7.21875 12.253906 -8.039062 11.828125 -8.78125 C 11.398438 -9.519531 10.816406 -10.097656 10.078125 -10.515625 C 9.335938 -10.941406 8.503906 -11.15625 7.578125 -11.15625 C 6.660156 -11.15625 5.828125 -10.941406 5.078125 -10.515625 C 4.328125 -10.097656 3.738281 -9.519531 3.3125 -8.78125 C 2.882812 -8.039062 2.671875 -7.21875 2.671875 -6.3125 C 2.671875 -5.394531 2.882812 -4.566406 3.3125 -3.828125 C 3.738281 -3.085938 4.328125 -2.503906 5.078125 -2.078125 C 5.828125 -1.660156 6.660156 -1.453125 7.578125 -1.453125 Z M 7.578125 -1.453125 "/></g></g></g><g fill="#5170fc" fill-opacity="1"><g transform="translate(147.609935, 70.574048)"><g><path d="M 7.578125 0.140625 C 6.304688 0.140625 5.160156 -0.132812 4.140625 -0.6875 C 3.117188 -1.25 2.316406 -2.019531 1.734375 -3 C 1.148438 -3.988281 0.859375 -5.09375 0.859375 -6.3125 C 0.859375 -7.519531 1.148438 -8.613281 1.734375 -9.59375 C 2.316406 -10.582031 3.117188 -11.351562 4.140625 -11.90625 C 5.160156 -12.46875 6.304688 -12.75 7.578125 -12.75 C 8.835938 -12.75 9.976562 -12.46875 11 -11.90625 C 12.019531 -11.351562 12.816406 -10.585938 13.390625 -9.609375 C 13.972656 -8.628906 14.265625 -7.53125 14.265625 -6.3125 C 14.265625 -5.082031 13.972656 -3.976562 13.390625 -3 C 12.816406 -2.019531 12.019531 -1.25 11 -0.6875 C 9.976562 -0.132812 8.835938 0.140625 7.578125 0.140625 Z M 7.578125 -1.453125 C 8.503906 -1.453125 9.335938 -1.660156 10.078125 -2.078125 C 10.816406 -2.503906 11.398438 -3.085938 11.828125 -3.828125 C 12.253906 -4.566406 12.46875 -5.394531 12.46875 -6.3125 C 12.46875 -7.21875 12.253906 -8.039062 11.828125 -8.78125 C 11.398438 -9.519531 10.816406 -10.097656 10.078125 -10.515625 C 9.335938 -10.941406 8.503906 -11.15625 7.578125 -11.15625 C 6.660156 -11.15625 5.828125 -10.941406 5.078125 -10.515625 C 4.328125 -10.097656 3.738281 -9.519531 3.3125 -8.78125 C 2.882812 -8.039062 2.671875 -7.21875 2.671875 -6.3125 C 2.671875 -5.394531 2.882812 -4.566406 3.3125 -3.828125 C 3.738281 -3.085938 4.328125 -2.503906 5.078125 -2.078125 C 5.828125 -1.660156 6.660156 -1.453125 7.578125 -1.453125 Z M 7.578125 -1.453125 "/></g></g></g><g fill="#5170fc" fill-opacity="1"><g transform="translate(177.15204, 70.574048)"><g><path d="M 4.390625 -11.046875 L 0.078125 -11.046875 L 0.078125 -12.609375 L 10.5 -12.609375 L 10.5 -11.046875 L 6.171875 -11.046875 L 6.171875 0 L 4.390625 0 Z M 4.390625 -11.046875 "/></g></g></g><g fill="#5170fc" fill-opacity="1"><g transform="translate(202.138393, 70.574048)"><g><path d="M 10.375 -6.546875 C 11.101562 -6.335938 11.675781 -5.960938 12.09375 -5.421875 C 12.519531 -4.890625 12.734375 -4.21875 12.734375 -3.40625 C 12.734375 -2.3125 12.320312 -1.46875 11.5 -0.875 C 10.675781 -0.289062 9.476562 0 7.90625 0 L 1.890625 0 L 1.890625 -12.609375 L 7.546875 -12.609375 C 8.984375 -12.609375 10.097656 -12.316406 10.890625 -11.734375 C 11.679688 -11.160156 12.078125 -10.363281 12.078125 -9.34375 C 12.078125 -8.6875 11.921875 -8.117188 11.609375 -7.640625 C 11.304688 -7.160156 10.894531 -6.796875 10.375 -6.546875 Z M 3.6875 -11.15625 L 3.6875 -7.109375 L 7.390625 -7.109375 C 8.316406 -7.109375 9.023438 -7.28125 9.515625 -7.625 C 10.015625 -7.96875 10.265625 -8.472656 10.265625 -9.140625 C 10.265625 -9.796875 10.015625 -10.296875 9.515625 -10.640625 C 9.023438 -10.984375 8.316406 -11.15625 7.390625 -11.15625 Z M 7.84375 -1.453125 C 8.863281 -1.453125 9.628906 -1.617188 10.140625 -1.953125 C 10.660156 -2.296875 10.921875 -2.828125 10.921875 -3.546875 C 10.921875 -4.953125 9.894531 -5.65625 7.84375 -5.65625 L 3.6875 -5.65625 L 3.6875 -1.453125 Z M 7.84375 -1.453125 "/></g></g></g><g fill="#5170fc" fill-opacity="1"><g transform="translate(230.185926, 70.574048)"><g><path d="M 9.921875 -3.15625 L 3.21875 -3.15625 L 1.84375 0 L -0.015625 0 L 5.6875 -12.609375 L 7.46875 -12.609375 L 13.203125 0 L 11.3125 0 Z M 9.296875 -4.59375 L 6.578125 -10.765625 L 3.859375 -4.59375 Z M 9.296875 -4.59375 "/></g></g></g><g fill="#5170fc" fill-opacity="1"><g transform="translate(257.783276, 70.574048)"><g><path d="M 1.890625 -12.609375 L 3.6875 -12.609375 L 3.6875 -1.5625 L 10.515625 -1.5625 L 10.515625 0 L 1.890625 0 Z M 1.890625 -12.609375 "/></g></g></g><g fill="#5170fc" fill-opacity="1"><g transform="translate(282.895681, 70.574048)"><g><path d="M 1.890625 -12.609375 L 3.6875 -12.609375 L 3.6875 -1.5625 L 10.515625 -1.5625 L 10.515625 0 L 1.890625 0 Z M 1.890625 -12.609375 "/></g></g></g><g clip-path="url(#02759be193)"><g clip-path="url(#67aa5914bb)"><path fill="#00025d" d="M 118.230469 212.828125 L 150.015625 212.828125 L 150.015625 243.078125 L 118.230469 243.078125 Z M 118.230469 212.828125 " fill-opacity="1" fill-rule="nonzero"/></g></g><g clip-path="url(#8a7993e063)"><g clip-path="url(#899363177c)"><path fill="#00025d" d="M 239.464844 212.828125 L 271.253906 212.828125 L 271.253906 243.078125 L 239.464844 243.078125 Z M 239.464844 212.828125 " fill-opacity="1" fill-rule="nonzero"/></g></g></svg>