<svg xmlns="http://www.w3.org/2000/svg" xmlns:xlink="http://www.w3.org/1999/xlink" width="500" zoomAndPan="magnify" viewBox="0 0 375 374.999991" height="500" preserveAspectRatio="xMidYMid meet" version="1.0"><defs><g/><clipPath id="4eecbac76d"><path d="M 111 47.433594 L 263.855469 47.433594 L 263.855469 251 L 111 251 Z M 111 47.433594 " clip-rule="nonzero"/></clipPath><clipPath id="e6b3086a2d"><path d="M 134.546875 138.394531 L 157.785156 138.394531 L 157.785156 160.511719 L 134.546875 160.511719 Z M 134.546875 138.394531 " clip-rule="nonzero"/></clipPath><clipPath id="7c4b484aad"><path d="M 146.148438 138.394531 L 148.886719 146.84375 L 157.75 146.84375 L 150.582031 152.0625 L 153.320312 160.511719 L 146.148438 155.289062 L 138.980469 160.511719 L 141.71875 152.0625 L 134.546875 146.84375 L 143.410156 146.84375 Z M 146.148438 138.394531 " clip-rule="nonzero"/></clipPath><clipPath id="4bc96f74ce"><path d="M 223.183594 138.394531 L 246.421875 138.394531 L 246.421875 160.511719 L 223.183594 160.511719 Z M 223.183594 138.394531 " clip-rule="nonzero"/></clipPath><clipPath id="19d442a4ef"><path d="M 234.785156 138.394531 L 237.523438 146.84375 L 246.386719 146.84375 L 239.214844 152.0625 L 241.957031 160.511719 L 234.785156 155.289062 L 227.613281 160.511719 L 230.351562 152.0625 L 223.183594 146.84375 L 232.046875 146.84375 Z M 234.785156 138.394531 " clip-rule="nonzero"/></clipPath></defs><path fill="#00025d" d="M 188.269531 51.515625 C 167.304688 51.410156 146.167969 55.335938 125.082031 63.609375 L 119.140625 65.941406 L 119.140625 183.789062 C 119.140625 191.433594 122.554688 197.503906 126.917969 204.011719 C 131.273438 210.523438 137.039062 217.128906 143.535156 223.246094 C 156.53125 235.484375 171.496094 246.585938 187.792969 246.585938 C 204.089844 246.585938 219.050781 235.484375 232.050781 223.246094 C 238.550781 217.125 244.3125 210.523438 248.671875 204.011719 C 253.03125 197.5 256.445312 191.433594 256.445312 183.789062 L 256.445312 65.890625 L 250.445312 63.589844 C 230.03125 55.746094 209.234375 51.617188 188.269531 51.515625 Z M 188.203125 70.089844 C 204.757812 70.175781 221.214844 73.183594 237.738281 78.878906 L 237.738281 183.789062 C 237.738281 184.050781 236.472656 188.609375 233.128906 193.605469 C 229.785156 198.597656 224.820312 204.363281 219.226562 209.632812 C 208.035156 220.164062 193.351562 227.886719 187.792969 227.886719 C 182.234375 227.886719 167.546875 220.167969 156.363281 209.632812 C 150.769531 204.363281 145.800781 198.601562 142.460938 193.605469 C 139.117188 188.613281 137.851562 184.050781 137.851562 183.789062 L 137.851562 78.839844 C 154.847656 72.875 171.578125 70.007812 188.203125 70.089844 Z M 188.203125 70.089844 " fill-opacity="1" fill-rule="nonzero"/><path fill="#ffffff" d="M 188.257812 54.609375 C 167.695312 54.507812 146.96875 58.371094 126.21875 66.511719 L 122.261719 68.066406 L 122.261719 183.789062 C 122.261719 190.203125 125.316406 196.023438 129.507812 202.277344 C 133.699219 208.535156 139.328125 215.003906 145.675781 220.976562 C 158.371094 232.929688 173.289062 243.464844 187.792969 243.464844 C 202.300781 243.464844 217.214844 232.929688 229.910156 220.976562 C 236.261719 215 241.890625 208.53125 246.082031 202.277344 C 250.273438 196.019531 253.328125 190.203125 253.328125 183.789062 L 253.328125 68.03125 L 249.324219 66.496094 C 229.226562 58.777344 208.820312 54.710938 188.257812 54.609375 Z M 188.214844 66.992188 C 205.835938 67.082031 223.339844 70.417969 240.859375 76.691406 L 240.859375 183.789062 C 240.859375 185.28125 239.234375 190.09375 235.71875 195.339844 C 232.207031 200.589844 227.109375 206.492188 221.367188 211.898438 C 209.875 222.714844 195.144531 231 187.792969 231 C 180.445312 231 165.710938 222.71875 154.222656 211.898438 C 148.480469 206.488281 143.382812 200.582031 139.867188 195.339844 C 136.355469 190.09375 134.730469 185.28125 134.730469 183.789062 L 134.730469 76.667969 C 152.757812 70.082031 170.546875 66.902344 188.214844 66.992188 Z M 188.214844 66.992188 " fill-opacity="1" fill-rule="nonzero"/><path fill="#00025d" d="M 188.25 57.703125 C 168.082031 57.605469 147.765625 61.410156 127.355469 69.417969 L 125.375 70.191406 L 125.375 183.789062 C 125.375 188.972656 128.074219 194.539062 132.09375 200.542969 C 136.117188 206.546875 141.609375 212.875 147.808594 218.710938 C 160.203125 230.378906 175.074219 240.355469 187.789062 240.355469 C 200.507812 240.355469 215.378906 230.378906 227.769531 218.710938 C 233.96875 212.875 239.464844 206.550781 243.484375 200.542969 C 247.507812 194.539062 250.203125 188.972656 250.203125 183.789062 L 250.203125 70.171875 L 248.203125 69.40625 C 228.417969 61.804688 208.410156 57.804688 188.25 57.703125 Z M 188.222656 63.898438 C 206.910156 63.992188 225.46875 67.636719 243.972656 74.507812 L 243.972656 183.789062 C 243.972656 186.511719 241.992188 191.574219 238.308594 197.074219 C 234.625 202.574219 229.394531 208.617188 223.5 214.167969 C 211.707031 225.269531 196.929688 234.117188 187.789062 234.117188 C 178.652344 234.117188 163.871094 225.269531 152.082031 214.167969 C 146.183594 208.617188 140.957031 202.574219 137.273438 197.074219 C 133.589844 191.574219 131.605469 186.511719 131.605469 183.789062 L 131.605469 74.496094 C 150.667969 67.273438 169.511719 63.804688 188.222656 63.898438 Z M 188.222656 63.898438 " fill-opacity="1" fill-rule="nonzero"/><path fill="#5271ff" d="M 128.496094 72.316406 L 128.496094 183.789062 C 128.496094 199.597656 165.9375 237.234375 187.792969 237.234375 C 209.648438 237.234375 247.09375 199.597656 247.09375 183.789062 L 247.09375 72.316406 C 208.132812 57.359375 168.632812 56.566406 128.496094 72.316406 Z M 128.496094 72.316406 " fill-opacity="1" fill-rule="nonzero"/><g clip-path="url(#4eecbac76d)"><path fill="#ffffff" d="M 176.707031 47.527344 C 172.203125 47.519531 168.871094 49.53125 166.175781 52.296875 C 164.222656 54.304688 163.730469 56.496094 163.84375 58.101562 C 163.957031 59.710938 164.640625 60.847656 164.640625 60.847656 L 164.550781 60.667969 C 164.550781 60.667969 165.289062 62.441406 166.085938 64.394531 C 166.882812 66.34375 167.761719 68.582031 167.925781 69.101562 C 168.15625 69.835938 168.839844 71.980469 169.761719 74.246094 C 170.6875 76.511719 171.734375 78.855469 173.222656 80.285156 C 174.464844 81.480469 175.929688 81.859375 177.222656 81.921875 C 177.234375 82.144531 177.304688 82.363281 177.421875 82.546875 C 177.421875 82.546875 178.992188 85.0625 179.617188 89.964844 C 179.535156 90.230469 179.109375 91.589844 178.628906 93.621094 C 178.097656 95.835938 177.5625 98.460938 177.667969 100.53125 C 177.808594 103.207031 175.984375 110.476562 179.800781 116.441406 C 179.054688 116.773438 178.539062 117.007812 177.160156 117.605469 C 175.03125 118.539062 172.558594 119.570312 172.125 119.703125 C 172.109375 119.707031 171.535156 119.785156 170.871094 119.773438 C 170.203125 119.761719 169.390625 119.707031 168.578125 119.660156 C 167.765625 119.609375 166.957031 119.558594 166.246094 119.558594 C 165.535156 119.558594 165.046875 119.40625 164.183594 119.925781 C 163.648438 120.246094 163.359375 120.625 163.035156 121.058594 C 162.710938 121.492188 162.402344 121.984375 162.132812 122.488281 C 161.859375 122.992188 161.628906 123.5 161.46875 123.996094 C 161.304688 124.492188 161.042969 124.898438 161.375 125.769531 C 161.59375 126.351562 161.898438 126.773438 162.15625 127.070312 C 162.175781 127.3125 162.175781 127.433594 162.238281 127.859375 C 162.351562 128.585938 162.449219 129.421875 163.101562 130.257812 C 163.753906 131.097656 164.597656 131.386719 165.394531 131.582031 C 165.792969 131.679688 166.183594 131.734375 166.582031 131.726562 C 166.980469 131.71875 167.40625 131.738281 167.957031 131.292969 C 167.578125 131.597656 167.683594 131.445312 167.8125 131.414062 C 167.941406 131.378906 168.160156 131.335938 168.429688 131.28125 C 168.941406 131.183594 169.644531 131.054688 170.378906 130.875 C 169.765625 131.675781 169.539062 132.128906 169.375 132.425781 C 168.847656 132.644531 167.167969 133.351562 165.207031 134.722656 C 162.917969 136.328125 160.363281 138.785156 160.476562 142.171875 C 160.582031 145.320312 162.273438 149.15625 163.875 152.402344 C 165.070312 154.816406 166.027344 156.460938 166.554688 157.347656 C 166.046875 157.902344 164.875 159.164062 163.164062 161.136719 C 162.140625 162.320312 161.113281 163.546875 160.308594 164.59375 C 159.90625 165.117188 159.5625 165.597656 159.289062 166.027344 C 159.019531 166.460938 158.777344 166.71875 158.6875 167.421875 C 158.554688 168.488281 158.707031 169.816406 158.84375 171.066406 C 158.949219 172.019531 159.023438 172.492188 159.074219 172.832031 C 158.828125 173.171875 158.03125 174.253906 156.910156 175.980469 C 155.632812 177.953125 154.253906 180.117188 153.820312 181.941406 C 153.242188 184.363281 151.863281 186.796875 146.640625 199.03125 C 141.488281 211.09375 137.871094 220.769531 129.785156 228.101562 C 129.511719 228.078125 129.441406 228.039062 129.042969 228.058594 C 128.644531 228.082031 128.199219 228.128906 127.714844 228.324219 C 127.234375 228.519531 126.644531 228.933594 126.382812 229.625 C 126.359375 229.6875 126.101562 230.242188 125.730469 230.882812 C 125.363281 231.523438 124.875 232.320312 124.308594 233.132812 C 123.179688 234.765625 121.707031 236.484375 120.542969 237.242188 C 119.429688 237.96875 117.722656 238.261719 116.179688 238.414062 C 115.410156 238.484375 114.695312 238.527344 114.046875 238.632812 C 113.71875 238.683594 113.410156 238.742188 113.070312 238.886719 C 112.730469 239.035156 112.25 239.3125 112.015625 239.910156 C 112.003906 239.949219 111.019531 241.65625 111.703125 243.453125 C 112.382812 245.25 114.28125 246.960938 118.566406 248.875 C 122.925781 250.820312 126.398438 250.875 128.882812 250.21875 C 131.363281 249.566406 132.78125 248.304688 133.359375 247.632812 C 133.742188 247.179688 134.214844 246.648438 134.714844 246.300781 C 135.214844 245.949219 135.625 245.804688 136.152344 245.910156 C 137.269531 246.132812 139.308594 246.347656 141.371094 246.332031 C 142.402344 246.324219 143.425781 246.253906 144.355469 246.070312 C 145.28125 245.882812 146.171875 245.636719 146.859375 244.816406 C 147.488281 244.058594 147.742188 243.195312 148.074219 242.085938 C 148.398438 240.972656 148.6875 239.671875 148.902344 238.371094 C 149.117188 237.074219 149.257812 235.792969 149.28125 234.699219 C 149.296875 234.152344 149.273438 233.652344 149.207031 233.1875 C 149.132812 232.71875 149.074219 232.261719 148.617188 231.746094 C 148.160156 231.234375 147.738281 230.882812 147.347656 230.558594 C 147.789062 229.832031 149.007812 227.785156 151.199219 224.464844 C 153.742188 220.609375 156.933594 216.105469 159.265625 213.71875 C 162.082031 210.832031 163.796875 206.179688 165.167969 201.746094 C 166.539062 197.308594 167.5625 192.96875 168.308594 191.324219 C 168.929688 189.949219 171.441406 187.847656 173.8125 186.351562 C 174.996094 185.605469 176.128906 184.980469 176.964844 184.535156 C 177.226562 185.339844 177.453125 185.980469 177.910156 187.617188 C 178.246094 188.824219 178.566406 190.109375 178.777344 191.203125 C 178.988281 192.292969 179.042969 193.269531 179.003906 193.492188 C 178.867188 194.378906 178.40625 195.140625 177.851562 195.957031 C 177.296875 196.773438 176.558594 197.617188 176.449219 198.933594 C 176.402344 199.511719 176.019531 202.214844 175.414062 204.746094 C 175.113281 206.015625 174.753906 207.261719 174.375 208.210938 C 173.996094 209.160156 173.472656 209.765625 173.507812 209.746094 C 172.402344 210.441406 171.214844 211.347656 170.355469 212.582031 C 169.492188 213.816406 168.996094 215.484375 169.496094 217.226562 C 169.765625 218.167969 170.535156 218.628906 171.234375 218.898438 C 171.933594 219.164062 172.710938 219.300781 173.585938 219.382812 C 175.339844 219.550781 177.492188 219.480469 179.679688 219.277344 C 181.867188 219.074219 184.078125 218.742188 185.898438 218.34375 C 186.808594 218.144531 187.621094 217.933594 188.300781 217.703125 C 188.984375 217.472656 189.515625 217.289062 190.042969 216.832031 C 191.605469 215.496094 191.765625 213.492188 192.125 211.808594 C 192.300781 210.96875 192.484375 210.199219 192.691406 209.667969 C 192.902344 209.140625 193.105469 208.957031 193.167969 208.925781 C 194.285156 208.394531 195.589844 207.640625 196.730469 206.707031 C 197.871094 205.78125 198.925781 204.707031 199.210938 203.199219 C 199.320312 202.617188 199.246094 202.183594 199.152344 201.636719 C 199.0625 201.089844 198.914062 200.472656 198.730469 199.800781 C 198.363281 198.453125 197.835938 196.867188 197.261719 195.3125 C 196.6875 193.757812 196.074219 192.234375 195.519531 191.011719 C 195.242188 190.402344 194.984375 189.867188 194.738281 189.425781 C 194.496094 188.984375 194.363281 188.679688 193.933594 188.289062 C 193.160156 187.578125 192.488281 187.132812 192.003906 186.835938 L 190.171875 175.34375 L 191.105469 174.738281 C 191.332031 174.777344 191.351562 174.808594 191.699219 174.828125 C 192.472656 174.871094 193.558594 174.824219 194.910156 174.507812 C 197.542969 173.890625 201.175781 172.214844 205.480469 168.3125 C 206.671875 168.167969 216.042969 166.855469 219.871094 159.003906 C 221.929688 154.785156 222.191406 148.769531 222.039062 143.441406 C 221.890625 138.117188 221.246094 133.359375 221.171875 132.480469 C 221.089844 131.511719 221.15625 130.78125 221.15625 129.949219 C 221.15625 129.117188 221.0625 128.167969 220.625 127.128906 C 219.882812 125.367188 218.121094 121.109375 218.636719 118.160156 C 219.007812 116.054688 219.242188 110.953125 219.039062 104.738281 C 218.851562 99.105469 218.246094 92.738281 216.933594 87.265625 C 217.996094 87.300781 219.214844 87.367188 221.835938 87.355469 C 225.394531 87.34375 229.277344 87.273438 231.585938 86.539062 C 233.046875 86.078125 235.046875 86.234375 237.117188 86.574219 C 239.1875 86.914062 241.28125 87.425781 243.222656 87.320312 C 245.097656 87.214844 248.320312 86.550781 251.453125 85.6875 C 253.023438 85.257812 254.539062 84.777344 255.816406 84.28125 C 257.089844 83.789062 258.082031 83.382812 258.847656 82.613281 C 259.425781 82.03125 260.394531 81.636719 261.335938 81.25 C 261.808594 81.054688 262.269531 80.886719 262.761719 80.472656 C 263.003906 80.265625 263.273438 79.964844 263.414062 79.539062 C 263.558594 79.117188 263.523438 78.621094 263.390625 78.246094 C 263.183594 77.664062 262.832031 76.722656 261.917969 76.132812 C 262.480469 75.621094 262.886719 75.039062 263.0625 74.390625 C 263.289062 73.539062 263.0625 72.621094 262.503906 71.980469 C 262.921875 71.746094 263.289062 71.453125 263.582031 71.078125 C 263.898438 70.667969 264.128906 70.140625 264.125 69.546875 C 264.121094 68.953125 263.84375 68.351562 263.433594 67.9375 C 262.289062 66.792969 260.574219 66.355469 258.914062 66.757812 C 259.574219 65.878906 260.261719 64.972656 260.75 64.242188 C 261.09375 63.730469 261.371094 63.285156 261.578125 62.871094 C 261.679688 62.664062 261.769531 62.472656 261.839844 62.191406 C 261.871094 62.050781 261.910156 61.882812 261.878906 61.625 C 261.851562 61.363281 261.722656 60.957031 261.382812 60.667969 C 261.234375 60.539062 260.054688 59.367188 258.414062 59.542969 C 256.773438 59.722656 255.085938 60.9375 252.957031 63.867188 C 250.617188 67.085938 248.410156 69.25 246.730469 70.753906 C 246.71875 70.105469 246.699219 69.441406 246.589844 68.835938 C 246.527344 68.496094 246.453125 68.171875 246.285156 67.820312 C 246.117188 67.46875 245.804688 66.96875 245.121094 66.785156 C 243.882812 66.449219 242.859375 67.039062 242.039062 67.863281 C 241.21875 68.683594 240.585938 69.902344 240.472656 71.390625 C 240.402344 72.308594 240.441406 72.699219 240.464844 73.132812 C 240.167969 73.039062 239.859375 72.945312 239.261719 72.65625 C 238.445312 72.261719 237.445312 71.722656 236.160156 71.878906 C 234.511719 72.074219 230.304688 72.746094 225.96875 72.152344 C 222.675781 71.699219 220.777344 71.898438 219.632812 72.089844 C 219.519531 71.789062 219.507812 71.734375 219.347656 71.355469 C 219.15625 70.898438 218.953125 70.433594 218.730469 70.019531 C 218.621094 69.8125 218.511719 69.617188 218.367188 69.421875 C 218.230469 69.226562 218.125 69.007812 217.648438 68.773438 C 217.257812 68.578125 217.242188 68.625 217.082031 68.59375 C 216.917969 68.558594 216.730469 68.527344 216.503906 68.492188 C 216.054688 68.421875 215.460938 68.34375 214.753906 68.277344 C 213.339844 68.136719 211.476562 68.019531 209.476562 68.042969 C 205.484375 68.089844 200.945312 68.496094 198.300781 71.078125 C 196.171875 73.164062 194.542969 75.015625 193.398438 75.625 C 192.824219 75.929688 192.488281 75.980469 192.003906 75.839844 C 191.683594 75.746094 191.230469 75.433594 190.714844 74.988281 C 192.433594 72.636719 193.070312 69.574219 193.222656 66.613281 C 193.402344 63.199219 192.914062 59.871094 192.339844 57.660156 C 191.765625 55.457031 190.871094 53.511719 189.175781 51.941406 C 187.476562 50.375 185.085938 49.226562 181.601562 48.25 C 179.835938 47.757812 178.203125 47.53125 176.707031 47.527344 Z M 176.660156 50.128906 C 177.910156 50.160156 179.300781 50.382812 180.898438 50.828125 C 184.164062 51.742188 186.132812 52.753906 187.378906 53.90625 C 188.628906 55.058594 189.265625 56.394531 189.773438 58.332031 C 190.277344 60.257812 190.734375 63.410156 190.570312 66.476562 C 190.414062 69.539062 189.609375 72.460938 187.949219 74.160156 C 187.457031 74.660156 187.4375 75.457031 187.902344 75.980469 C 189.011719 77.234375 190.085938 78.058594 191.273438 78.40625 C 192.464844 78.753906 193.683594 78.511719 194.675781 77.984375 C 196.660156 76.925781 198.175781 74.957031 200.1875 72.992188 C 201.683594 71.527344 205.777344 70.761719 209.523438 70.71875 C 211.394531 70.695312 213.175781 70.804688 214.507812 70.9375 C 215.171875 71 215.726562 71.074219 216.109375 71.132812 C 216.203125 71.148438 216.25 71.15625 216.320312 71.167969 C 216.347656 71.207031 216.355469 71.222656 216.382812 71.269531 C 216.53125 71.554688 216.71875 71.96875 216.890625 72.382812 C 217.230469 73.207031 217.515625 74.011719 217.515625 74.011719 C 217.75 74.679688 218.472656 75.050781 219.15625 74.847656 C 219.15625 74.847656 221.222656 74.199219 225.613281 74.800781 C 230.453125 75.464844 235.066406 74.699219 236.480469 74.53125 C 236.722656 74.503906 237.339844 74.6875 238.101562 75.058594 C 238.859375 75.429688 239.699219 75.980469 240.910156 75.980469 C 241.382812 75.980469 241.9375 75.941406 242.453125 75.5 C 242.96875 75.0625 243.105469 74.433594 243.132812 74.035156 C 243.183594 73.242188 243.0625 72.632812 243.144531 71.59375 C 243.210938 70.746094 243.566406 70.121094 243.9375 69.746094 C 243.960938 69.722656 243.972656 69.730469 243.992188 69.710938 C 244.039062 70.101562 244.078125 70.519531 244.082031 71.019531 C 244.09375 72.320312 243.984375 73.628906 243.984375 73.628906 C 243.925781 74.363281 244.46875 75.011719 245.207031 75.070312 C 245.53125 75.097656 245.855469 75.007812 246.121094 74.808594 C 246.121094 74.808594 250.949219 71.191406 255.128906 65.4375 C 257.050781 62.789062 258.285156 62.25 258.710938 62.199219 C 258.785156 62.191406 258.808594 62.222656 258.863281 62.222656 C 258.753906 62.40625 258.691406 62.523438 258.542969 62.757812 C 257.921875 63.6875 256.996094 64.929688 256.058594 66.15625 C 254.175781 68.605469 252.207031 71 252.207031 71 C 251.738281 71.570312 251.820312 72.414062 252.386719 72.882812 C 252.863281 73.273438 253.542969 73.289062 254.03125 72.921875 C 254.03125 72.921875 255.167969 72.078125 256.445312 71.195312 C 257.085938 70.753906 257.761719 70.304688 258.335938 69.953125 C 258.90625 69.605469 259.46875 69.351562 259.449219 69.355469 C 260.085938 69.171875 260.726562 69.355469 261.199219 69.636719 C 261.015625 69.738281 260.765625 69.847656 260.417969 69.902344 C 258.917969 70.125 257.730469 71.058594 256.652344 71.882812 C 255.582031 72.707031 254.746094 73.492188 254.746094 73.492188 C 254.210938 74 254.1875 74.84375 254.695312 75.378906 C 255.140625 75.851562 255.863281 75.933594 256.40625 75.574219 C 257.667969 74.730469 258.789062 74.207031 259.589844 73.964844 C 259.949219 73.855469 260.207031 73.851562 260.390625 73.847656 C 260.289062 74.027344 260.082031 74.304688 259.457031 74.628906 C 258.292969 75.234375 257.5625 75.855469 257.113281 76.386719 C 256.882812 76.652344 256.730469 76.894531 256.628906 77.089844 C 256.523438 77.289062 256.445312 77.53125 256.445312 77.53125 C 256.25 78.242188 256.671875 78.976562 257.382812 79.171875 C 257.726562 79.265625 258.085938 79.222656 258.394531 79.046875 C 259.902344 78.191406 260.441406 78.316406 260.476562 78.328125 C 260.488281 78.332031 260.585938 78.5625 260.628906 78.632812 C 260.507812 78.695312 260.507812 78.703125 260.332031 78.773438 C 259.476562 79.128906 258.101562 79.589844 256.972656 80.71875 C 256.882812 80.808594 256.007812 81.347656 254.863281 81.792969 C 253.714844 82.238281 252.261719 82.699219 250.757812 83.113281 C 247.753906 83.9375 244.449219 84.578125 243.085938 84.652344 C 241.789062 84.726562 239.742188 84.292969 237.5625 83.9375 C 235.382812 83.578125 233.019531 83.289062 230.789062 83.996094 C 229.40625 84.433594 225.328125 84.671875 221.839844 84.683594 C 218.355469 84.695312 215.328125 84.5625 215.328125 84.5625 C 214.585938 84.53125 213.964844 85.101562 213.933594 85.839844 C 213.925781 85.980469 213.941406 86.121094 213.984375 86.257812 C 215.503906 91.695312 216.183594 98.738281 216.386719 104.824219 C 216.585938 110.914062 216.285156 116.203125 216.027344 117.699219 C 215.28125 121.949219 217.480469 126.507812 218.179688 128.167969 C 218.457031 128.835938 218.5 129.28125 218.5 129.953125 C 218.5 130.628906 218.425781 131.519531 218.527344 132.707031 C 218.632812 133.992188 219.246094 138.367188 219.386719 143.523438 C 219.53125 148.683594 219.121094 154.492188 217.488281 157.835938 C 214.199219 164.578125 204.777344 165.730469 204.777344 165.730469 C 204.496094 165.765625 204.222656 165.886719 204.011719 166.082031 C 199.832031 169.957031 196.515625 171.398438 194.3125 171.914062 C 193.210938 172.167969 192.386719 172.199219 191.859375 172.167969 C 191.332031 172.140625 191.195312 172.085938 191.195312 172.085938 C 190.8125 171.964844 190.402344 172.023438 190.070312 172.242188 L 188 173.589844 C 187.558594 173.878906 187.328125 174.398438 187.414062 174.921875 L 189.484375 187.878906 C 189.546875 188.289062 189.804688 188.648438 190.171875 188.847656 C 190.171875 188.847656 191.21875 189.417969 192.148438 190.277344 C 191.992188 190.132812 192.222656 190.382812 192.410156 190.726562 C 192.601562 191.070312 192.839844 191.558594 193.097656 192.128906 C 193.613281 193.269531 194.214844 194.746094 194.769531 196.25 C 195.320312 197.753906 195.828125 199.285156 196.167969 200.523438 C 196.339844 201.140625 196.464844 201.6875 196.535156 202.097656 C 196.601562 202.507812 196.578125 202.824219 196.597656 202.714844 C 196.527344 203.097656 195.960938 203.914062 195.054688 204.648438 C 194.148438 205.382812 192.980469 206.070312 192.027344 206.527344 C 191.054688 206.988281 190.550781 207.863281 190.21875 208.695312 C 189.890625 209.527344 189.699219 210.410156 189.515625 211.269531 C 189.152344 212.988281 188.644531 214.535156 188.308594 214.816406 C 188.367188 214.765625 187.992188 215.003906 187.449219 215.183594 C 186.90625 215.367188 186.171875 215.5625 185.328125 215.75 C 183.644531 216.117188 181.515625 216.441406 179.433594 216.636719 C 177.355469 216.824219 175.308594 216.878906 173.839844 216.742188 C 173.101562 216.671875 172.511719 216.542969 172.195312 216.417969 C 172.09375 216.378906 172.089844 216.371094 172.058594 216.355469 C 171.863281 215.511719 172.042969 214.851562 172.546875 214.128906 C 173.085938 213.355469 174 212.609375 174.925781 212.035156 C 175.980469 211.375 176.398438 210.375 176.855469 209.226562 C 177.316406 208.078125 177.695312 206.734375 178.015625 205.386719 C 178.652344 202.703125 179.035156 200.128906 179.109375 199.179688 C 179.125 198.96875 179.472656 198.351562 180.0625 197.480469 C 180.648438 196.613281 181.402344 195.460938 181.644531 193.929688 C 181.800781 192.945312 181.632812 191.933594 181.402344 190.722656 C 181.167969 189.511719 180.832031 188.179688 180.484375 186.925781 C 179.789062 184.414062 179.046875 182.226562 179.046875 182.226562 C 178.808594 181.527344 178.050781 181.152344 177.351562 181.390625 C 177.304688 181.40625 177.257812 181.425781 177.210938 181.445312 C 177.210938 181.445312 174.917969 182.527344 172.390625 184.117188 C 169.863281 185.710938 167.03125 187.679688 165.871094 190.25 C 164.832031 192.550781 163.945312 196.671875 162.613281 200.984375 C 161.28125 205.300781 159.496094 209.679688 157.347656 211.882812 C 154.714844 214.582031 151.546875 219.117188 148.964844 223.023438 C 146.386719 226.929688 144.433594 230.199219 144.433594 230.199219 C 144.058594 230.824219 144.253906 231.632812 144.871094 232.019531 C 144.871094 232.019531 145.667969 232.539062 146.511719 233.457031 C 146.523438 233.488281 146.550781 233.53125 146.5625 233.625 C 146.597656 233.855469 146.617188 234.234375 146.605469 234.679688 C 146.589844 235.578125 146.460938 236.769531 146.261719 237.96875 C 146.0625 239.171875 145.789062 240.390625 145.503906 241.367188 C 145.222656 242.339844 144.808594 243.132812 144.804688 243.140625 C 144.851562 243.082031 144.480469 243.351562 143.824219 243.484375 C 143.167969 243.621094 142.273438 243.6875 141.351562 243.695312 C 139.503906 243.714844 137.46875 243.480469 136.675781 243.324219 C 135.296875 243.046875 134.054688 243.535156 133.183594 244.144531 C 132.3125 244.75 131.703125 245.488281 131.328125 245.929688 C 131.140625 246.148438 130.074219 247.175781 128.199219 247.671875 C 126.324219 248.167969 123.558594 248.21875 119.648438 246.472656 C 115.660156 244.691406 114.457031 243.226562 114.195312 242.539062 C 113.996094 242.015625 114.117188 241.765625 114.316406 241.339844 C 114.375 241.328125 114.375 241.320312 114.460938 241.308594 C 114.890625 241.238281 115.609375 241.191406 116.429688 241.109375 C 118.070312 240.949219 120.1875 240.699219 121.996094 239.523438 C 123.761719 238.371094 125.273438 236.46875 126.5 234.691406 C 127.113281 233.808594 127.644531 232.953125 128.046875 232.246094 C 128.390625 231.640625 128.59375 231.226562 128.761719 230.832031 C 128.835938 230.808594 128.984375 230.777344 129.175781 230.765625 C 129.617188 230.742188 130.078125 230.8125 130.078125 230.8125 C 130.476562 230.878906 130.878906 230.765625 131.183594 230.496094 C 140.132812 222.601562 143.890625 212.296875 149.09375 200.117188 C 154.296875 187.921875 155.71875 185.519531 156.414062 182.59375 C 156.617188 181.746094 157.914062 179.371094 159.148438 177.46875 C 160.378906 175.570312 161.535156 173.992188 161.535156 173.992188 C 161.746094 173.707031 161.832031 173.351562 161.78125 173.003906 C 161.78125 173.003906 161.625 171.992188 161.496094 170.804688 C 161.367188 169.617188 161.289062 168.160156 161.335938 167.789062 C 161.292969 168.132812 161.34375 167.804688 161.542969 167.488281 C 161.742188 167.167969 162.050781 166.738281 162.425781 166.25 C 163.171875 165.277344 164.179688 164.074219 165.183594 162.917969 C 167.191406 160.597656 169.179688 158.453125 169.179688 158.453125 C 169.585938 158.015625 169.652344 157.355469 169.339844 156.84375 C 169.339844 156.84375 167.816406 154.371094 166.273438 151.253906 C 164.730469 148.128906 163.222656 144.277344 163.148438 142.113281 C 163.082031 140.191406 164.761719 138.328125 166.738281 136.945312 C 168.722656 135.558594 170.75 134.765625 170.75 134.765625 C 171.054688 134.648438 171.308594 134.421875 171.457031 134.128906 C 171.457031 134.128906 171.859375 133.355469 172.507812 132.515625 C 173.15625 131.679688 174.066406 130.910156 174.628906 130.769531 C 175.292969 130.613281 176.433594 130.816406 177.359375 131.152344 C 178.285156 131.488281 178.953125 131.882812 178.953125 131.882812 C 179.160156 132.003906 179.390625 132.066406 179.628906 132.066406 L 184.21875 132.066406 C 184.941406 132.066406 185.53125 131.492188 185.554688 130.769531 L 185.734375 124.832031 C 185.753906 124.195312 185.320312 123.632812 184.699219 123.488281 C 184.699219 123.488281 183.949219 123.308594 183.03125 123.367188 C 182.113281 123.425781 180.792969 123.757812 180.023438 124.984375 C 180.164062 124.757812 179.804688 125.136719 179.167969 125.359375 C 178.53125 125.585938 177.671875 125.792969 176.832031 125.953125 C 175.15625 126.273438 173.558594 126.429688 173.558594 126.429688 C 173.144531 126.46875 172.769531 126.699219 172.550781 127.054688 C 172.398438 127.304688 171.160156 127.96875 169.816406 128.292969 C 169.148438 128.457031 168.472656 128.578125 167.917969 128.6875 C 167.636719 128.738281 167.390625 128.789062 167.15625 128.847656 C 166.925781 128.90625 166.777344 128.839844 166.285156 129.234375 C 166.613281 128.972656 166.632812 129.082031 166.53125 129.082031 C 166.429688 129.082031 166.222656 129.066406 166.015625 129.011719 C 165.597656 128.910156 165.183594 128.617188 165.207031 128.644531 C 165.226562 128.671875 164.964844 128.027344 164.878906 127.46875 C 164.789062 126.914062 164.769531 126.441406 164.769531 126.441406 C 164.753906 126.0625 164.578125 125.710938 164.289062 125.46875 C 164.289062 125.46875 164.121094 125.234375 163.988281 125.027344 C 163.988281 124.972656 163.976562 124.9375 164.003906 124.855469 C 164.097656 124.578125 164.277344 124.175781 164.488281 123.777344 C 164.699219 123.378906 164.953125 122.984375 165.175781 122.683594 C 165.347656 122.457031 165.433594 122.382812 165.476562 122.34375 C 165.578125 122.335938 165.886719 122.253906 166.246094 122.253906 C 166.832031 122.253906 167.609375 122.300781 168.417969 122.351562 C 169.226562 122.398438 170.066406 122.457031 170.828125 122.46875 C 171.59375 122.480469 172.222656 122.5 172.925781 122.28125 C 173.933594 121.96875 176.09375 121.019531 178.234375 120.085938 C 180.378906 119.148438 182.339844 118.269531 182.339844 118.269531 C 183.011719 117.96875 183.3125 117.175781 183.011719 116.503906 C 182.964844 116.390625 182.894531 116.28125 182.820312 116.191406 C 178.644531 111.210938 180.550781 104.554688 180.339844 100.421875 C 180.269531 98.984375 180.722656 96.390625 181.230469 94.265625 C 181.738281 92.140625 182.261719 90.453125 182.261719 90.453125 C 182.320312 90.273438 182.335938 90.082031 182.316406 89.894531 C 181.792969 85.496094 180.667969 83.125 180.132812 82.105469 L 181 81.136719 C 181.492188 80.582031 181.4375 79.738281 180.890625 79.25 C 180.527344 78.929688 180.019531 78.828125 179.5625 78.988281 C 179.5625 78.988281 176.628906 79.871094 175.082031 78.386719 C 174.316406 77.652344 173.121094 75.40625 172.242188 73.265625 C 171.371094 71.121094 170.703125 69.035156 170.480469 68.328125 C 170.191406 67.40625 169.363281 65.371094 168.5625 63.410156 C 167.761719 61.449219 167.019531 59.664062 167.019531 59.664062 C 166.996094 59.605469 166.960938 59.542969 166.929688 59.488281 C 166.929688 59.488281 166.582031 58.917969 166.511719 57.941406 C 166.441406 56.960938 166.628906 55.691406 168.089844 54.1875 C 170.519531 51.667969 172.925781 50.035156 176.660156 50.128906 Z M 183.03125 126.042969 L 182.929688 129.371094 L 179.914062 129.371094 C 179.660156 129.226562 179.21875 128.960938 178.285156 128.617188 C 178.117188 128.558594 177.890625 128.519531 177.710938 128.460938 C 178.507812 128.296875 179.328125 128.113281 180.066406 127.859375 C 180.914062 127.558594 181.710938 127.316406 182.296875 126.375 C 182.414062 126.1875 182.671875 126.089844 183.03125 126.042969 Z M 183.03125 126.042969 " fill-opacity="1" fill-rule="nonzero"/></g><path fill="#00025d" d="M 188.90625 75.09375 C 192.957031 79.683594 195.117188 76.085938 199.253906 72.039062 C 203.394531 67.988281 216.53125 69.699219 217.074219 69.964844 C 217.613281 70.234375 218.785156 73.5625 218.785156 73.5625 C 218.785156 73.5625 221.210938 72.84375 225.800781 73.476562 C 230.390625 74.105469 234.796875 73.386719 236.328125 73.207031 C 237.859375 73.027344 239.570312 74.644531 240.917969 74.644531 C 242.265625 74.644531 241.636719 73.835938 241.820312 71.496094 C 242.003906 69.15625 243.796875 67.808594 244.789062 68.078125 C 245.78125 68.34375 245.328125 73.746094 245.328125 73.746094 C 245.328125 73.746094 250.007812 70.238281 254.058594 64.65625 C 258.105469 59.078125 259.90625 61.148438 260.535156 61.6875 C 261.164062 62.230469 253.242188 71.855469 253.242188 71.855469 C 253.242188 71.855469 257.832031 68.433594 259.089844 68.078125 C 260.347656 67.714844 261.695312 68.078125 262.507812 68.886719 C 263.316406 69.695312 262.421875 70.957031 260.621094 71.226562 C 258.820312 71.492188 255.675781 74.464844 255.675781 74.464844 C 258.375 72.667969 260.53125 72.125 261.34375 72.667969 C 262.15625 73.207031 262.152344 74.738281 260.085938 75.8125 C 258.011719 76.894531 257.746094 77.886719 257.746094 77.886719 C 261.074219 75.996094 261.707031 77.433594 262.15625 78.695312 C 262.605469 79.953125 259.636719 79.953125 257.929688 81.664062 C 256.21875 83.371094 246.410156 85.800781 243.171875 85.980469 C 239.929688 86.160156 234.894531 84.089844 231.207031 85.261719 C 227.519531 86.429688 215.28125 85.890625 215.28125 85.890625 C 218.429688 97.136719 217.984375 114.324219 217.355469 117.925781 C 216.722656 121.523438 218.703125 125.933594 219.425781 127.644531 C 220.144531 129.351562 219.691406 130.433594 219.875 132.589844 C 220.058594 134.746094 222.394531 150.855469 218.707031 158.414062 C 215.019531 165.972656 204.9375 167.050781 204.9375 167.050781 C 196.296875 175.0625 190.8125 173.351562 190.8125 173.351562 L 188.742188 174.699219 L 190.8125 187.65625 C 190.8125 187.65625 191.980469 188.285156 193.0625 189.277344 C 194.140625 190.269531 198.28125 201.0625 197.917969 202.953125 C 197.558594 204.839844 194.679688 206.730469 192.609375 207.71875 C 190.542969 208.710938 191.078125 214.199219 189.191406 215.820312 C 187.300781 217.4375 171.558594 219.535156 170.796875 216.863281 C 170.03125 214.191406 172.199219 212.15625 174.234375 210.878906 C 176.265625 209.609375 177.667969 200.570312 177.792969 199.042969 C 177.921875 197.515625 179.960938 196.117188 180.339844 193.699219 C 180.722656 191.28125 177.792969 182.628906 177.792969 182.628906 C 177.792969 182.628906 168.886719 186.828125 167.105469 190.769531 C 165.320312 194.714844 163.285156 207.695312 158.324219 212.785156 C 153.347656 217.886719 145.582031 230.863281 145.582031 230.863281 C 145.582031 230.863281 146.601562 231.5 147.617188 232.644531 C 148.632812 233.789062 147.109375 242.441406 145.835938 243.96875 C 144.558594 245.496094 138.324219 244.988281 136.421875 244.605469 C 134.511719 244.226562 133.109375 245.878906 132.347656 246.769531 C 131.582031 247.660156 127.382812 251.351562 119.113281 247.660156 C 110.84375 243.96875 112.910156 241.300781 113.261719 240.40625 C 113.636719 239.460938 118.351562 240.28125 121.277344 238.371094 C 124.207031 236.464844 127.261719 231.117188 127.644531 230.101562 C 128.023438 229.082031 130.316406 229.464844 130.316406 229.464844 C 138.964844 221.828125 142.660156 211.777344 147.878906 199.558594 C 153.097656 187.34375 154.492188 184.925781 155.132812 182.253906 C 155.769531 179.582031 160.476562 173.171875 160.476562 173.171875 C 160.476562 173.171875 159.847656 169.035156 160.027344 167.59375 C 160.203125 166.15625 168.214844 157.515625 168.214844 157.515625 C 168.214844 157.515625 162.003906 147.4375 161.824219 142.128906 C 161.644531 136.820312 170.28125 133.492188 170.28125 133.492188 C 170.28125 133.492188 172.078125 129.984375 174.332031 129.441406 C 176.582031 128.902344 179.636719 130.703125 179.636719 130.703125 L 184.226562 130.703125 L 184.40625 124.761719 C 184.40625 124.761719 182.066406 124.222656 181.164062 125.664062 C 180.265625 127.101562 173.695312 127.738281 173.695312 127.738281 C 172.527344 129.625 167.578125 129.898438 167.128906 130.253906 C 166.679688 130.617188 164.789062 130.253906 164.160156 129.445312 C 163.53125 128.636719 163.441406 126.476562 163.441406 126.476562 C 163.441406 126.476562 162.902344 126.027344 162.632812 125.308594 C 162.363281 124.589844 163.980469 121.621094 164.882812 121.078125 C 165.785156 120.539062 171.09375 121.441406 172.53125 120.992188 C 173.96875 120.539062 181.800781 117.03125 181.800781 117.03125 C 177.121094 111.449219 179.191406 103.984375 179.007812 100.476562 C 178.832031 96.964844 180.988281 90.039062 180.988281 90.039062 C 180.355469 84.730469 178.558594 81.851562 178.558594 81.851562 L 179.996094 80.230469 C 179.996094 80.230469 176.398438 81.488281 174.148438 79.328125 C 171.898438 77.167969 169.648438 70.148438 169.199219 68.710938 C 168.75 67.273438 165.78125 60.160156 165.78125 60.160156 C 165.78125 60.160156 163.710938 56.742188 167.128906 53.230469 C 170.550781 49.722656 174.507812 47.652344 181.253906 49.542969 C 188.003906 51.433594 189.984375 53.863281 191.0625 58 C 192.144531 62.140625 192.953125 70.957031 188.90625 75.09375 Z M 188.90625 75.09375 " fill-opacity="1" fill-rule="nonzero"/><path fill="#5271ff" d="M 219.363281 82.882812 C 219.363281 82.882812 218.726562 77.410156 216.5 71.109375 C 216.5 71.109375 205.113281 70.664062 201.800781 72.257812 C 198.492188 73.847656 197.03125 76.773438 197.03125 76.773438 C 197.03125 76.773438 199.703125 74.164062 203.265625 73.144531 C 206.828125 72.125 215.222656 72.605469 215.222656 72.605469 C 215.222656 72.605469 218.21875 78.234375 219.363281 82.882812 Z M 219.363281 82.882812 " fill-opacity="1" fill-rule="nonzero"/><path fill="#5271ff" d="M 200.242188 132.308594 C 200.242188 132.308594 181.757812 130.878906 166.464844 137.898438 C 166.464844 137.898438 177.710938 145.367188 186.167969 161.472656 C 186.167969 161.472656 180.589844 147.796875 176.183594 141.226562 C 176.183594 141.226562 179.601562 141.675781 184.28125 146.804688 L 179.242188 139.066406 L 192.914062 138.890625 L 182.027344 136.1875 C 182.03125 136.1875 185.703125 134.285156 200.242188 132.308594 Z M 200.242188 132.308594 " fill-opacity="1" fill-rule="nonzero"/><path fill="#5271ff" d="M 129.082031 231.507812 C 135.0625 234.304688 143.714844 231.890625 143.714844 231.890625 C 143.714844 231.890625 146.132812 233.417969 146.261719 234.054688 C 146.386719 234.691406 145.8125 242.199219 144.476562 242.644531 C 143.140625 243.089844 136.019531 242.578125 136.019531 242.578125 L 136.714844 241.117188 C 131.816406 241.308594 128.636719 247.734375 125.675781 247.609375 C 122.71875 247.480469 118.359375 245 118.359375 245 C 118.359375 245 117.53125 243.570312 116.164062 243.378906 C 114.796875 243.1875 115.277344 243.828125 115.277344 243.828125 C 115.277344 243.828125 114.671875 243.570312 114.128906 242.96875 C 113.589844 242.363281 114.195312 241.027344 114.195312 241.027344 C 114.195312 241.027344 122.207031 243.34375 129.082031 231.507812 Z M 129.082031 231.507812 " fill-opacity="1" fill-rule="nonzero"/><path fill="#5271ff" d="M 180.765625 197.464844 C 180.765625 197.464844 179.328125 198.632812 179.328125 200.253906 C 179.328125 201.875 176.945312 210.332031 176.089844 211.5 C 175.234375 212.671875 172.847656 213.121094 172.402344 214.515625 C 171.949219 215.90625 171.769531 216.402344 172.355469 216.632812 C 172.941406 216.855469 186.074219 215.683594 187.605469 214.609375 C 189.136719 213.527344 189.332031 207.269531 190.605469 206.1875 C 191.875 205.109375 195.566406 203.582031 195.824219 202.113281 C 196.078125 200.652344 193.152344 191.9375 192.132812 191.171875 C 191.113281 190.410156 189.332031 190.535156 189.332031 190.535156 C 189.332031 190.535156 188.886719 196.261719 186.976562 197.980469 C 185.070312 199.699219 180.867188 209.816406 180.296875 210.132812 C 179.726562 210.449219 180.765625 197.464844 180.765625 197.464844 Z M 180.765625 197.464844 " fill-opacity="1" fill-rule="nonzero"/><path fill="#5271ff" d="M 204.558594 165.164062 C 224.570312 163.097656 217.902344 135.175781 217.902344 135.175781 C 217.902344 135.175781 220.792969 161.027344 204.558594 165.164062 Z M 204.558594 165.164062 " fill-opacity="1" fill-rule="nonzero"/><path fill="#5271ff" d="M 146.933594 206.554688 C 146.933594 206.554688 156.113281 186.9375 157.824219 185.5 C 159.535156 184.0625 167.632812 176.949219 167.632812 176.949219 L 173.75 178.121094 C 173.75 178.121094 166.550781 174.609375 165.472656 173.261719 C 164.390625 171.914062 164.570312 168.042969 164.753906 167.144531 C 164.933594 166.242188 169.882812 159.320312 169.882812 159.320312 C 169.882812 159.320312 162.234375 166.515625 162.144531 167.867188 C 162.054688 169.21875 162.6875 173.71875 162.6875 173.71875 C 162.6875 173.71875 156.835938 180.554688 156.476562 182.714844 C 156.113281 184.871094 146.933594 206.554688 146.933594 206.554688 Z M 146.933594 206.554688 " fill-opacity="1" fill-rule="nonzero"/><path fill="#ffffff" d="M 147.582031 84.929688 C 138.609375 84.929688 131.304688 92.230469 131.304688 101.199219 C 131.304688 110.171875 138.609375 117.472656 147.582031 117.472656 C 156.554688 117.472656 163.855469 110.171875 163.855469 101.199219 C 163.855469 92.230469 156.554688 84.929688 147.582031 84.929688 Z M 147.582031 87.601562 C 155.105469 87.601562 161.183594 93.671875 161.183594 101.199219 C 161.183594 108.726562 155.109375 114.800781 147.582031 114.800781 C 140.054688 114.800781 133.980469 108.730469 133.980469 101.199219 C 133.984375 93.675781 140.054688 87.601562 147.582031 87.601562 Z M 147.582031 87.601562 " fill-opacity="1" fill-rule="nonzero"/><path fill="#00025d" d="M 162.519531 101.203125 C 162.519531 109.453125 155.828125 116.140625 147.582031 116.140625 C 139.332031 116.140625 132.644531 109.453125 132.644531 101.203125 C 132.644531 92.953125 139.332031 86.265625 147.582031 86.265625 C 155.828125 86.265625 162.519531 92.953125 162.519531 101.203125 Z M 162.519531 101.203125 " fill-opacity="1" fill-rule="nonzero"/><path fill="#5271ff" d="M 157.371094 92.570312 C 158.5625 94.585938 159.191406 96.882812 159.191406 99.226562 C 159.191406 106.429688 153.351562 112.269531 146.148438 112.269531 C 142.402344 112.269531 138.839844 110.660156 136.363281 107.851562 C 138.710938 111.816406 142.980469 114.25 147.589844 114.25 C 154.792969 114.25 160.632812 108.40625 160.632812 101.203125 C 160.628906 98.023438 159.46875 94.957031 157.371094 92.570312 Z M 157.371094 92.570312 " fill-opacity="1" fill-rule="nonzero"/><g fill="#00025d" fill-opacity="1"><g transform="translate(7.05401, 293.08455)"><g><path d="M 20.703125 -29.9375 L 3.921875 -29.9375 C 3.625 -29.9375 2.90625 -29.828125 2.90625 -28.65625 L 2.90625 -25.796875 C 2.90625 -24.671875 3.625 -24.5625 3.921875 -24.5625 L 19.765625 -24.5625 C 20.671875 -24.5625 21.328125 -24.296875 21.6875 -23.765625 C 22.09375 -23.21875 22.265625 -22.34375 22.265625 -21.140625 C 22.265625 -19.9375 22.09375 -19.078125 21.6875 -18.53125 C 21.328125 -17.984375 20.671875 -17.734375 19.765625 -17.734375 L 3.921875 -17.734375 C 3.625 -17.734375 2.90625 -17.625 2.90625 -16.5 L 2.90625 -1.234375 C 2.90625 -0.109375 3.625 0.03125 3.921875 0.03125 L 7.265625 0.03125 C 7.5625 0.03125 8.28125 -0.109375 8.28125 -1.234375 L 8.28125 -12.34375 L 20.703125 -12.390625 C 23.171875 -12.390625 24.953125 -13.15625 26.046875 -14.671875 C 27.140625 -16.203125 27.640625 -18.375 27.640625 -21.25 L 27.640625 -21.03125 C 27.640625 -23.9375 27.140625 -26.125 26.046875 -27.609375 C 24.953125 -29.171875 23.171875 -29.9375 20.703125 -29.9375 Z M 20.703125 -29.9375 "/></g></g></g><g fill="#00025d" fill-opacity="1"><g transform="translate(39.426274, 293.08455)"><g><path d="M 23.875 -5.375 L 12.0625 -5.375 C 11.296875 -5.375 10.6875 -5.453125 10.171875 -5.625 C 9.734375 -5.78125 9.375 -6.03125 9.125 -6.4375 C 8.828125 -6.828125 8.609375 -7.375 8.5 -8.03125 C 8.359375 -8.75 8.3125 -9.65625 8.3125 -10.75 L 8.3125 -28.65625 C 8.3125 -29.828125 7.59375 -29.9375 7.296875 -29.9375 L 3.953125 -29.9375 C 3.625 -29.9375 2.90625 -29.828125 2.90625 -28.65625 L 2.90625 -11.375 C 2.90625 -9.34375 3.09375 -7.59375 3.421875 -6.171875 C 3.734375 -4.71875 4.25 -3.53125 4.984375 -2.609375 C 5.703125 -1.671875 6.640625 -0.984375 7.8125 -0.578125 C 8.90625 -0.1875 10.28125 0.03125 11.875 0.03125 L 23.875 0.03125 C 24.1875 0.03125 24.890625 -0.109375 24.890625 -1.234375 L 24.890625 -4.109375 C 24.890625 -5.234375 24.1875 -5.375 23.875 -5.375 Z M 23.875 -5.375 "/></g></g></g><g fill="#00025d" fill-opacity="1"><g transform="translate(69.037271, 293.08455)"><g><path d="M 22.375 -26.5625 C 22.3125 -26.734375 22.234375 -26.953125 22.15625 -27.09375 C 21.578125 -28.984375 19.828125 -30.328125 17.84375 -30.328125 C 16.921875 -30.328125 16.0625 -30.078125 15.328125 -29.578125 C 15.109375 -29.46875 14.9375 -29.3125 14.78125 -29.203125 C 14.234375 -28.734375 13.703125 -27.859375 13.1875 -26.5625 L 3.046875 -1.375 C 2.9375 -1.046875 2.90625 -0.71875 2.984375 -0.515625 C 3.015625 -0.296875 3.203125 0.03125 3.78125 0.03125 L 7.78125 0.03125 C 8.25 0.03125 8.609375 -0.25 8.796875 -0.71875 L 10.859375 -5.921875 L 18.8125 -5.921875 C 19.21875 -5.921875 19.578125 -6.109375 19.765625 -6.4375 C 19.984375 -6.71875 20.015625 -7.125 19.90625 -7.484375 L 18.59375 -10.71875 C 18.421875 -11.15625 18.015625 -11.4375 17.546875 -11.4375 L 13.046875 -11.4375 L 17.6875 -23.21875 C 17.734375 -23.28125 17.765625 -23.328125 17.765625 -23.328125 L 17.90625 -23.328125 C 17.90625 -23.328125 17.90625 -23.328125 17.953125 -23.25 L 26.953125 -0.765625 C 27.140625 -0.25 27.5 0.03125 28.015625 0.03125 L 31.890625 0.03125 C 32.484375 0.03125 32.625 -0.328125 32.6875 -0.515625 C 32.765625 -0.71875 32.734375 -1.046875 32.59375 -1.375 Z M 22.375 -26.5625 "/></g></g></g><g fill="#00025d" fill-opacity="1"><g transform="translate(106.532427, 293.08455)"><g><path d="M 29.78125 -29.9375 L 25.75 -29.9375 C 25.421875 -29.9375 25 -29.828125 24.703125 -29.28125 L 16.703125 -14.71875 L 8.796875 -29.25 C 8.5 -29.828125 8.0625 -29.9375 7.734375 -29.9375 L 3.59375 -29.9375 C 3.265625 -29.9375 3.015625 -29.75 2.9375 -29.421875 C 2.875 -29.171875 2.90625 -28.875 3.046875 -28.625 L 13.953125 -9.1875 L 13.953125 -1.234375 C 13.953125 -0.109375 14.671875 0 14.96875 0 L 18.3125 0 C 18.59375 0 19.328125 -0.109375 19.328125 -1.234375 L 19.328125 -9.1875 L 30.328125 -28.625 C 30.484375 -28.875 30.515625 -29.171875 30.4375 -29.46875 C 30.328125 -29.75 30.078125 -29.9375 29.78125 -29.9375 Z M 29.78125 -29.9375 "/></g></g></g><g fill="#00025d" fill-opacity="1"><g transform="translate(141.738633, 293.08455)"><g><path d="M 6.6875 -5.234375 L 4.328125 -5.234375 C 3.53125 -5.234375 2.90625 -4.609375 2.90625 -3.8125 L 2.90625 -1.453125 C 2.90625 -0.6875 3.53125 -0.03125 4.328125 -0.03125 L 6.6875 -0.03125 C 7.453125 -0.03125 8.09375 -0.6875 8.09375 -1.453125 L 8.09375 -3.8125 C 8.09375 -4.609375 7.453125 -5.234375 6.6875 -5.234375 Z M 6.6875 -5.234375 "/></g></g></g><g fill="#00025d" fill-opacity="1"><g transform="translate(154.564006, 293.08455)"><g><path d="M 33.234375 -29.9375 L 29.96875 -29.9375 C 29.46875 -29.9375 29.0625 -29.890625 28.703125 -29.78125 C 28.328125 -29.6875 28.015625 -29.5 27.71875 -29.25 C 27.46875 -28.953125 27.203125 -28.625 26.984375 -28.1875 C 26.78125 -27.75 26.59375 -27.203125 26.375 -26.515625 L 19.9375 -10.46875 C 19.90625 -10.3125 19.875 -10.3125 19.828125 -10.3125 L 19.46875 -10.3125 C 19.46875 -10.3125 19.40625 -10.3125 19.359375 -10.46875 L 12.96875 -26.515625 C 12.75 -27.203125 12.53125 -27.75 12.34375 -28.1875 C 12.140625 -28.625 11.875 -28.953125 11.625 -29.25 C 11.328125 -29.5 10.96875 -29.6875 10.609375 -29.78125 C 10.25 -29.890625 9.8125 -29.9375 9.34375 -29.9375 L 6 -29.9375 C 4.765625 -29.9375 3.921875 -29.53125 3.484375 -28.765625 C 3.09375 -28.078125 2.90625 -26.921875 2.90625 -25.25 L 2.90625 -1.234375 C 2.90625 -0.109375 3.625 0.03125 3.953125 0.03125 L 7.078125 0.03125 C 7.40625 0.03125 8.09375 -0.109375 8.09375 -1.234375 L 8.09375 -23.0625 C 8.09375 -23.109375 8.09375 -23.140625 8.09375 -23.140625 L 8.28125 -23.140625 C 8.3125 -23.140625 8.359375 -23.140625 8.390625 -23.03125 L 14.609375 -7.671875 C 14.859375 -6.90625 15.109375 -6.25 15.359375 -5.703125 C 15.65625 -5.15625 15.953125 -4.71875 16.234375 -4.359375 C 16.609375 -4 16.96875 -3.703125 17.40625 -3.5625 C 17.84375 -3.421875 18.3125 -3.34375 18.859375 -3.34375 L 20.34375 -3.34375 C 20.890625 -3.34375 21.390625 -3.421875 21.796875 -3.5625 C 22.234375 -3.703125 22.625 -4 22.953125 -4.359375 C 23.25 -4.71875 23.578125 -5.15625 23.828125 -5.703125 C 24.078125 -6.25 24.34375 -6.90625 24.59375 -7.671875 L 30.84375 -23.0625 C 30.84375 -23.140625 30.875 -23.140625 30.921875 -23.140625 L 31.09375 -23.140625 C 31.09375 -23.140625 31.09375 -23.109375 31.09375 -23.0625 L 31.09375 -1.234375 C 31.09375 -0.109375 31.828125 0.03125 32.109375 0.03125 L 35.234375 0.03125 C 35.5625 0.03125 36.296875 -0.109375 36.296875 -1.234375 L 36.296875 -25.25 C 36.296875 -26.921875 36.109375 -28.078125 35.703125 -28.765625 C 35.28125 -29.53125 34.4375 -29.9375 33.234375 -29.9375 Z M 33.234375 -29.9375 "/></g></g></g><g fill="#00025d" fill-opacity="1"><g transform="translate(195.583413, 293.08455)"><g><path d="M 24.734375 -6.5 L 11.953125 -6.5 C 11.1875 -6.5 10.578125 -6.609375 10.0625 -6.75 C 9.59375 -6.9375 9.265625 -7.1875 8.96875 -7.5625 C 8.6875 -7.953125 8.46875 -8.5 8.359375 -9.1875 C 8.3125 -9.375 8.3125 -9.625 8.28125 -9.8125 C 8.28125 -9.8125 8.3125 -12.421875 8.359375 -12.421875 L 24.59375 -12.421875 C 24.890625 -12.421875 25.609375 -12.5625 25.609375 -13.703125 L 25.609375 -16.5625 C 25.609375 -17.6875 24.890625 -17.796875 24.59375 -17.796875 L 5.84375 -17.765625 C 4.796875 -17.6875 3.890625 -17.140625 3.375 -16.234375 C 3.203125 -15.953125 3.046875 -15.65625 2.984375 -15.328125 L 2.90625 -10.75 L 2.90625 -10.578125 C 2.9375 -8.859375 3.125 -7.40625 3.375 -6.21875 C 3.703125 -4.765625 4.25 -3.5625 4.9375 -2.65625 C 5.671875 -1.703125 6.609375 -1.046875 7.78125 -0.65625 C 8.90625 -0.21875 10.25 -0.03125 11.84375 -0.03125 L 24.734375 -0.03125 C 25.0625 -0.03125 25.796875 -0.140625 25.796875 -1.265625 L 25.796875 -5.265625 C 25.796875 -6.390625 25.0625 -6.5 24.734375 -6.5 Z M 24.78125 -30 L 3.890625 -30 C 3.59375 -30 2.90625 -29.859375 2.90625 -28.703125 L 2.90625 -25.859375 C 2.90625 -24.734375 3.59375 -24.625 3.890625 -24.625 L 24.78125 -24.59375 C 25.0625 -24.59375 25.796875 -24.734375 25.796875 -25.859375 L 25.796875 -28.734375 C 25.796875 -29.859375 25.0625 -30 24.78125 -30 Z M 24.78125 -30 "/></g></g></g><g fill="#00025d" fill-opacity="1"><g transform="translate(226.102728, 293.08455)"><g><path d="M 28.015625 -29.9375 L 3.953125 -29.9375 C 3.625 -29.9375 2.90625 -29.828125 2.90625 -28.703125 L 2.90625 -25.859375 C 2.90625 -24.671875 3.625 -24.5625 3.953125 -24.5625 L 13.296875 -24.5625 L 13.296875 -1.234375 C 13.296875 -0.109375 14.015625 0 14.3125 0 L 17.65625 0 C 17.984375 0 18.671875 -0.109375 18.671875 -1.234375 L 18.671875 -24.5625 L 28.015625 -24.5625 C 28.328125 -24.5625 29.0625 -24.671875 29.0625 -25.859375 L 29.0625 -28.703125 C 29.0625 -29.828125 28.328125 -29.9375 28.015625 -29.9375 Z M 28.015625 -29.9375 "/></g></g></g><g fill="#00025d" fill-opacity="1"><g transform="translate(259.891956, 293.08455)"><g><path d="M 27.6875 -21.25 C 27.6875 -21.21875 27.6875 -21.171875 27.6875 -21.140625 C 27.6875 -21.109375 27.6875 -21.0625 27.6875 -21.03125 Z M 28.375 -1.5625 L 22.015625 -12.453125 C 23.796875 -12.671875 25.171875 -13.4375 26.078125 -14.671875 C 27.09375 -16.171875 27.640625 -18.3125 27.6875 -21.140625 C 27.640625 -23.96875 27.09375 -26.125 26.078125 -27.609375 C 25 -29.171875 23.171875 -29.9375 20.703125 -29.9375 L 3.953125 -29.9375 C 3.625 -29.9375 2.90625 -29.828125 2.90625 -28.65625 L 2.90625 -25.796875 C 2.90625 -24.671875 3.625 -24.5625 3.953125 -24.5625 L 19.765625 -24.5625 C 20.703125 -24.5625 21.328125 -24.296875 21.6875 -23.765625 C 22.09375 -23.21875 22.265625 -22.34375 22.265625 -21.140625 C 22.265625 -19.9375 22.09375 -19.078125 21.6875 -18.53125 C 21.328125 -17.984375 20.703125 -17.734375 19.765625 -17.734375 L 3.953125 -17.734375 C 3.625 -17.734375 2.90625 -17.625 2.90625 -16.5 L 2.90625 -1.234375 C 2.90625 -0.109375 3.625 0.03125 3.953125 0.03125 L 7.265625 0.03125 C 7.59375 0.03125 8.28125 -0.109375 8.28125 -1.234375 L 8.28125 -12.34375 L 15.953125 -12.34375 L 22.515625 -0.6875 C 22.671875 -0.46875 22.78125 -0.296875 22.921875 -0.1875 C 23.109375 -0.03125 23.359375 0.03125 23.6875 0.03125 L 27.6875 0.03125 C 28.125 0.03125 28.4375 -0.25 28.515625 -0.6875 C 28.546875 -1.046875 28.515625 -1.34375 28.375 -1.5625 Z M 28.375 -1.5625 "/></g></g></g><g fill="#00025d" fill-opacity="1"><g transform="translate(293.172537, 293.08455)"><g><path d="M 7.265625 -29.9375 L 3.921875 -29.9375 C 3.625 -29.9375 2.90625 -29.78125 2.90625 -28.65625 L 2.90625 -1.234375 C 2.90625 -0.109375 3.625 0.03125 3.921875 0.03125 L 7.265625 0.03125 C 7.5625 0.03125 8.28125 -0.109375 8.28125 -1.234375 L 8.28125 -28.65625 C 8.28125 -29.78125 7.5625 -29.9375 7.265625 -29.9375 Z M 7.265625 -29.9375 "/></g></g></g><g fill="#00025d" fill-opacity="1"><g transform="translate(306.17956, 293.08455)"><g><path d="M 25.109375 -29.9375 L 11.875 -29.9375 C 10.28125 -29.9375 8.90625 -29.71875 7.78125 -29.3125 C 6.609375 -28.875 5.671875 -28.1875 4.984375 -27.28125 C 4.25 -26.375 3.703125 -25.171875 3.375 -23.71875 C 3.046875 -22.3125 2.90625 -20.5625 2.90625 -18.5625 L 2.90625 -11.375 C 2.90625 -9.34375 3.046875 -7.59375 3.375 -6.140625 C 3.703125 -4.71875 4.25 -3.53125 4.984375 -2.578125 C 5.703125 -1.671875 6.640625 -0.984375 7.78125 -0.578125 C 8.90625 -0.1875 10.28125 0.03125 11.875 0.03125 L 25.109375 0.03125 C 25.390625 0.03125 26.125 -0.109375 26.125 -1.234375 L 26.125 -4.109375 C 26.125 -5.234375 25.390625 -5.375 25.109375 -5.375 L 12.0625 -5.375 C 11.296875 -5.375 10.640625 -5.453125 10.171875 -5.625 C 9.703125 -5.78125 9.375 -6.03125 9.078125 -6.4375 C 8.796875 -6.796875 8.609375 -7.34375 8.46875 -8.03125 C 8.359375 -8.75 8.28125 -9.65625 8.28125 -10.75 L 8.28125 -19.21875 C 8.28125 -20.3125 8.359375 -21.21875 8.46875 -21.90625 C 8.609375 -22.59375 8.796875 -23.109375 9.078125 -23.5 C 9.375 -23.90625 9.703125 -24.15625 10.171875 -24.296875 C 10.640625 -24.484375 11.296875 -24.5625 12.0625 -24.5625 L 25.109375 -24.5625 C 25.390625 -24.5625 26.125 -24.703125 26.125 -25.859375 L 26.125 -28.65625 C 26.125 -29.78125 25.390625 -29.9375 25.109375 -29.9375 Z M 25.109375 -29.9375 "/></g></g></g><g fill="#00025d" fill-opacity="1"><g transform="translate(337.025872, 293.08455)"><g><path d="M 20.453125 -17.875 L 9.546875 -17.875 C 9.015625 -17.875 8.3125 -18.09375 8.3125 -19.875 L 8.3125 -22.5625 C 8.3125 -23.21875 8.421875 -23.71875 8.609375 -24.078125 C 8.75 -24.296875 8.96875 -24.5625 9.59375 -24.5625 L 24.375 -24.5625 C 24.671875 -24.5625 25.390625 -24.671875 25.390625 -25.796875 L 25.390625 -28.703125 C 25.390625 -29.828125 24.671875 -29.9375 24.375 -29.9375 L 8.71875 -29.9375 C 6.71875 -29.9375 5.265625 -29.28125 4.328125 -27.9375 C 3.375 -26.625 2.90625 -24.890625 2.90625 -22.78125 L 2.90625 -20.015625 C 2.90625 -17.515625 3.421875 -15.46875 4.328125 -14.203125 C 5.453125 -12.71875 7.125 -12.5 8.640625 -12.5 L 19.546875 -12.5 C 20.09375 -12.5 20.8125 -12.28125 20.8125 -10.5 L 20.8125 -7.375 C 20.8125 -6.71875 20.703125 -6.21875 20.484375 -5.84375 C 20.34375 -5.625 20.125 -5.375 19.515625 -5.375 L 4 -5.375 C 3.671875 -5.375 2.9375 -5.265625 2.9375 -4.140625 L 2.9375 -1.234375 C 2.9375 -0.109375 3.671875 0 4 0 L 20.375 0 C 22.375 0 23.875 -0.6875 24.8125 -2.03125 C 25.71875 -3.34375 26.1875 -5.046875 26.1875 -7.15625 L 26.1875 -10.359375 C 26.1875 -12.71875 25.71875 -14.5625 24.78125 -15.875 C 23.796875 -17.1875 22.34375 -17.875 20.453125 -17.875 Z M 20.453125 -17.875 "/></g></g></g><g fill="#5170fc" fill-opacity="1"><g transform="translate(86.805638, 322.880087)"><g><path d="M 3.6875 -11.046875 L 3.6875 -6.640625 L 10.015625 -6.640625 L 10.015625 -5.09375 L 3.6875 -5.09375 L 3.6875 0 L 1.890625 0 L 1.890625 -12.609375 L 10.796875 -12.609375 L 10.796875 -11.046875 Z M 3.6875 -11.046875 "/></g></g></g><g fill="#5170fc" fill-opacity="1"><g transform="translate(112.656327, 322.880087)"><g><path d="M 7.578125 0.140625 C 6.304688 0.140625 5.160156 -0.132812 4.140625 -0.6875 C 3.117188 -1.25 2.316406 -2.019531 1.734375 -3 C 1.148438 -3.988281 0.859375 -5.09375 0.859375 -6.3125 C 0.859375 -7.519531 1.148438 -8.613281 1.734375 -9.59375 C 2.316406 -10.582031 3.117188 -11.351562 4.140625 -11.90625 C 5.160156 -12.46875 6.304688 -12.75 7.578125 -12.75 C 8.835938 -12.75 9.976562 -12.46875 11 -11.90625 C 12.019531 -11.351562 12.816406 -10.585938 13.390625 -9.609375 C 13.972656 -8.628906 14.265625 -7.53125 14.265625 -6.3125 C 14.265625 -5.082031 13.972656 -3.976562 13.390625 -3 C 12.816406 -2.019531 12.019531 -1.25 11 -0.6875 C 9.976562 -0.132812 8.835938 0.140625 7.578125 0.140625 Z M 7.578125 -1.453125 C 8.503906 -1.453125 9.335938 -1.660156 10.078125 -2.078125 C 10.816406 -2.503906 11.398438 -3.085938 11.828125 -3.828125 C 12.253906 -4.566406 12.46875 -5.394531 12.46875 -6.3125 C 12.46875 -7.21875 12.253906 -8.039062 11.828125 -8.78125 C 11.398438 -9.519531 10.816406 -10.097656 10.078125 -10.515625 C 9.335938 -10.941406 8.503906 -11.15625 7.578125 -11.15625 C 6.660156 -11.15625 5.828125 -10.941406 5.078125 -10.515625 C 4.328125 -10.097656 3.738281 -9.519531 3.3125 -8.78125 C 2.882812 -8.039062 2.671875 -7.21875 2.671875 -6.3125 C 2.671875 -5.394531 2.882812 -4.566406 3.3125 -3.828125 C 3.738281 -3.085938 4.328125 -2.503906 5.078125 -2.078125 C 5.828125 -1.660156 6.660156 -1.453125 7.578125 -1.453125 Z M 7.578125 -1.453125 "/></g></g></g><g fill="#5170fc" fill-opacity="1"><g transform="translate(142.19843, 322.880087)"><g><path d="M 7.578125 0.140625 C 6.304688 0.140625 5.160156 -0.132812 4.140625 -0.6875 C 3.117188 -1.25 2.316406 -2.019531 1.734375 -3 C 1.148438 -3.988281 0.859375 -5.09375 0.859375 -6.3125 C 0.859375 -7.519531 1.148438 -8.613281 1.734375 -9.59375 C 2.316406 -10.582031 3.117188 -11.351562 4.140625 -11.90625 C 5.160156 -12.46875 6.304688 -12.75 7.578125 -12.75 C 8.835938 -12.75 9.976562 -12.46875 11 -11.90625 C 12.019531 -11.351562 12.816406 -10.585938 13.390625 -9.609375 C 13.972656 -8.628906 14.265625 -7.53125 14.265625 -6.3125 C 14.265625 -5.082031 13.972656 -3.976562 13.390625 -3 C 12.816406 -2.019531 12.019531 -1.25 11 -0.6875 C 9.976562 -0.132812 8.835938 0.140625 7.578125 0.140625 Z M 7.578125 -1.453125 C 8.503906 -1.453125 9.335938 -1.660156 10.078125 -2.078125 C 10.816406 -2.503906 11.398438 -3.085938 11.828125 -3.828125 C 12.253906 -4.566406 12.46875 -5.394531 12.46875 -6.3125 C 12.46875 -7.21875 12.253906 -8.039062 11.828125 -8.78125 C 11.398438 -9.519531 10.816406 -10.097656 10.078125 -10.515625 C 9.335938 -10.941406 8.503906 -11.15625 7.578125 -11.15625 C 6.660156 -11.15625 5.828125 -10.941406 5.078125 -10.515625 C 4.328125 -10.097656 3.738281 -9.519531 3.3125 -8.78125 C 2.882812 -8.039062 2.671875 -7.21875 2.671875 -6.3125 C 2.671875 -5.394531 2.882812 -4.566406 3.3125 -3.828125 C 3.738281 -3.085938 4.328125 -2.503906 5.078125 -2.078125 C 5.828125 -1.660156 6.660156 -1.453125 7.578125 -1.453125 Z M 7.578125 -1.453125 "/></g></g></g><g fill="#5170fc" fill-opacity="1"><g transform="translate(171.740534, 322.880087)"><g><path d="M 4.390625 -11.046875 L 0.078125 -11.046875 L 0.078125 -12.609375 L 10.5 -12.609375 L 10.5 -11.046875 L 6.171875 -11.046875 L 6.171875 0 L 4.390625 0 Z M 4.390625 -11.046875 "/></g></g></g><g fill="#5170fc" fill-opacity="1"><g transform="translate(196.726888, 322.880087)"><g><path d="M 10.375 -6.546875 C 11.101562 -6.335938 11.675781 -5.960938 12.09375 -5.421875 C 12.519531 -4.890625 12.734375 -4.21875 12.734375 -3.40625 C 12.734375 -2.3125 12.320312 -1.46875 11.5 -0.875 C 10.675781 -0.289062 9.476562 0 7.90625 0 L 1.890625 0 L 1.890625 -12.609375 L 7.546875 -12.609375 C 8.984375 -12.609375 10.097656 -12.316406 10.890625 -11.734375 C 11.679688 -11.160156 12.078125 -10.363281 12.078125 -9.34375 C 12.078125 -8.6875 11.921875 -8.117188 11.609375 -7.640625 C 11.304688 -7.160156 10.894531 -6.796875 10.375 -6.546875 Z M 3.6875 -11.15625 L 3.6875 -7.109375 L 7.390625 -7.109375 C 8.316406 -7.109375 9.023438 -7.28125 9.515625 -7.625 C 10.015625 -7.96875 10.265625 -8.472656 10.265625 -9.140625 C 10.265625 -9.796875 10.015625 -10.296875 9.515625 -10.640625 C 9.023438 -10.984375 8.316406 -11.15625 7.390625 -11.15625 Z M 7.84375 -1.453125 C 8.863281 -1.453125 9.628906 -1.617188 10.140625 -1.953125 C 10.660156 -2.296875 10.921875 -2.828125 10.921875 -3.546875 C 10.921875 -4.953125 9.894531 -5.65625 7.84375 -5.65625 L 3.6875 -5.65625 L 3.6875 -1.453125 Z M 7.84375 -1.453125 "/></g></g></g><g fill="#5170fc" fill-opacity="1"><g transform="translate(224.774421, 322.880087)"><g><path d="M 9.921875 -3.15625 L 3.21875 -3.15625 L 1.84375 0 L -0.015625 0 L 5.6875 -12.609375 L 7.46875 -12.609375 L 13.203125 0 L 11.3125 0 Z M 9.296875 -4.59375 L 6.578125 -10.765625 L 3.859375 -4.59375 Z M 9.296875 -4.59375 "/></g></g></g><g fill="#5170fc" fill-opacity="1"><g transform="translate(252.371771, 322.880087)"><g><path d="M 1.890625 -12.609375 L 3.6875 -12.609375 L 3.6875 -1.5625 L 10.515625 -1.5625 L 10.515625 0 L 1.890625 0 Z M 1.890625 -12.609375 "/></g></g></g><g fill="#5170fc" fill-opacity="1"><g transform="translate(277.484176, 322.880087)"><g><path d="M 1.890625 -12.609375 L 3.6875 -12.609375 L 3.6875 -1.5625 L 10.515625 -1.5625 L 10.515625 0 L 1.890625 0 Z M 1.890625 -12.609375 "/></g></g></g><g clip-path="url(#e6b3086a2d)"><g clip-path="url(#7c4b484aad)"><path fill="#00025d" d="M 134.546875 138.394531 L 157.785156 138.394531 L 157.785156 160.511719 L 134.546875 160.511719 Z M 134.546875 138.394531 " fill-opacity="1" fill-rule="nonzero"/></g></g><g clip-path="url(#4bc96f74ce)"><g clip-path="url(#19d442a4ef)"><path fill="#00025d" d="M 223.183594 138.394531 L 246.421875 138.394531 L 246.421875 160.511719 L 223.183594 160.511719 Z M 223.183594 138.394531 " fill-opacity="1" fill-rule="nonzero"/></g></g></svg>